SplineFontDB: 3.0
FontName: Strobrod-Regular
FullName: Strobrod
FamilyName: Strobrod
Weight: Book
Copyright: CC, Aaron Christianson, Nicolas Mercier
UComments: "2017-3-27: Created with FontForge (http://fontforge.org)"
Version: 001.000
StrokeWidth: 614
ItalicAngle: 0
UnderlinePosition: 0
UnderlineWidth: 0
Ascent: 819
Descent: 205
InvalidEm: 0
LayerCount: 2
Layer: 0 0 "Back" 1
Layer: 1 0 "Fore" 0
StrokedFont: 1
HasVMetrics: 1
XUID: [1021 68 1269985762 15680502]
StyleMap: 0x0040
FSType: 0
OS2Version: 3
OS2_WeightWidthSlopeOnly: 0
OS2_UseTypoMetrics: 1
CreationTime: 1490615230
ModificationTime: 1495356467
PfmFamily: 49
TTFWeight: 400
TTFWidth: 5
LineGap: 0
VLineGap: 0
Panose: 2 11 5 9 0 0 0 0 0 0
OS2TypoAscent: 630
OS2TypoAOffset: 0
OS2TypoDescent: -158
OS2TypoDOffset: 0
OS2TypoLinegap: 0
OS2WinAscent: 630
OS2WinAOffset: 0
OS2WinDescent: 158
OS2WinDOffset: 0
HheadAscent: 630
HheadAOffset: 0
HheadDescent: -158
HheadDOffset: 0
OS2Vendor: 'PfEd'
MarkAttachClasses: 1
DEI: 91125
LangName: 1033
GaspTable: 3 0 1 10 1 65535 0 0
DesignSize: 100
Encoding: iso8859-15
UnicodeInterp: none
NameList: AGL For New Fonts
DisplaySize: 10
AntiAlias: 1
FitToEm: 0
WinInfo: 0 61 19
BeginPrivate: 0
EndPrivate
TeXData: 1 10485760 0 524288 262144 174762 524288 1048576 174762 783286 444596 497025 792723 393216 433062 380633 303038 157286 324010 404750 52429 2506097 1059062 262144
BeginChars: 546 546

StartChar: exclam
Encoding: 33 33 1
Width: 469
VWidth: 0
Flags: W
HStem: 0 79<236 315> 457 16G<236 315>
VStem: 236 79<0 79 158 473>
LayerCount: 2
Back
SplineSet
236.307617188 472.615234375 m 29
 315.077148438 472.615234375 l 25
 315.077148438 157.538085938 l 25
 236.307617188 157.538085938 l 25
 236.307617188 472.615234375 l 29
236.307617188 78.76953125 m 25
 315.077148438 78.76953125 l 25
 315.077148438 0 l 25
 236.307617188 0 l 25
 236.307617188 78.76953125 l 25
EndSplineSet
Fore
SplineSet
236 473 m 25
 315 473 l 25
 315 158 l 25
 236 158 l 25
 236 473 l 25
236 79 m 25
 315 79 l 25
 315 0 l 25
 236 0 l 25
 236 79 l 25
EndSplineSet
EndChar

StartChar: quotedbl
Encoding: 34 34 2
Width: 469
VWidth: 0
Flags: W
HStem: 394 158<158 236 315 394>
VStem: 158 79<394 551> 315 79<394 551>
LayerCount: 2
Back
SplineSet
315.077148438 551.384765625 m 29
 393.845703125 551.384765625 l 25
 393.845703125 393.845703125 l 25
 315.077148438 393.845703125 l 25
 315.077148438 551.384765625 l 29
157.538085938 551.384765625 m 25
 236.307617188 551.384765625 l 25
 236.307617188 393.845703125 l 25
 157.538085938 393.845703125 l 25
 157.538085938 551.384765625 l 25
EndSplineSet
Fore
SplineSet
315 551 m 25
 394 551 l 25
 394 394 l 25
 315 394 l 25
 315 551 l 25
158 551 m 25
 236 551 l 25
 236 394 l 25
 158 394 l 25
 158 551 l 25
EndSplineSet
EndChar

StartChar: numbersign
Encoding: 35 35 3
Width: 469
VWidth: 0
Flags: W
HStem: 158 79<79 158 236 315 394 473> 315 79<79 158 236 315 394 473> 457 16G<158 236 315 394>
VStem: 158 79<79 158 236 315 394 473> 315 79<79 158 236 315 394 473>
LayerCount: 2
Back
SplineSet
236.307617188 315.077148438 m 29
 236.307617188 236.307617188 l 25
 315.077148438 236.307617188 l 25
 315.077148438 315.077148438 l 25
 236.307617188 315.077148438 l 29
78.76953125 393.845703125 m 25
 157.538085938 393.845703125 l 25
 157.538085938 472.615234375 l 25
 236.307617188 472.615234375 l 25
 236.307617188 393.845703125 l 25
 315.077148438 393.845703125 l 25
 315.077148438 472.615234375 l 25
 393.845703125 472.615234375 l 25
 393.845703125 393.845703125 l 25
 472.615234375 393.845703125 l 25
 472.615234375 315.077148438 l 25
 393.845703125 315.077148438 l 25
 393.845703125 236.307617188 l 25
 472.615234375 236.307617188 l 25
 472.615234375 157.538085938 l 25
 393.845703125 157.538085938 l 25
 393.845703125 78.76953125 l 25
 315.077148438 78.76953125 l 25
 315.077148438 157.538085938 l 25
 236.307617188 157.538085938 l 25
 236.307617188 78.76953125 l 25
 157.538085938 78.76953125 l 25
 157.538085938 157.538085938 l 25
 78.76953125 157.538085938 l 25
 78.76953125 236.307617188 l 25
 157.538085938 236.307617188 l 25
 157.538085938 315.077148438 l 25
 78.76953125 315.077148438 l 25
 78.76953125 393.845703125 l 25
EndSplineSet
Fore
SplineSet
236 315 m 25
 236 236 l 25
 315 236 l 25
 315 315 l 25
 236 315 l 25
79 394 m 25
 158 394 l 25
 158 473 l 25
 236 473 l 25
 236 394 l 25
 315 394 l 25
 315 473 l 25
 394 473 l 25
 394 394 l 25
 473 394 l 25
 473 315 l 25
 394 315 l 25
 394 236 l 25
 473 236 l 25
 473 158 l 25
 394 158 l 25
 394 79 l 25
 315 79 l 25
 315 158 l 25
 236 158 l 25
 236 79 l 25
 158 79 l 25
 158 158 l 25
 79 158 l 25
 79 236 l 25
 158 236 l 25
 158 315 l 25
 79 315 l 25
 79 394 l 25
EndSplineSet
EndChar

StartChar: dollar
Encoding: 36 36 4
Width: 469
VWidth: 0
Flags: W
HStem: -79 16G<236 315> 0 79<79 236 315 394> 79 79<394 473> 158 79<158 394> 236 79<79 158> 315 79<158 236 315 473> 457 16G<236 315>
VStem: 79 79<236 315> 236 79<-79 0 394 473> 394 79<79 158>
CounterMasks: 1 01c0
LayerCount: 2
Back
SplineSet
78.76953125 78.76953125 m 29
 393.845703125 78.76953125 l 25
 393.845703125 0 l 25
 315.077148438 0 l 25
 315.077148438 -78.76953125 l 25
 236.307617188 -78.76953125 l 25
 236.307617188 0 l 25
 78.76953125 0 l 25
 78.76953125 78.76953125 l 29
393.845703125 157.538085938 m 25
 472.615234375 157.538085938 l 25
 472.615234375 78.76953125 l 25
 393.845703125 78.76953125 l 25
 393.845703125 157.538085938 l 25
157.538085938 236.307617188 m 25
 393.845703125 236.307617188 l 25
 393.845703125 157.538085938 l 25
 157.538085938 157.538085938 l 25
 157.538085938 236.307617188 l 25
78.76953125 315.077148438 m 25
 157.538085938 315.077148438 l 25
 157.538085938 236.307617188 l 25
 78.76953125 236.307617188 l 25
 78.76953125 315.077148438 l 25
157.538085938 393.845703125 m 25
 236.307617188 393.845703125 l 25
 236.307617188 472.615234375 l 25
 315.077148438 472.615234375 l 25
 315.077148438 393.845703125 l 25
 472.615234375 393.845703125 l 25
 472.615234375 315.077148438 l 25
 157.538085938 315.077148438 l 25
 157.538085938 393.845703125 l 25
EndSplineSet
Fore
SplineSet
79 79 m 25xc3c0
 394 79 l 25
 394 0 l 25
 315 0 l 25
 315 -79 l 25
 236 -79 l 25
 236 0 l 25
 79 0 l 25
 79 79 l 25xc3c0
394 158 m 25xa3c0
 473 158 l 25
 473 79 l 25xa3c0
 394 79 l 25xc3c0
 394 158 l 25xa3c0
158 236 m 25x93c0
 394 236 l 25x93c0
 394 158 l 25xa3c0
 158 158 l 25
 158 236 l 25x93c0
79 315 m 25x8bc0
 158 315 l 25x8bc0
 158 236 l 25x93c0
 79 236 l 25
 79 315 l 25x8bc0
158 394 m 25x87c0
 236 394 l 25
 236 473 l 25
 315 473 l 25
 315 394 l 25
 473 394 l 25
 473 315 l 25x87c0
 158 315 l 25x8bc0
 158 394 l 25x87c0
EndSplineSet
EndChar

StartChar: percent
Encoding: 37 37 5
Width: 469
VWidth: 0
Flags: W
HStem: 79 79<79 158 315 394> 158 79<158 236> 236 79<236 315> 315 79<79 158 315 394>
VStem: 79 79<79 158 315 394> 158 79<158 236> 236 79<236 315> 315 79<79 158 315 394>
LayerCount: 2
Back
SplineSet
315.077148438 157.538085938 m 29
 393.845703125 157.538085938 l 25
 393.845703125 78.76953125 l 25
 315.077148438 78.76953125 l 25
 315.077148438 157.538085938 l 29
78.76953125 157.538085938 m 25
 157.538085938 157.538085938 l 25
 157.538085938 236.307617188 l 25
 236.307617188 236.307617188 l 25
 236.307617188 315.077148438 l 25
 315.077148438 315.077148438 l 25
 315.077148438 393.845703125 l 25
 393.845703125 393.845703125 l 25
 393.845703125 315.077148438 l 25
 315.077148438 315.077148438 l 25
 315.077148438 236.307617188 l 25
 236.307617188 236.307617188 l 25
 236.307617188 157.538085938 l 25
 157.538085938 157.538085938 l 25
 157.538085938 78.76953125 l 25
 78.76953125 78.76953125 l 25
 78.76953125 157.538085938 l 25
78.76953125 393.845703125 m 25
 157.538085938 393.845703125 l 25
 157.538085938 315.077148438 l 25
 78.76953125 315.077148438 l 25
 78.76953125 393.845703125 l 25
EndSplineSet
Fore
SplineSet
315 158 m 25x81
 394 158 l 25
 394 79 l 25
 315 79 l 25
 315 158 l 25x81
79 158 m 25x88
 158 158 l 25x88
 158 236 l 25
 236 236 l 25x44
 236 315 l 25
 315 315 l 25x22
 315 394 l 25
 394 394 l 25
 394 315 l 25x11
 315 315 l 25
 315 236 l 25x22
 236 236 l 25
 236 158 l 25x44
 158 158 l 25
 158 79 l 25
 79 79 l 25
 79 158 l 25x88
79 394 m 25x18
 158 394 l 25
 158 315 l 25
 79 315 l 25
 79 394 l 25x18
EndSplineSet
EndChar

StartChar: ampersand
Encoding: 38 38 6
Width: 469
VWidth: 0
Flags: W
HStem: 0 79<158 315 394 473> 79 158<79 158 315 394> 236 79<236 315 394 473> 473 79<236 394>
VStem: 79 79<79 236> 158 158<0 79 236 315> 158 79<315 473> 315 79<79 236> 394 79<0 79 236 315>
LayerCount: 2
Back
SplineSet
157.538085938 236.307617188 m 29
 157.538085938 78.76953125 l 25
 315.077148438 78.76953125 l 25
 315.077148438 236.307617188 l 25
 157.538085938 236.307617188 l 29
78.76953125 236.307617188 m 25
 157.538085938 236.307617188 l 25
 157.538085938 472.615234375 l 25
 236.307617188 472.615234375 l 25
 236.307617188 551.384765625 l 25
 393.845703125 551.384765625 l 25
 393.845703125 472.615234375 l 25
 236.307617188 472.615234375 l 25
 236.307617188 315.077148438 l 25
 315.077148438 315.077148438 l 25
 315.077148438 236.307617188 l 25
 393.845703125 236.307617188 l 25
 393.845703125 315.077148438 l 25
 472.615234375 315.077148438 l 25
 472.615234375 236.307617188 l 25
 393.845703125 236.307617188 l 25
 393.845703125 78.76953125 l 25
 472.615234375 78.76953125 l 25
 472.615234375 0 l 25
 393.845703125 0 l 25
 393.845703125 78.76953125 l 25
 315.077148438 78.76953125 l 25
 315.077148438 0 l 25
 157.538085938 0 l 25
 157.538085938 78.76953125 l 25
 78.76953125 78.76953125 l 25
 78.76953125 236.307617188 l 25
EndSplineSet
Fore
SplineSet
158 236 m 25x58
 158 79 l 25x98
 315 79 l 25x94
 315 236 l 25x54
 158 236 l 25x58
79 236 m 25x58
 158 236 l 25x58
 158 473 l 25
 236 473 l 25
 236 551 l 25
 394 551 l 25
 394 473 l 25
 236 473 l 25
 236 315 l 25x3280
 315 315 l 25x34
 315 236 l 25x54
 394 236 l 25x51
 394 315 l 25
 473 315 l 25
 473 236 l 25x3080
 394 236 l 25x51
 394 79 l 25x91
 473 79 l 25
 473 0 l 25
 394 0 l 25x9080
 394 79 l 25x91
 315 79 l 25
 315 0 l 25
 158 0 l 25x94
 158 79 l 25x98
 79 79 l 25
 79 236 l 25x58
EndSplineSet
EndChar

StartChar: quotesingle
Encoding: 39 39 7
Width: 469
VWidth: 0
Flags: W
HStem: 394 158<158 236>
VStem: 158 79<394 551>
LayerCount: 2
Back
SplineSet
157.538085938 551.384765625 m 29
 236.307617188 551.384765625 l 25
 236.307617188 393.845703125 l 25
 157.538085938 393.845703125 l 25
 157.538085938 551.384765625 l 29
EndSplineSet
Fore
SplineSet
158 551 m 25
 236 551 l 25
 236 394 l 25
 158 394 l 25
 158 551 l 25
EndSplineSet
EndChar

StartChar: parenleft
Encoding: 40 40 8
Width: 469
VWidth: 0
Flags: W
HStem: -79 79<236 315> 473 79<236 315>
VStem: 158 79<0 473> 236 79<-79 0 473 551>
LayerCount: 2
Back
SplineSet
157.538085938 472.615234375 m 29
 236.307617188 472.615234375 l 25
 236.307617188 551.384765625 l 25
 315.077148438 551.384765625 l 25
 315.077148438 472.615234375 l 25
 236.307617188 472.615234375 l 25
 236.307617188 0 l 25
 315.077148438 0 l 25
 315.077148438 -78.76953125 l 25
 236.307617188 -78.76953125 l 25
 236.307617188 0 l 25
 157.538085938 0 l 25
 157.538085938 472.615234375 l 29
EndSplineSet
Fore
SplineSet
158 473 m 25xe0
 236 473 l 25xe0
 236 551 l 25
 315 551 l 25
 315 473 l 25xd0
 236 473 l 25
 236 0 l 25xe0
 315 0 l 25
 315 -79 l 25
 236 -79 l 25xd0
 236 0 l 25
 158 0 l 25
 158 473 l 25xe0
EndSplineSet
EndChar

StartChar: parenright
Encoding: 41 41 9
Width: 469
VWidth: 0
Flags: W
HStem: -79 79<158 236> 473 79<158 236>
VStem: 158 79<-79 0 473 551> 236 79<0 473>
LayerCount: 2
Back
SplineSet
157.538085938 551.384765625 m 29
 236.307617188 551.384765625 l 25
 236.307617188 472.615234375 l 25
 315.077148438 472.615234375 l 25
 315.077148438 0 l 25
 236.307617188 0 l 25
 236.307617188 -78.76953125 l 25
 157.538085938 -78.76953125 l 25
 157.538085938 0 l 25
 236.307617188 0 l 25
 236.307617188 472.615234375 l 25
 157.538085938 472.615234375 l 25
 157.538085938 551.384765625 l 29
EndSplineSet
Fore
SplineSet
158 551 m 25xe0
 236 551 l 25
 236 473 l 25xe0
 315 473 l 25
 315 0 l 25xd0
 236 0 l 25
 236 -79 l 25
 158 -79 l 25
 158 0 l 25
 236 0 l 25
 236 473 l 25
 158 473 l 25
 158 551 l 25xe0
EndSplineSet
EndChar

StartChar: asterisk
Encoding: 42 42 10
Width: 469
VWidth: 0
Flags: W
HStem: 0 16G<236 315> 79 79<79 158 394 473> 158 79<158 236 315 394> 236 79<79 158 394 473> 378 16G<236 315>
VStem: 79 79<79 158 236 315> 236 79<0 158 236 394> 394 79<79 158 236 315>
CounterMasks: 1 07
LayerCount: 2
Back
SplineSet
78.76953125 315.077148438 m 29
 157.538085938 315.077148438 l 25
 157.538085938 236.307617188 l 25
 236.307617188 236.307617188 l 25
 236.307617188 393.845703125 l 25
 315.077148438 393.845703125 l 25
 315.077148438 236.307617188 l 25
 393.845703125 236.307617188 l 25
 393.845703125 315.077148438 l 25
 472.615234375 315.077148438 l 25
 472.615234375 236.307617188 l 25
 393.845703125 236.307617188 l 25
 393.845703125 157.538085938 l 25
 472.615234375 157.538085938 l 25
 472.615234375 78.76953125 l 25
 393.845703125 78.76953125 l 25
 393.845703125 157.538085938 l 25
 315.077148438 157.538085938 l 25
 315.077148438 0 l 25
 236.307617188 0 l 25
 236.307617188 157.538085938 l 25
 157.538085938 157.538085938 l 25
 157.538085938 78.76953125 l 25
 78.76953125 78.76953125 l 25
 78.76953125 157.538085938 l 25
 157.538085938 157.538085938 l 25
 157.538085938 236.307617188 l 25
 78.76953125 236.307617188 l 25
 78.76953125 315.077148438 l 29
EndSplineSet
Fore
SplineSet
79 315 m 25x9f
 158 315 l 25x9f
 158 236 l 25
 236 236 l 25
 236 394 l 25
 315 394 l 25
 315 236 l 25
 394 236 l 25xaf
 394 315 l 25
 473 315 l 25
 473 236 l 25x9f
 394 236 l 25xaf
 394 158 l 25
 473 158 l 25
 473 79 l 25
 394 79 l 25
 394 158 l 25xcf
 315 158 l 25
 315 0 l 25
 236 0 l 25
 236 158 l 25xaf
 158 158 l 25
 158 79 l 25
 79 79 l 25
 79 158 l 25
 158 158 l 25xcf
 158 236 l 25xaf
 79 236 l 25
 79 315 l 25x9f
EndSplineSet
EndChar

StartChar: plus
Encoding: 43 43 11
Width: 469
VWidth: 0
Flags: W
HStem: 0 16G<236 315> 158 79<79 236 315 473> 378 16G<236 315>
VStem: 236 79<0 158 236 394>
LayerCount: 2
Back
SplineSet
78.76953125 236.307617188 m 29
 236.307617188 236.307617188 l 25
 236.307617188 393.845703125 l 25
 315.077148438 393.845703125 l 25
 315.077148438 236.307617188 l 25
 472.615234375 236.307617188 l 25
 472.615234375 157.538085938 l 25
 315.077148438 157.538085938 l 25
 315.077148438 0 l 25
 236.307617188 0 l 25
 236.307617188 157.538085938 l 25
 78.76953125 157.538085938 l 25
 78.76953125 236.307617188 l 29
EndSplineSet
Fore
SplineSet
79 236 m 25
 236 236 l 25
 236 394 l 25
 315 394 l 25
 315 236 l 25
 473 236 l 25
 473 158 l 25
 315 158 l 25
 315 0 l 25
 236 0 l 25
 236 158 l 25
 79 158 l 25
 79 236 l 25
EndSplineSet
EndChar

StartChar: comma
Encoding: 44 44 12
Width: 469
VWidth: 0
Flags: W
HStem: -79 79<158 236>
VStem: 158 79<-79 0> 236 79<0 158>
LayerCount: 2
Back
SplineSet
157.538085938 0 m 29
 236.307617188 0 l 25
 236.307617188 157.538085938 l 25
 315.077148438 157.538085938 l 25
 315.077148438 0 l 25
 236.307617188 0 l 25
 236.307617188 -78.76953125 l 25
 157.538085938 -78.76953125 l 25
 157.538085938 0 l 29
EndSplineSet
Fore
SplineSet
158 0 m 25xc0
 236 0 l 25xc0
 236 158 l 25
 315 158 l 25
 315 0 l 25xa0
 236 0 l 25
 236 -79 l 25
 158 -79 l 25
 158 0 l 25xc0
EndSplineSet
EndChar

StartChar: hyphen
Encoding: 45 45 13
Width: 469
VWidth: 0
Flags: W
HStem: 158 79<79 473>
LayerCount: 2
Back
SplineSet
78.76953125 236.307617188 m 29
 472.615234375 236.307617188 l 25
 472.615234375 157.538085938 l 25
 78.76953125 157.538085938 l 25
 78.76953125 236.307617188 l 29
EndSplineSet
Fore
SplineSet
79 236 m 25
 473 236 l 25
 473 158 l 25
 79 158 l 25
 79 236 l 25
EndSplineSet
EndChar

StartChar: period
Encoding: 46 46 14
Width: 469
VWidth: 0
Flags: W
HStem: 0 158<158 315>
VStem: 158 158<0 158>
LayerCount: 2
Back
SplineSet
157.538085938 157.538085938 m 29
 315.077148438 157.538085938 l 25
 315.077148438 0 l 25
 157.538085938 0 l 25
 157.538085938 157.538085938 l 29
EndSplineSet
Fore
SplineSet
158 158 m 25
 315 158 l 25
 315 0 l 25
 158 0 l 25
 158 158 l 25
EndSplineSet
EndChar

StartChar: slash
Encoding: 47 47 15
Width: 469
VWidth: 0
Flags: W
HStem: -79 16G<79 158> 536 16G<315 394>
VStem: 79 79<-79 79> 158 79<79 236> 236 79<236 394> 315 79<394 551>
LayerCount: 2
Back
SplineSet
78.76953125 78.76953125 m 29
 157.538085938 78.76953125 l 25
 157.538085938 236.307617188 l 25
 236.307617188 236.307617188 l 25
 236.307617188 393.845703125 l 25
 315.077148438 393.845703125 l 25
 315.077148438 551.384765625 l 25
 393.845703125 551.384765625 l 25
 393.845703125 393.845703125 l 25
 315.077148438 393.845703125 l 25
 315.077148438 236.307617188 l 25
 236.307617188 236.307617188 l 25
 236.307617188 78.76953125 l 25
 157.538085938 78.76953125 l 25
 157.538085938 -78.76953125 l 25
 78.76953125 -78.76953125 l 25
 78.76953125 78.76953125 l 29
EndSplineSet
Fore
SplineSet
79 79 m 25xe0
 158 79 l 25xe0
 158 236 l 25
 236 236 l 25xd0
 236 394 l 25
 315 394 l 25xc8
 315 551 l 25
 394 551 l 25
 394 394 l 25xc4
 315 394 l 25
 315 236 l 25xc8
 236 236 l 25
 236 79 l 25xd0
 158 79 l 25
 158 -79 l 25
 79 -79 l 25
 79 79 l 25xe0
EndSplineSet
EndChar

StartChar: zero
Encoding: 48 48 16
Width: 469
VWidth: 0
Flags: W
HStem: 0 79<158 315> 158 79<158 236> 236 79<236 315> 394 79<158 315>
VStem: 79 79<79 158 236 394> 158 158<0 79 394 473> 315 79<79 236 315 394>
LayerCount: 2
Back
SplineSet
236.307617188 236.307617188 m 29
 236.307617188 157.538085938 l 25
 157.538085938 157.538085938 l 25
 157.538085938 78.76953125 l 25
 315.077148438 78.76953125 l 25
 315.077148438 236.307617188 l 25
 236.307617188 236.307617188 l 29
157.538085938 393.845703125 m 25
 157.538085938 236.307617188 l 25
 236.307617188 236.307617188 l 25
 236.307617188 315.077148438 l 25
 315.077148438 315.077148438 l 25
 315.077148438 393.845703125 l 25
 157.538085938 393.845703125 l 25
78.76953125 393.845703125 m 25
 157.538085938 393.845703125 l 25
 157.538085938 472.615234375 l 25
 315.077148438 472.615234375 l 25
 315.077148438 393.845703125 l 25
 393.845703125 393.845703125 l 25
 393.845703125 78.76953125 l 25
 315.077148438 78.76953125 l 25
 315.077148438 0 l 25
 157.538085938 0 l 25
 157.538085938 78.76953125 l 25
 78.76953125 78.76953125 l 25
 78.76953125 393.845703125 l 25
EndSplineSet
Fore
SplineSet
236 236 m 25xd2
 236 158 l 25
 158 158 l 25
 158 79 l 25xda
 315 79 l 25xd4
 315 236 l 25xb2
 236 236 l 25xd2
158 394 m 25
 158 236 l 25
 236 236 l 25xd8
 236 315 l 25
 315 315 l 25xba
 315 394 l 25xb4
 158 394 l 25
79 394 m 25
 158 394 l 25x98
 158 473 l 25
 315 473 l 25
 315 394 l 25x94
 394 394 l 25
 394 79 l 25x92
 315 79 l 25
 315 0 l 25
 158 0 l 25x94
 158 79 l 25
 79 79 l 25
 79 394 l 25
EndSplineSet
EndChar

StartChar: one
Encoding: 49 49 17
Width: 469
VWidth: 0
Flags: W
HStem: 0 16G<236 315> 315 79<158 236> 457 16G<236 315>
VStem: 236 79<0 315 394 473>
LayerCount: 2
Back
SplineSet
157.538085938 393.845703125 m 29
 236.307617188 393.845703125 l 25
 236.307617188 472.615234375 l 25
 315.077148438 472.615234375 l 25
 315.077148438 0 l 25
 236.307617188 0 l 25
 236.307617188 315.077148438 l 25
 157.538085938 315.077148438 l 25
 157.538085938 393.845703125 l 29
EndSplineSet
Fore
SplineSet
158 394 m 25
 236 394 l 25
 236 473 l 25
 315 473 l 25
 315 0 l 25
 236 0 l 25
 236 315 l 25
 158 315 l 25
 158 394 l 25
EndSplineSet
EndChar

StartChar: two
Encoding: 50 50 18
Width: 469
VWidth: 0
Flags: W
HStem: 0 79<79 158 236 394> 158 79<236 315> 315 79<79 158> 394 79<158 315>
VStem: 79 79<315 394> 158 79<79 158> 236 79<158 236> 315 79<236 394>
LayerCount: 2
Back
SplineSet
78.76953125 315.077148438 m 29
 78.76953125 393.845703125 l 25
 157.538085938 393.845703125 l 25
 157.538085938 472.615234375 l 25
 315.077148438 472.615234375 l 25
 315.077148438 393.845703125 l 25
 393.845703125 393.845703125 l 25
 393.845703125 236.307617188 l 25
 315.077148438 236.307617188 l 25
 315.077148438 157.538085938 l 25
 236.307617188 157.538085938 l 25
 236.307617188 78.76953125 l 25
 393.845703125 78.76953125 l 25
 393.845703125 0 l 25
 78.76953125 0 l 25
 78.76953125 78.76953125 l 25
 157.538085938 78.76953125 l 25
 157.538085938 157.538085938 l 25
 236.307617188 157.538085938 l 25
 236.307617188 236.307617188 l 25
 315.077148438 236.307617188 l 25
 315.077148438 315.077148438 l 25
 315.077148438 393.845703125 l 25
 157.538085938 393.845703125 l 25
 157.538085938 315.077148438 l 25
 78.76953125 315.077148438 l 29
EndSplineSet
Fore
SplineSet
79 315 m 25xe9
 79 394 l 25
 158 394 l 25xe9
 158 473 l 25
 315 473 l 25
 315 394 l 25
 394 394 l 25
 394 236 l 25xd5
 315 236 l 25
 315 158 l 25xd2
 236 158 l 25
 236 79 l 25xd4
 394 79 l 25
 394 0 l 25
 79 0 l 25
 79 79 l 25xd9
 158 79 l 25
 158 158 l 25
 236 158 l 25xd4
 236 236 l 25
 315 236 l 25xd2
 315 315 l 25xe1
 315 394 l 25xd1
 158 394 l 25
 158 315 l 25
 79 315 l 25xe9
EndSplineSet
EndChar

StartChar: three
Encoding: 51 51 19
Width: 469
VWidth: 0
Flags: W
HStem: 0 79<79 315> 236 79<158 315> 394 79<79 315>
VStem: 315 79<79 236 315 394>
LayerCount: 2
Back
SplineSet
78.76953125 472.615234375 m 29
 393.845703125 472.615234375 l 25
 393.845703125 315.077148438 l 25
 315.077148438 315.077148438 l 25
 315.077148438 236.307617188 l 25
 393.845703125 236.307617188 l 25
 393.845703125 78.76953125 l 25
 315.077148438 78.76953125 l 25
 315.077148438 0 l 25
 78.76953125 0 l 25
 78.76953125 78.76953125 l 25
 315.077148438 78.76953125 l 25
 315.077148438 236.307617188 l 25
 157.538085938 236.307617188 l 25
 157.538085938 315.077148438 l 25
 315.077148438 315.077148438 l 25
 315.077148438 393.845703125 l 25
 78.76953125 393.845703125 l 25
 78.76953125 472.615234375 l 29
EndSplineSet
Fore
SplineSet
79 473 m 25
 394 473 l 25
 394 315 l 25
 315 315 l 25
 315 236 l 25
 394 236 l 25
 394 79 l 25
 315 79 l 25
 315 0 l 25
 79 0 l 25
 79 79 l 25
 315 79 l 25
 315 236 l 25
 158 236 l 25
 158 315 l 25
 315 315 l 25
 315 394 l 25
 79 394 l 25
 79 473 l 25
EndSplineSet
EndChar

StartChar: four
Encoding: 52 52 20
Width: 469
VWidth: 0
Flags: W
HStem: 0 16G<315 394> 79 79<158 315> 236 79<158 236> 315 79<236 315> 457 16G<315 394>
VStem: 79 79<158 236> 158 79<236 315> 315 79<0 79 158 315 394 473>
LayerCount: 2
Back
SplineSet
157.538085938 236.307617188 m 29
 157.538085938 157.538085938 l 25
 315.077148438 157.538085938 l 25
 315.077148438 315.077148438 l 25
 236.307617188 315.077148438 l 25
 236.307617188 236.307617188 l 25
 157.538085938 236.307617188 l 29
78.76953125 236.307617188 m 25
 157.538085938 236.307617188 l 25
 157.538085938 315.077148438 l 25
 236.307617188 315.077148438 l 25
 236.307617188 393.845703125 l 25
 315.077148438 393.845703125 l 25
 315.077148438 472.615234375 l 25
 393.845703125 472.615234375 l 25
 393.845703125 0 l 25
 315.077148438 0 l 25
 315.077148438 78.76953125 l 25
 78.76953125 78.76953125 l 25
 78.76953125 236.307617188 l 25
EndSplineSet
Fore
SplineSet
158 236 m 25xed
 158 158 l 25
 315 158 l 25
 315 315 l 25xdd
 236 315 l 25
 236 236 l 25xeb
 158 236 l 25xed
79 236 m 25xed
 158 236 l 25xed
 158 315 l 25
 236 315 l 25xeb
 236 394 l 25
 315 394 l 25xdb
 315 473 l 25
 394 473 l 25
 394 0 l 25
 315 0 l 25
 315 79 l 25
 79 79 l 25
 79 236 l 25xed
EndSplineSet
EndChar

StartChar: five
Encoding: 53 53 21
Width: 469
VWidth: 0
Flags: W
HStem: 0 79<79 315> 236 79<158 315> 394 79<158 394>
VStem: 79 236<0 79 236 315> 79 79<315 394> 315 79<79 236>
LayerCount: 2
Back
SplineSet
78.76953125 472.615234375 m 29
 393.845703125 472.615234375 l 25
 393.845703125 393.845703125 l 25
 157.538085938 393.845703125 l 25
 157.538085938 315.077148438 l 25
 315.077148438 315.077148438 l 25
 315.077148438 236.307617188 l 25
 393.845703125 236.307617188 l 25
 393.845703125 78.76953125 l 25
 315.077148438 78.76953125 l 25
 315.077148438 0 l 25
 78.76953125 0 l 25
 78.76953125 78.76953125 l 25
 315.077148438 78.76953125 l 25
 315.077148438 236.307617188 l 25
 78.76953125 236.307617188 l 25
 78.76953125 472.615234375 l 29
EndSplineSet
Fore
SplineSet
79 473 m 25xe8
 394 473 l 25
 394 394 l 25
 158 394 l 25
 158 315 l 25xec
 315 315 l 25
 315 236 l 25xf0
 394 236 l 25
 394 79 l 25xe4
 315 79 l 25
 315 0 l 25
 79 0 l 25
 79 79 l 25
 315 79 l 25
 315 236 l 25
 79 236 l 25xf0
 79 473 l 25xe8
EndSplineSet
EndChar

StartChar: six
Encoding: 54 54 22
Width: 469
VWidth: 0
Flags: W
HStem: 0 79<158 315> 236 79<158 315> 394 79<158 315>
VStem: 79 79<79 236 315 394> 158 158<0 79 394 473> 315 79<79 236>
LayerCount: 2
Back
SplineSet
157.538085938 236.307617188 m 29
 157.538085938 78.76953125 l 25
 315.077148438 78.76953125 l 25
 315.077148438 236.307617188 l 25
 157.538085938 236.307617188 l 29
157.538085938 472.615234375 m 25
 315.077148438 472.615234375 l 25
 315.077148438 393.845703125 l 25
 157.538085938 393.845703125 l 25
 157.538085938 315.077148438 l 25
 315.077148438 315.077148438 l 25
 315.077148438 236.307617188 l 25
 393.845703125 236.307617188 l 25
 393.845703125 78.76953125 l 25
 315.077148438 78.76953125 l 25
 315.077148438 0 l 25
 157.538085938 0 l 25
 157.538085938 78.76953125 l 25
 78.76953125 78.76953125 l 25
 78.76953125 393.845703125 l 25
 157.538085938 393.845703125 l 25
 157.538085938 472.615234375 l 25
EndSplineSet
Fore
SplineSet
158 236 m 25xf4
 158 79 l 25xf4
 315 79 l 25xe8
 315 236 l 25
 158 236 l 25xf4
158 473 m 25xe8
 315 473 l 25
 315 394 l 25xe8
 158 394 l 25
 158 315 l 25
 315 315 l 25
 315 236 l 25
 394 236 l 25
 394 79 l 25xf4
 315 79 l 25
 315 0 l 25
 158 0 l 25xe8
 158 79 l 25
 79 79 l 25
 79 394 l 25
 158 394 l 25xf0
 158 473 l 25xe8
EndSplineSet
EndChar

StartChar: seven
Encoding: 55 55 23
Width: 469
VWidth: 0
Flags: W
HStem: 0 16G<158 236> 158 79<236 315> 394 79<79 315>
VStem: 158 79<0 158> 236 79<158 236> 315 79<236 394>
LayerCount: 2
Back
SplineSet
78.76953125 472.615234375 m 29
 393.845703125 472.615234375 l 25
 393.845703125 236.307617188 l 25
 315.077148438 236.307617188 l 25
 315.077148438 157.538085938 l 25
 236.307617188 157.538085938 l 25
 236.307617188 0 l 25
 157.538085938 0 l 25
 157.538085938 157.538085938 l 25
 236.307617188 157.538085938 l 25
 236.307617188 236.307617188 l 25
 315.077148438 236.307617188 l 25
 315.077148438 393.845703125 l 25
 78.76953125 393.845703125 l 25
 78.76953125 472.615234375 l 29
EndSplineSet
Fore
SplineSet
79 473 m 25xe4
 394 473 l 25
 394 236 l 25xe4
 315 236 l 25
 315 158 l 25xe8
 236 158 l 25
 236 0 l 25
 158 0 l 25
 158 158 l 25
 236 158 l 25xf0
 236 236 l 25
 315 236 l 25xe8
 315 394 l 25
 79 394 l 25
 79 473 l 25xe4
EndSplineSet
EndChar

StartChar: eight
Encoding: 56 56 24
Width: 469
VWidth: 0
Flags: W
HStem: 0 79<158 315> 79 158<79 158 315 394> 315 79<79 158 315 394> 394 79<158 315>
VStem: 79 79<79 236 315 394> 158 158<0 79 236 315 394 473> 315 79<79 236 315 394>
LayerCount: 2
Back
SplineSet
157.538085938 236.307617188 m 29
 157.538085938 78.76953125 l 25
 315.077148438 78.76953125 l 25
 315.077148438 236.307617188 l 25
 157.538085938 236.307617188 l 29
157.538085938 393.845703125 m 25
 157.538085938 315.077148438 l 25
 315.077148438 315.077148438 l 25
 315.077148438 393.845703125 l 25
 157.538085938 393.845703125 l 25
157.538085938 472.615234375 m 25
 315.077148438 472.615234375 l 25
 315.077148438 393.845703125 l 25
 393.845703125 393.845703125 l 25
 393.845703125 315.077148438 l 25
 315.077148438 315.077148438 l 25
 315.077148438 236.307617188 l 25
 393.845703125 236.307617188 l 25
 393.845703125 78.76953125 l 25
 315.077148438 78.76953125 l 25
 315.077148438 0 l 25
 157.538085938 0 l 25
 157.538085938 78.76953125 l 25
 78.76953125 78.76953125 l 25
 78.76953125 236.307617188 l 25
 157.538085938 236.307617188 l 25
 157.538085938 315.077148438 l 25
 78.76953125 315.077148438 l 25
 78.76953125 393.845703125 l 25
 157.538085938 393.845703125 l 25
 157.538085938 472.615234375 l 25
EndSplineSet
Fore
SplineSet
158 236 m 25x48
 158 79 l 25x88
 315 79 l 25x84
 315 236 l 25x44
 158 236 l 25x48
158 394 m 25x28
 158 315 l 25x28
 315 315 l 25
 315 394 l 25x24
 158 394 l 25x28
158 473 m 25x14
 315 473 l 25x14
 315 394 l 25x24
 394 394 l 25
 394 315 l 25x22
 315 315 l 25
 315 236 l 25x64
 394 236 l 25
 394 79 l 25x62
 315 79 l 25
 315 0 l 25
 158 0 l 25x84
 158 79 l 25x88
 79 79 l 25
 79 236 l 25
 158 236 l 25
 158 315 l 25
 79 315 l 25
 79 394 l 25
 158 394 l 25x68
 158 473 l 25x14
EndSplineSet
EndChar

StartChar: nine
Encoding: 57 57 25
Width: 469
VWidth: 0
Flags: W
HStem: 0 79<158 315> 158 79<158 315> 394 79<158 315>
VStem: 79 79<236 394> 158 158<0 79 394 473> 315 79<79 158 236 394>
LayerCount: 2
Back
SplineSet
157.538085938 393.845703125 m 29
 157.538085938 236.307617188 l 25
 315.077148438 236.307617188 l 25
 315.077148438 393.845703125 l 25
 157.538085938 393.845703125 l 29
157.538085938 472.615234375 m 25
 315.077148438 472.615234375 l 25
 315.077148438 393.845703125 l 25
 393.845703125 393.845703125 l 25
 393.845703125 78.76953125 l 25
 315.077148438 78.76953125 l 25
 315.077148438 0 l 25
 157.538085938 0 l 25
 157.538085938 78.76953125 l 25
 315.077148438 78.76953125 l 25
 315.077148438 157.538085938 l 25
 157.538085938 157.538085938 l 25
 157.538085938 236.307617188 l 25
 78.76953125 236.307617188 l 25
 78.76953125 393.845703125 l 25
 157.538085938 393.845703125 l 25
 157.538085938 472.615234375 l 25
EndSplineSet
Fore
SplineSet
158 394 m 25xf0
 158 236 l 25
 315 236 l 25xf4
 315 394 l 25xe8
 158 394 l 25xf0
158 473 m 25xe8
 315 473 l 25
 315 394 l 25xe8
 394 394 l 25
 394 79 l 25xe4
 315 79 l 25
 315 0 l 25
 158 0 l 25
 158 79 l 25
 315 79 l 25xe8
 315 158 l 25xe4
 158 158 l 25xe8
 158 236 l 25
 79 236 l 25
 79 394 l 25
 158 394 l 25xf0
 158 473 l 25xe8
EndSplineSet
EndChar

StartChar: colon
Encoding: 58 58 26
Width: 469
VWidth: 0
Flags: W
HStem: 79 79<158 236> 236 79<158 236>
VStem: 158 79<79 158 236 315>
LayerCount: 2
Back
SplineSet
157.538085938 157.538085938 m 29
 236.307617188 157.538085938 l 25
 236.307617188 78.76953125 l 25
 157.538085938 78.76953125 l 25
 157.538085938 157.538085938 l 29
157.538085938 315.077148438 m 25
 236.307617188 315.077148438 l 25
 236.307617188 236.307617188 l 25
 157.538085938 236.307617188 l 25
 157.538085938 315.077148438 l 25
EndSplineSet
Fore
SplineSet
158 158 m 25
 236 158 l 25
 236 79 l 25
 158 79 l 25
 158 158 l 25
158 315 m 25
 236 315 l 25
 236 236 l 25
 158 236 l 25
 158 315 l 25
EndSplineSet
EndChar

StartChar: semicolon
Encoding: 59 59 27
Width: 469
VWidth: 0
Flags: W
HStem: -79 79<158 236> 236 79<236 315>
VStem: 158 79<-79 0> 236 79<0 158 236 315>
LayerCount: 2
Back
SplineSet
236.307617188 157.538085938 m 29
 315.077148438 157.538085938 l 25
 315.077148438 0 l 25
 236.307617188 0 l 25
 236.307617188 -78.76953125 l 25
 157.538085938 -78.76953125 l 25
 157.538085938 0 l 25
 236.307617188 0 l 25
 236.307617188 157.538085938 l 29
236.307617188 315.077148438 m 25
 315.077148438 315.077148438 l 25
 315.077148438 236.307617188 l 25
 236.307617188 236.307617188 l 25
 236.307617188 315.077148438 l 25
EndSplineSet
Fore
SplineSet
236 158 m 25xd0
 315 158 l 25
 315 0 l 25xd0
 236 0 l 25
 236 -79 l 25
 158 -79 l 25
 158 0 l 25
 236 0 l 25xe0
 236 158 l 25xd0
236 315 m 25
 315 315 l 25
 315 236 l 25
 236 236 l 25
 236 315 l 25
EndSplineSet
EndChar

StartChar: less
Encoding: 60 60 28
Width: 469
VWidth: 0
Flags: W
HStem: 0 79<236 315> 79 79<158 236> 236 79<158 236> 315 79<236 315>
VStem: 79 79<158 236> 158 79<79 158 236 315> 236 79<0 79 315 394>
LayerCount: 2
Back
SplineSet
236.307617188 393.845703125 m 29
 315.077148438 393.845703125 l 25
 315.077148438 315.077148438 l 25
 236.307617188 315.077148438 l 25
 236.307617188 236.307617188 l 25
 157.538085938 236.307617188 l 25
 157.538085938 157.538085938 l 25
 236.307617188 157.538085938 l 25
 236.307617188 78.76953125 l 25
 315.077148438 78.76953125 l 25
 315.077148438 0 l 25
 236.307617188 0 l 25
 236.307617188 78.76953125 l 25
 157.538085938 78.76953125 l 25
 157.538085938 157.538085938 l 25
 78.76953125 157.538085938 l 25
 78.76953125 236.307617188 l 25
 157.538085938 236.307617188 l 25
 157.538085938 315.077148438 l 25
 236.307617188 315.077148438 l 25
 236.307617188 393.845703125 l 29
EndSplineSet
Fore
SplineSet
236 394 m 25x12
 315 394 l 25
 315 315 l 25x12
 236 315 l 25
 236 236 l 25x24
 158 236 l 25
 158 158 l 25x68
 236 158 l 25x64
 236 79 l 25x84
 315 79 l 25
 315 0 l 25
 236 0 l 25x82
 236 79 l 25x84
 158 79 l 25x44
 158 158 l 25
 79 158 l 25
 79 236 l 25
 158 236 l 25x68
 158 315 l 25
 236 315 l 25x64
 236 394 l 25x12
EndSplineSet
EndChar

StartChar: equal
Encoding: 61 61 29
Width: 469
VWidth: 0
Flags: W
HStem: 79 79<79 394> 236 79<79 394>
LayerCount: 2
Back
SplineSet
78.76953125 157.538085938 m 29
 393.845703125 157.538085938 l 25
 393.845703125 78.76953125 l 25
 78.76953125 78.76953125 l 25
 78.76953125 157.538085938 l 29
78.76953125 315.077148438 m 25
 393.845703125 315.077148438 l 25
 393.845703125 236.307617188 l 25
 78.76953125 236.307617188 l 25
 78.76953125 315.077148438 l 25
EndSplineSet
Fore
SplineSet
79 158 m 25
 394 158 l 25
 394 79 l 25
 79 79 l 25
 79 158 l 25
79 315 m 25
 394 315 l 25
 394 236 l 25
 79 236 l 25
 79 315 l 25
EndSplineSet
EndChar

StartChar: greater
Encoding: 62 62 30
Width: 469
VWidth: 0
Flags: W
HStem: 0 79<158 236> 79 79<236 315> 236 79<236 315> 315 79<158 236>
VStem: 158 79<0 79 315 394> 236 79<79 158 236 315> 315 79<158 236>
LayerCount: 2
Back
SplineSet
157.538085938 393.845703125 m 29
 236.307617188 393.845703125 l 25
 236.307617188 315.077148438 l 25
 315.077148438 315.077148438 l 25
 315.077148438 236.307617188 l 25
 393.845703125 236.307617188 l 25
 393.845703125 157.538085938 l 25
 315.077148438 157.538085938 l 25
 315.077148438 78.76953125 l 25
 236.307617188 78.76953125 l 25
 236.307617188 0 l 25
 157.538085938 0 l 25
 157.538085938 78.76953125 l 25
 236.307617188 78.76953125 l 25
 236.307617188 157.538085938 l 25
 315.077148438 157.538085938 l 25
 315.077148438 236.307617188 l 25
 236.307617188 236.307617188 l 25
 236.307617188 315.077148438 l 25
 157.538085938 315.077148438 l 25
 157.538085938 393.845703125 l 29
EndSplineSet
Fore
SplineSet
158 394 m 25x18
 236 394 l 25x18
 236 315 l 25x28
 315 315 l 25
 315 236 l 25x24
 394 236 l 25
 394 158 l 25x62
 315 158 l 25
 315 79 l 25x64
 236 79 l 25
 236 0 l 25
 158 0 l 25
 158 79 l 25
 236 79 l 25x88
 236 158 l 25
 315 158 l 25
 315 236 l 25
 236 236 l 25x64
 236 315 l 25x68
 158 315 l 25
 158 394 l 25x18
EndSplineSet
EndChar

StartChar: question
Encoding: 63 63 31
Width: 469
VWidth: 0
Flags: W
HStem: -79 79<158 236> 79 79<158 236> 158 79<236 315> 315 79<79 158> 394 79<158 315>
VStem: 79 79<315 394> 158 79<-79 0 79 158> 236 79<158 236> 315 79<236 394>
LayerCount: 2
Back
SplineSet
157.538085938 0 m 29
 236.307617188 0 l 25
 236.307617188 -78.76953125 l 25
 157.538085938 -78.76953125 l 25
 157.538085938 0 l 29
78.76953125 393.845703125 m 25
 157.538085938 393.845703125 l 25
 157.538085938 472.615234375 l 25
 315.077148438 472.615234375 l 25
 315.077148438 393.845703125 l 25
 393.845703125 393.845703125 l 25
 393.845703125 236.307617188 l 25
 315.077148438 236.307617188 l 25
 315.077148438 157.538085938 l 25
 236.307617188 157.538085938 l 25
 236.307617188 78.76953125 l 25
 157.538085938 78.76953125 l 25
 157.538085938 157.538085938 l 25
 236.307617188 157.538085938 l 25
 236.307617188 236.307617188 l 25
 315.077148438 236.307617188 l 25
 315.077148438 393.845703125 l 25
 157.538085938 393.845703125 l 25
 157.538085938 315.077148438 l 25
 78.76953125 315.077148438 l 25
 78.76953125 393.845703125 l 25
EndSplineSet
Fore
SplineSet
158 0 m 25x82
 236 0 l 25
 236 -79 l 25
 158 -79 l 25
 158 0 l 25x82
79 394 m 25x9480
 158 394 l 25x9480
 158 473 l 25
 315 473 l 25
 315 394 l 25
 394 394 l 25
 394 236 l 25xaa80
 315 236 l 25
 315 158 l 25xa9
 236 158 l 25
 236 79 l 25
 158 79 l 25
 158 158 l 25
 236 158 l 25xc2
 236 236 l 25
 315 236 l 25xa1
 315 394 l 25xa880
 158 394 l 25
 158 315 l 25
 79 315 l 25
 79 394 l 25x9480
EndSplineSet
EndChar

StartChar: at
Encoding: 64 64 32
Width: 469
VWidth: 0
Flags: W
HStem: -79 79<158 315> 79 79<236 315> 315 79<236 315> 473 79<158 315>
VStem: 79 158<158 315> 79 79<0 158 315 473> 158 158<-79 0 473 551> 236 158<79 158 315 394> 315 79<158 315 394 473>
LayerCount: 2
Back
SplineSet
157.538085938 472.615234375 m 29
 157.538085938 315.077148438 l 25
 236.307617188 315.077148438 l 25
 236.307617188 157.538085938 l 25
 315.077148438 157.538085938 l 25
 315.077148438 315.077148438 l 25
 236.307617188 315.077148438 l 25
 236.307617188 393.845703125 l 25
 315.077148438 393.845703125 l 25
 315.077148438 472.615234375 l 25
 157.538085938 472.615234375 l 29
78.76953125 472.615234375 m 25
 157.538085938 472.615234375 l 25
 157.538085938 551.384765625 l 25
 315.077148438 551.384765625 l 25
 315.077148438 472.615234375 l 25
 393.845703125 472.615234375 l 25
 393.845703125 78.76953125 l 25
 236.307617188 78.76953125 l 25
 236.307617188 157.538085938 l 25
 157.538085938 157.538085938 l 25
 157.538085938 0 l 25
 315.077148438 0 l 25
 315.077148438 -78.76953125 l 25
 157.538085938 -78.76953125 l 25
 157.538085938 0 l 25
 78.76953125 0 l 25
 78.76953125 472.615234375 l 25
EndSplineSet
Fore
SplineSet
158 473 m 25xf4
 158 315 l 25xf4
 236 315 l 25
 236 158 l 25
 315 158 l 25
 315 315 l 25
 236 315 l 25xf880
 236 394 l 25xf1
 315 394 l 25xf080
 315 473 l 25xf2
 158 473 l 25xf4
79 473 m 25
 158 473 l 25xf4
 158 551 l 25
 315 551 l 25
 315 473 l 25xf2
 394 473 l 25xf080
 394 79 l 25
 236 79 l 25xf1
 236 158 l 25xf8
 158 158 l 25
 158 0 l 25xf4
 315 0 l 25
 315 -79 l 25
 158 -79 l 25xf2
 158 0 l 25
 79 0 l 25
 79 473 l 25
EndSplineSet
EndChar

StartChar: A
Encoding: 65 65 33
Width: 469
VWidth: 0
Flags: W
HStem: 0 16G<79 158 315 394> 158 79<158 315> 394 79<158 315>
VStem: 79 79<0 158 236 394> 315 79<0 158 236 394>
LayerCount: 2
Back
SplineSet
157.538085938 393.845703125 m 29
 157.538085938 236.307617188 l 25
 315.077148438 236.307617188 l 25
 315.077148438 393.845703125 l 25
 157.538085938 393.845703125 l 29
78.76953125 393.845703125 m 25
 157.538085938 393.845703125 l 25
 157.538085938 472.615234375 l 25
 315.077148438 472.615234375 l 25
 315.077148438 393.845703125 l 25
 393.845703125 393.845703125 l 25
 393.845703125 0 l 25
 315.077148438 0 l 25
 315.077148438 157.538085938 l 25
 157.538085938 157.538085938 l 25
 157.538085938 0 l 25
 78.76953125 0 l 25
 78.76953125 393.845703125 l 25
EndSplineSet
Fore
SplineSet
158 394 m 25
 158 236 l 25
 315 236 l 25
 315 394 l 25
 158 394 l 25
79 394 m 25
 158 394 l 25
 158 473 l 25
 315 473 l 25
 315 394 l 25
 394 394 l 25
 394 0 l 25
 315 0 l 25
 315 158 l 25
 158 158 l 25
 158 0 l 25
 79 0 l 25
 79 394 l 25
EndSplineSet
EndChar

StartChar: B
Encoding: 66 66 34
Width: 469
VWidth: 0
Flags: W
HStem: 0 79<158 315> 394 79<158 315>
VStem: 79 236<0 79 236 315 394 473> 79 79<79 236 315 394> 315 79<79 236 315 394>
LayerCount: 2
Back
SplineSet
157.538085938 236.307617188 m 29
 157.538085938 78.76953125 l 25
 315.077148438 78.76953125 l 25
 315.077148438 236.307617188 l 25
 157.538085938 236.307617188 l 29
157.538085938 393.845703125 m 25
 157.538085938 315.077148438 l 25
 315.077148438 315.077148438 l 25
 315.077148438 393.845703125 l 25
 157.538085938 393.845703125 l 25
78.76953125 472.615234375 m 25
 315.077148438 472.615234375 l 25
 315.077148438 393.845703125 l 25
 393.845703125 393.845703125 l 25
 393.845703125 315.077148438 l 25
 315.077148438 315.077148438 l 25
 315.077148438 236.307617188 l 25
 393.845703125 236.307617188 l 25
 393.845703125 78.76953125 l 25
 315.077148438 78.76953125 l 25
 315.077148438 0 l 25
 78.76953125 0 l 25
 78.76953125 472.615234375 l 25
EndSplineSet
Fore
SplineSet
158 236 m 25xd0
 158 79 l 25xd0
 315 79 l 25
 315 236 l 25xe0
 158 236 l 25xd0
158 394 m 25
 158 315 l 25xd0
 315 315 l 25
 315 394 l 25xe0
 158 394 l 25
79 473 m 25xe0
 315 473 l 25
 315 394 l 25xe0
 394 394 l 25
 394 315 l 25xc8
 315 315 l 25
 315 236 l 25xe0
 394 236 l 25
 394 79 l 25xc8
 315 79 l 25
 315 0 l 25
 79 0 l 25
 79 473 l 25xe0
EndSplineSet
EndChar

StartChar: C
Encoding: 67 67 35
Width: 469
VWidth: 0
Flags: W
HStem: 0 79<158 394> 394 79<158 394>
VStem: 79 79<79 394> 158 236<0 79 394 473>
LayerCount: 2
Back
SplineSet
78.76953125 393.845703125 m 29
 157.538085938 393.845703125 l 25
 157.538085938 472.615234375 l 25
 393.845703125 472.615234375 l 25
 393.845703125 393.845703125 l 25
 157.538085938 393.845703125 l 25
 157.538085938 78.76953125 l 25
 393.845703125 78.76953125 l 25
 393.845703125 0 l 25
 157.538085938 0 l 25
 157.538085938 78.76953125 l 25
 78.76953125 78.76953125 l 25
 78.76953125 393.845703125 l 29
EndSplineSet
Fore
SplineSet
79 394 m 25xe0
 158 394 l 25xe0
 158 473 l 25
 394 473 l 25
 394 394 l 25xd0
 158 394 l 25
 158 79 l 25xe0
 394 79 l 25
 394 0 l 25
 158 0 l 25xd0
 158 79 l 25
 79 79 l 25
 79 394 l 25xe0
EndSplineSet
EndChar

StartChar: D
Encoding: 68 68 36
Width: 469
VWidth: 0
Flags: W
HStem: 0 79<158 315> 378 16G<315 394> 394 79<158 315>
VStem: 79 236<0 79 394 473> 79 79<79 394> 315 79<79 394>
LayerCount: 2
Back
SplineSet
78.76953125 472.615234375 m 29
 315.077148438 472.615234375 l 25
 315.077148438 393.845703125 l 25
 157.538085938 393.845703125 l 25
 157.538085938 78.76953125 l 25
 315.077148438 78.76953125 l 25
 315.077148438 393.845703125 l 25
 393.845703125 393.845703125 l 25
 393.845703125 78.76953125 l 25
 315.077148438 78.76953125 l 25
 315.077148438 0 l 25
 78.76953125 0 l 25
 78.76953125 472.615234375 l 29
EndSplineSet
Fore
SplineSet
79 473 m 25xb0
 315 473 l 25xb0
 315 394 l 25xd0
 158 394 l 25
 158 79 l 25xa8
 315 79 l 25
 315 394 l 25xd0
 394 394 l 25
 394 79 l 25xc4
 315 79 l 25
 315 0 l 25
 79 0 l 25
 79 473 l 25xb0
EndSplineSet
EndChar

StartChar: E
Encoding: 69 69 37
Width: 469
VWidth: 0
Flags: W
HStem: 0 79<158 394> 236 79<158 315> 394 79<158 394>
VStem: 79 79<79 236 315 394>
LayerCount: 2
Back
SplineSet
78.76953125 472.615234375 m 29
 393.845703125 472.615234375 l 25
 393.845703125 393.845703125 l 25
 157.538085938 393.845703125 l 25
 157.538085938 315.077148438 l 25
 315.077148438 315.077148438 l 25
 315.077148438 236.307617188 l 25
 157.538085938 236.307617188 l 25
 157.538085938 78.76953125 l 25
 393.845703125 78.76953125 l 25
 393.845703125 0 l 25
 78.76953125 0 l 25
 78.76953125 472.615234375 l 29
EndSplineSet
Fore
SplineSet
79 473 m 25
 394 473 l 25
 394 394 l 25
 158 394 l 25
 158 315 l 25
 315 315 l 25
 315 236 l 25
 158 236 l 25
 158 79 l 25
 394 79 l 25
 394 0 l 25
 79 0 l 25
 79 473 l 25
EndSplineSet
EndChar

StartChar: F
Encoding: 70 70 38
Width: 469
VWidth: 0
Flags: W
HStem: 0 16G<79 158> 236 79<158 315> 394 79<158 394>
VStem: 79 79<0 236 315 394>
LayerCount: 2
Back
SplineSet
78.76953125 472.615234375 m 29
 393.845703125 472.615234375 l 25
 393.845703125 393.845703125 l 25
 157.538085938 393.845703125 l 25
 157.538085938 315.077148438 l 25
 315.077148438 315.077148438 l 25
 315.077148438 236.307617188 l 25
 157.538085938 236.307617188 l 25
 157.538085938 0 l 25
 78.76953125 0 l 25
 78.76953125 472.615234375 l 29
EndSplineSet
Fore
SplineSet
79 473 m 25
 394 473 l 25
 394 394 l 25
 158 394 l 25
 158 315 l 25
 315 315 l 25
 315 236 l 25
 158 236 l 25
 158 0 l 25
 79 0 l 25
 79 473 l 25
EndSplineSet
EndChar

StartChar: G
Encoding: 71 71 39
Width: 469
VWidth: 0
Flags: W
HStem: 0 79<158 315> 394 79<158 394>
VStem: 79 79<79 394> 158 236<0 79 394 473> 315 79<79 236>
LayerCount: 2
Back
SplineSet
157.538085938 472.615234375 m 29
 393.845703125 472.615234375 l 25
 393.845703125 393.845703125 l 25
 157.538085938 393.845703125 l 25
 157.538085938 78.76953125 l 25
 315.077148438 78.76953125 l 25
 315.077148438 236.307617188 l 25
 393.845703125 236.307617188 l 25
 393.845703125 0 l 25
 157.538085938 0 l 25
 157.538085938 78.76953125 l 25
 78.76953125 78.76953125 l 25
 78.76953125 393.845703125 l 25
 157.538085938 393.845703125 l 25
 157.538085938 472.615234375 l 29
EndSplineSet
Fore
SplineSet
158 473 m 25xd0
 394 473 l 25
 394 394 l 25xd0
 158 394 l 25
 158 79 l 25
 315 79 l 25
 315 236 l 25
 394 236 l 25xe8
 394 0 l 25
 158 0 l 25xd0
 158 79 l 25
 79 79 l 25
 79 394 l 25
 158 394 l 25xe0
 158 473 l 25xd0
EndSplineSet
EndChar

StartChar: H
Encoding: 72 72 40
Width: 469
VWidth: 0
Flags: W
HStem: 0 16G<79 158 315 394> 158 79<158 315> 457 16G<79 158 315 394>
VStem: 79 79<0 158 236 473> 315 79<0 158 236 473>
LayerCount: 2
Back
SplineSet
78.76953125 472.615234375 m 29
 157.538085938 472.615234375 l 25
 157.538085938 236.307617188 l 25
 315.077148438 236.307617188 l 25
 315.077148438 472.615234375 l 25
 393.845703125 472.615234375 l 25
 393.845703125 0 l 25
 315.077148438 0 l 25
 315.077148438 157.538085938 l 25
 157.538085938 157.538085938 l 25
 157.538085938 0 l 25
 78.76953125 0 l 25
 78.76953125 472.615234375 l 29
EndSplineSet
Fore
SplineSet
79 473 m 25
 158 473 l 25
 158 236 l 25
 315 236 l 25
 315 473 l 25
 394 473 l 25
 394 0 l 25
 315 0 l 25
 315 158 l 25
 158 158 l 25
 158 0 l 25
 79 0 l 25
 79 473 l 25
EndSplineSet
EndChar

StartChar: I
Encoding: 73 73 41
Width: 469
VWidth: 0
Flags: W
HStem: -1103 1575G<236 315> -1103 1575G<236 315> 0 1654G<236 315>
VStem: 236 79<0 473>
LayerCount: 2
Back
SplineSet
236.307617188 472.615234375 m 29x88
 315.077148438 472.615234375 l 25x88
 315.077148438 0 l 25
 236.307617188 0 l 25x28
 236.307617188 472.615234375 l 29x88
EndSplineSet
Fore
SplineSet
236 473 m 25x90
 315 473 l 25x90
 315 0 l 25
 236 0 l 25x30
 236 473 l 25x90
EndSplineSet
EndChar

StartChar: J
Encoding: 74 74 42
Width: 469
VWidth: 0
Flags: W
HStem: 0 79<158 315> 457 16G<315 394>
VStem: 315 79<79 473>
LayerCount: 2
Back
SplineSet
315.077148438 472.615234375 m 29
 393.845703125 472.615234375 l 25
 393.845703125 78.76953125 l 25
 315.077148438 78.76953125 l 25
 315.077148438 0 l 25
 157.538085938 0 l 25
 157.538085938 78.76953125 l 25
 315.077148438 78.76953125 l 25
 315.077148438 472.615234375 l 29
EndSplineSet
Fore
SplineSet
315 473 m 25
 394 473 l 25
 394 79 l 25
 315 79 l 25
 315 0 l 25
 158 0 l 25
 158 79 l 25
 315 79 l 25
 315 473 l 25
EndSplineSet
EndChar

StartChar: K
Encoding: 75 75 43
Width: 469
VWidth: 0
Flags: W
HStem: 0 79<315 394> 79 79<236 315> 315 79<236 315> 394 79<315 394>
VStem: 79 158<158 315> 79 79<0 158 315 473> 236 79<79 158 315 394> 315 79<0 79 394 473>
LayerCount: 2
Back
SplineSet
78.76953125 472.615234375 m 29
 157.538085938 472.615234375 l 25
 157.538085938 315.077148438 l 25
 236.307617188 315.077148438 l 25
 236.307617188 393.845703125 l 25
 315.077148438 393.845703125 l 25
 315.077148438 472.615234375 l 25
 393.845703125 472.615234375 l 25
 393.845703125 393.845703125 l 25
 315.077148438 393.845703125 l 25
 315.077148438 315.077148438 l 25
 236.307617188 315.077148438 l 25
 236.307617188 157.538085938 l 25
 315.077148438 157.538085938 l 25
 315.077148438 78.76953125 l 25
 393.845703125 78.76953125 l 25
 393.845703125 0 l 25
 315.077148438 0 l 25
 315.077148438 78.76953125 l 25
 236.307617188 78.76953125 l 25
 236.307617188 157.538085938 l 25
 157.538085938 157.538085938 l 25
 157.538085938 0 l 25
 78.76953125 0 l 25
 78.76953125 472.615234375 l 29
EndSplineSet
Fore
SplineSet
79 473 m 25x94
 158 473 l 25x94
 158 315 l 25x24
 236 315 l 25x28
 236 394 l 25
 315 394 l 25x22
 315 473 l 25
 394 473 l 25
 394 394 l 25x11
 315 394 l 25
 315 315 l 25x22
 236 315 l 25
 236 158 l 25x68
 315 158 l 25x62
 315 79 l 25x82
 394 79 l 25
 394 0 l 25
 315 0 l 25x81
 315 79 l 25x82
 236 79 l 25x42
 236 158 l 25x48
 158 158 l 25x44
 158 0 l 25
 79 0 l 25
 79 473 l 25x94
EndSplineSet
EndChar

StartChar: L
Encoding: 76 76 44
Width: 469
VWidth: 0
Flags: W
HStem: 0 79<158 394> 457 16G<79 158>
VStem: 79 79<79 473>
LayerCount: 2
Back
SplineSet
78.76953125 472.615234375 m 29
 157.538085938 472.615234375 l 25
 157.538085938 78.76953125 l 25
 393.845703125 78.76953125 l 25
 393.845703125 0 l 25
 78.76953125 0 l 25
 78.76953125 472.615234375 l 29
EndSplineSet
Fore
SplineSet
79 473 m 25
 158 473 l 25
 158 79 l 25
 394 79 l 25
 394 0 l 25
 79 0 l 25
 79 473 l 25
EndSplineSet
EndChar

StartChar: M
Encoding: 77 77 45
Width: 469
VWidth: 0
Flags: W
HStem: 0 16G<79 158 394 473> 394 79<158 236 315 394>
VStem: 79 79<0 394> 236 79<236 394> 394 79<0 394>
CounterMasks: 1 38
LayerCount: 2
Back
SplineSet
78.76953125 472.615234375 m 29
 236.307617188 472.615234375 l 25
 236.307617188 393.845703125 l 25
 315.077148438 393.845703125 l 25
 315.077148438 472.615234375 l 25
 472.615234375 472.615234375 l 25
 472.615234375 0 l 25
 393.845703125 0 l 25
 393.845703125 393.845703125 l 25
 315.077148438 393.845703125 l 25
 315.077148438 236.307617188 l 25
 236.307617188 236.307617188 l 25
 236.307617188 393.845703125 l 25
 157.538085938 393.845703125 l 25
 157.538085938 0 l 25
 78.76953125 0 l 25
 78.76953125 472.615234375 l 29
EndSplineSet
Fore
SplineSet
79 473 m 25
 236 473 l 25
 236 394 l 25
 315 394 l 25
 315 473 l 25
 473 473 l 25
 473 0 l 25
 394 0 l 25
 394 394 l 25
 315 394 l 25
 315 236 l 25
 236 236 l 25
 236 394 l 25
 158 394 l 25
 158 0 l 25
 79 0 l 25
 79 473 l 25
EndSplineSet
EndChar

StartChar: N
Encoding: 78 78 46
Width: 469
VWidth: 0
Flags: W
HStem: 0 16G<79 158 315 394> 158 79<236 315> 236 79<158 236> 457 16G<79 158 315 394>
VStem: 79 79<0 236 315 473> 315 79<0 158 236 473>
LayerCount: 2
Back
SplineSet
78.76953125 472.615234375 m 29
 157.538085938 472.615234375 l 25
 157.538085938 315.077148438 l 25
 236.307617188 315.077148438 l 25
 236.307617188 236.307617188 l 25
 315.077148438 236.307617188 l 25
 315.077148438 472.615234375 l 25
 393.845703125 472.615234375 l 25
 393.845703125 0 l 25
 315.077148438 0 l 25
 315.077148438 157.538085938 l 25
 236.307617188 157.538085938 l 25
 236.307617188 236.307617188 l 25
 157.538085938 236.307617188 l 25
 157.538085938 0 l 25
 78.76953125 0 l 25
 78.76953125 472.615234375 l 29
EndSplineSet
Fore
SplineSet
79 473 m 25xbc
 158 473 l 25
 158 315 l 25
 236 315 l 25xbc
 236 236 l 25
 315 236 l 25
 315 473 l 25
 394 473 l 25
 394 0 l 25
 315 0 l 25
 315 158 l 25
 236 158 l 25
 236 236 l 25xdc
 158 236 l 25
 158 0 l 25
 79 0 l 25
 79 473 l 25xbc
EndSplineSet
EndChar

StartChar: O
Encoding: 79 79 47
Width: 469
VWidth: 0
Flags: W
HStem: -1182 1575G<315 394> -1182 1575G<315 394> 0 79<158 315> 394 79<158 315>
VStem: 79 79<79 394> 158 158<0 79 394 473>
LayerCount: 2
Back
SplineSet
157.538085938 472.615234375 m 29x0a
 315.077148438 472.615234375 l 25x0a
 315.077148438 393.845703125 l 25x82
 157.538085938 393.845703125 l 25
 157.538085938 78.76953125 l 25x0c
 315.077148438 78.76953125 l 25
 315.077148438 393.845703125 l 25
 393.845703125 393.845703125 l 25x82
 393.845703125 78.76953125 l 25
 315.077148438 78.76953125 l 25
 315.077148438 0 l 25
 157.538085938 0 l 25x22
 157.538085938 78.76953125 l 25
 78.76953125 78.76953125 l 25
 78.76953125 393.845703125 l 25
 157.538085938 393.845703125 l 25x0c
 157.538085938 472.615234375 l 29x0a
EndSplineSet
Fore
SplineSet
158 473 m 25x34
 315 473 l 25x34
 315 394 l 25x84
 158 394 l 25
 158 79 l 25x38
 315 79 l 25x34
 315 394 l 25
 394 394 l 25x84
 394 79 l 25
 315 79 l 25
 315 0 l 25
 158 0 l 25x24
 158 79 l 25
 79 79 l 25
 79 394 l 25
 158 394 l 25x38
 158 473 l 25x34
EndSplineSet
EndChar

StartChar: P
Encoding: 80 80 48
Width: 469
VWidth: 0
Flags: W
HStem: 0 16G<79 158> 158 79<158 315> 378 16G<315 394> 394 79<158 315>
VStem: 79 236<158 236 394 473> 79 79<0 158 236 394> 315 79<236 394>
LayerCount: 2
Back
SplineSet
78.76953125 472.615234375 m 29x06
 315.077148438 472.615234375 l 29x06
 315.077148438 393.845703125 l 29x82
 157.538085938 393.845703125 l 29
 157.538085938 236.307617188 l 29x0d
 315.077148438 236.307617188 l 29x0e
 315.077148438 393.845703125 l 29
 393.845703125 393.845703125 l 29x82
 393.845703125 236.307617188 l 29
 315.077148438 236.307617188 l 29
 315.077148438 157.538085938 l 29x0a
 157.538085938 157.538085938 l 29x09
 157.538085938 0 l 29
 78.76953125 0 l 29x21
 78.76953125 472.615234375 l 29x06
EndSplineSet
Fore
SplineSet
79 473 m 25xd8
 315 473 l 25xd8
 315 394 l 25xe8
 158 394 l 25
 158 236 l 25xd4
 315 236 l 25
 315 394 l 25xe8
 394 394 l 25
 394 236 l 25xe2
 315 236 l 25
 315 158 l 25xe8
 158 158 l 25
 158 0 l 25
 79 0 l 25xe4
 79 473 l 25xd8
EndSplineSet
EndChar

StartChar: Q
Encoding: 81 81 49
Width: 469
VWidth: 0
Flags: W
HStem: -79 79<315 394> 0 79<158 236> 378 16G<315 394> 394 79<158 315>
VStem: 79 79<79 394> 158 158<0 79 394 473> 315 79<79 394>
LayerCount: 2
Back
SplineSet
78.76953125 393.845703125 m 29
 157.538085938 393.845703125 l 25
 157.538085938 472.615234375 l 25
 315.077148438 472.615234375 l 25
 315.077148438 393.845703125 l 25
 157.538085938 393.845703125 l 25
 157.538085938 78.76953125 l 25
 315.077148438 78.76953125 l 25
 315.077148438 393.845703125 l 25
 393.845703125 393.845703125 l 25
 393.845703125 78.76953125 l 25
 315.077148438 78.76953125 l 25
 315.077148438 0 l 25
 393.845703125 0 l 25
 393.845703125 -78.76953125 l 25
 236.307617188 -78.76953125 l 25
 236.307617188 0 l 25
 157.538085938 0 l 25
 157.538085938 78.76953125 l 25
 78.76953125 78.76953125 l 25
 78.76953125 393.845703125 l 29
EndSplineSet
Fore
SplineSet
79 394 m 25x58
 158 394 l 25x58
 158 473 l 25
 315 473 l 25x54
 315 394 l 25x24
 158 394 l 25
 158 79 l 25x58
 315 79 l 25
 315 394 l 25x64
 394 394 l 25
 394 79 l 25x62
 315 79 l 25x64
 315 0 l 25x84
 394 0 l 25
 394 -79 l 25
 236 -79 l 25x82
 236 0 l 25
 158 0 l 25x44
 158 79 l 25
 79 79 l 25
 79 394 l 25x58
EndSplineSet
EndChar

StartChar: R
Encoding: 82 82 50
Width: 469
VWidth: 0
Flags: W
HStem: 0 79<315 394> 158 79<158 236> 378 16G<315 394> 394 79<158 315>
VStem: 79 79<0 158 236 394> 236 79<79 158> 315 79<0 79 236 394>
LayerCount: 2
Back
SplineSet
78.76953125 472.615234375 m 29
 315.077148438 472.615234375 l 25
 315.077148438 393.845703125 l 25
 157.538085938 393.845703125 l 25
 157.538085938 236.307617188 l 25
 315.077148438 236.307617188 l 25
 315.077148438 393.845703125 l 25
 393.845703125 393.845703125 l 25
 393.845703125 236.307617188 l 25
 315.077148438 236.307617188 l 25
 315.077148438 78.76953125 l 25
 393.845703125 78.76953125 l 25
 393.845703125 0 l 25
 315.077148438 0 l 25
 315.077148438 78.76953125 l 25
 236.307617188 78.76953125 l 25
 236.307617188 157.538085938 l 25
 157.538085938 157.538085938 l 25
 157.538085938 0 l 25
 78.76953125 0 l 25
 78.76953125 472.615234375 l 29
EndSplineSet
Fore
SplineSet
79 473 m 25xdc
 315 473 l 25xda
 315 394 l 25xea
 158 394 l 25xda
 158 236 l 25
 315 236 l 25
 315 394 l 25
 394 394 l 25
 394 236 l 25
 315 236 l 25xea
 315 79 l 25xec
 394 79 l 25
 394 0 l 25
 315 0 l 25xea
 315 79 l 25
 236 79 l 25
 236 158 l 25
 158 158 l 25
 158 0 l 25
 79 0 l 25
 79 473 l 25xdc
EndSplineSet
EndChar

StartChar: S
Encoding: 83 83 51
Width: 469
VWidth: 0
Flags: W
HStem: 0 79<79 315> 236 79<158 315> 394 79<158 394>
VStem: 79 79<315 394> 315 79<79 236>
LayerCount: 2
Back
SplineSet
157.538085938 472.615234375 m 29
 393.845703125 472.615234375 l 25
 393.845703125 393.845703125 l 25
 157.538085938 393.845703125 l 25
 157.538085938 315.077148438 l 25
 315.077148438 315.077148438 l 25
 315.077148438 236.307617188 l 25
 393.845703125 236.307617188 l 25
 393.845703125 78.76953125 l 25
 315.077148438 78.76953125 l 25
 315.077148438 0 l 25
 78.76953125 0 l 25
 78.76953125 78.76953125 l 25
 315.077148438 78.76953125 l 25
 315.077148438 236.307617188 l 25
 157.538085938 236.307617188 l 25
 157.538085938 315.077148438 l 25
 78.76953125 315.077148438 l 25
 78.76953125 393.845703125 l 25
 157.538085938 393.845703125 l 25
 157.538085938 472.615234375 l 29
EndSplineSet
Fore
SplineSet
158 473 m 25
 394 473 l 25
 394 394 l 25
 158 394 l 25
 158 315 l 25
 315 315 l 25
 315 236 l 25
 394 236 l 25
 394 79 l 25
 315 79 l 25
 315 0 l 25
 79 0 l 25
 79 79 l 25
 315 79 l 25
 315 236 l 25
 158 236 l 25
 158 315 l 25
 79 315 l 25
 79 394 l 25
 158 394 l 25
 158 473 l 25
EndSplineSet
EndChar

StartChar: T
Encoding: 84 84 52
Width: 469
VWidth: 0
Flags: W
HStem: 0 16G<236 315> 394 79<79 236 315 473>
VStem: 236 79<0 394>
LayerCount: 2
Back
SplineSet
78.76953125 472.615234375 m 29
 472.615234375 472.615234375 l 25
 472.615234375 393.845703125 l 25
 315.077148438 393.845703125 l 25
 315.077148438 0 l 25
 236.307617188 0 l 25
 236.307617188 393.845703125 l 25
 78.76953125 393.845703125 l 25
 78.76953125 472.615234375 l 29
EndSplineSet
Fore
SplineSet
79 473 m 25
 473 473 l 25
 473 394 l 25
 315 394 l 25
 315 0 l 25
 236 0 l 25
 236 394 l 25
 79 394 l 25
 79 473 l 25
EndSplineSet
EndChar

StartChar: U
Encoding: 85 85 53
Width: 469
VWidth: 0
Flags: W
HStem: 0 79<158 315> 457 16G<79 158 315 394>
VStem: 79 79<79 473> 315 79<79 473>
LayerCount: 2
Back
SplineSet
78.76953125 472.615234375 m 29
 157.538085938 472.615234375 l 25
 157.538085938 78.76953125 l 25
 315.077148438 78.76953125 l 25
 315.077148438 472.615234375 l 25
 393.845703125 472.615234375 l 25
 393.845703125 0 l 25
 157.538085938 0 l 25
 157.538085938 78.76953125 l 25
 78.76953125 78.76953125 l 25
 78.76953125 472.615234375 l 29
EndSplineSet
Fore
SplineSet
79 473 m 25
 158 473 l 25
 158 79 l 25
 315 79 l 25
 315 473 l 25
 394 473 l 25
 394 0 l 25
 158 0 l 25
 158 79 l 25
 79 79 l 25
 79 473 l 25
EndSplineSet
EndChar

StartChar: V
Encoding: 86 86 54
Width: 469
VWidth: 0
Flags: W
HStem: 0 158<158 315> 457 16G<79 158 315 394>
VStem: 79 79<158 473> 315 79<158 473>
LayerCount: 2
Back
SplineSet
78.76953125 472.615234375 m 29
 157.538085938 472.615234375 l 25
 157.538085938 157.538085938 l 25
 315.077148438 157.538085938 l 25
 315.077148438 472.615234375 l 25
 393.845703125 472.615234375 l 25
 393.845703125 157.538085938 l 25
 315.077148438 157.538085938 l 25
 315.077148438 0 l 25
 157.538085938 0 l 25
 157.538085938 157.538085938 l 25
 78.76953125 157.538085938 l 25
 78.76953125 472.615234375 l 29
EndSplineSet
Fore
SplineSet
79 473 m 25
 158 473 l 25
 158 158 l 25
 315 158 l 25
 315 473 l 25
 394 473 l 25
 394 158 l 25
 315 158 l 25
 315 0 l 25
 158 0 l 25
 158 158 l 25
 79 158 l 25
 79 473 l 25
EndSplineSet
EndChar

StartChar: W
Encoding: 87 87 55
Width: 469
VWidth: 0
Flags: W
HStem: 0 79<158 236 315 394> 457 16G<79 158 394 473>
VStem: 79 79<79 473> 236 79<79 236> 394 79<79 473>
CounterMasks: 1 38
LayerCount: 2
Back
SplineSet
78.76953125 472.615234375 m 29
 157.538085938 472.615234375 l 25
 157.538085938 78.76953125 l 25
 236.307617188 78.76953125 l 25
 236.307617188 236.307617188 l 25
 315.077148438 236.307617188 l 25
 315.077148438 78.76953125 l 25
 393.845703125 78.76953125 l 25
 393.845703125 472.615234375 l 25
 472.615234375 472.615234375 l 25
 472.615234375 78.76953125 l 25
 393.845703125 78.76953125 l 25
 393.845703125 0 l 25
 157.538085938 0 l 25
 157.538085938 78.76953125 l 25
 78.76953125 78.76953125 l 25
 78.76953125 472.615234375 l 29
EndSplineSet
Fore
SplineSet
79 473 m 25
 158 473 l 25
 158 79 l 25
 236 79 l 25
 236 236 l 25
 315 236 l 25
 315 79 l 25
 394 79 l 25
 394 473 l 25
 473 473 l 25
 473 79 l 25
 394 79 l 25
 394 0 l 25
 158 0 l 25
 158 79 l 25
 79 79 l 25
 79 473 l 25
EndSplineSet
EndChar

StartChar: X
Encoding: 88 88 56
Width: 469
VWidth: 0
Flags: W
HStem: 0 158<79 158 315 394> 315 158<79 158 315 394>
VStem: 79 79<0 158 315 473> 315 79<0 158 315 473>
LayerCount: 2
Back
SplineSet
78.76953125 472.615234375 m 29
 157.538085938 472.615234375 l 25
 157.538085938 315.077148438 l 25
 315.077148438 315.077148438 l 25
 315.077148438 472.615234375 l 25
 393.845703125 472.615234375 l 25
 393.845703125 315.077148438 l 25
 315.077148438 315.077148438 l 25
 315.077148438 157.538085938 l 25
 393.845703125 157.538085938 l 25
 393.845703125 0 l 25
 315.077148438 0 l 25
 315.077148438 157.538085938 l 25
 157.538085938 157.538085938 l 25
 157.538085938 0 l 25
 78.76953125 0 l 25
 78.76953125 157.538085938 l 25
 157.538085938 157.538085938 l 25
 157.538085938 315.077148438 l 25
 78.76953125 315.077148438 l 25
 78.76953125 472.615234375 l 29
EndSplineSet
Fore
SplineSet
79 473 m 25
 158 473 l 25
 158 315 l 25
 315 315 l 25
 315 473 l 25
 394 473 l 25
 394 315 l 25
 315 315 l 25
 315 158 l 25
 394 158 l 25
 394 0 l 25
 315 0 l 25
 315 158 l 25
 158 158 l 25
 158 0 l 25
 79 0 l 25
 79 158 l 25
 158 158 l 25
 158 315 l 25
 79 315 l 25
 79 473 l 25
EndSplineSet
EndChar

StartChar: Y
Encoding: 89 89 57
Width: 469
VWidth: 0
Flags: W
HStem: 0 16G<236 315> 236 79<158 236 315 394> 315 158<79 158 394 473>
VStem: 79 79<315 473> 158 79<236 315> 315 79<236 315> 394 79<315 473>
LayerCount: 2
Back
SplineSet
78.76953125 472.615234375 m 29
 157.538085938 472.615234375 l 25
 157.538085938 315.077148438 l 25
 236.307617188 315.077148438 l 25
 236.307617188 236.307617188 l 25
 315.077148438 236.307617188 l 25
 315.077148438 315.077148438 l 25
 393.845703125 315.077148438 l 25
 393.845703125 472.615234375 l 25
 472.615234375 472.615234375 l 25
 472.615234375 393.845703125 l 25
 472.615234375 315.077148438 l 25
 393.845703125 315.077148438 l 25
 393.845703125 236.307617188 l 25
 315.077148438 236.307617188 l 25
 315.077148438 0 l 25
 236.307617188 0 l 25
 236.307617188 236.307617188 l 25
 157.538085938 236.307617188 l 25
 157.538085938 315.077148438 l 25
 78.76953125 315.077148438 l 25
 78.76953125 472.615234375 l 29
EndSplineSet
Fore
SplineSet
79 473 m 25xb0
 158 473 l 25xb0
 158 315 l 25xd0
 236 315 l 25
 236 236 l 25
 315 236 l 25
 315 315 l 25
 394 315 l 25xcc
 394 473 l 25
 473 473 l 25
 473 394 l 25
 473 315 l 25xa2
 394 315 l 25
 394 236 l 25
 315 236 l 25
 315 0 l 25
 236 0 l 25
 236 236 l 25
 158 236 l 25xcc
 158 315 l 25xd0
 79 315 l 25
 79 473 l 25xb0
EndSplineSet
EndChar

StartChar: Z
Encoding: 90 90 58
Width: 469
VWidth: 0
Flags: W
HStem: 0 79<158 394> 158 79<158 236> 236 79<236 315> 394 79<79 315>
VStem: 79 79<79 158> 158 79<158 236> 236 79<236 315> 315 79<315 394>
LayerCount: 2
Back
SplineSet
78.76953125 472.615234375 m 29
 393.845703125 472.615234375 l 25
 393.845703125 315.077148438 l 25
 315.077148438 315.077148438 l 25
 315.077148438 236.307617188 l 25
 236.307617188 236.307617188 l 25
 236.307617188 157.538085938 l 25
 157.538085938 157.538085938 l 25
 157.538085938 78.76953125 l 25
 393.845703125 78.76953125 l 25
 393.845703125 0 l 25
 78.76953125 0 l 25
 78.76953125 157.538085938 l 25
 157.538085938 157.538085938 l 25
 157.538085938 236.307617188 l 25
 236.307617188 236.307617188 l 25
 236.307617188 315.077148438 l 25
 315.077148438 315.077148438 l 25
 315.077148438 393.845703125 l 25
 78.76953125 393.845703125 l 25
 78.76953125 472.615234375 l 29
EndSplineSet
Fore
SplineSet
79 473 m 25xb9
 394 473 l 25
 394 315 l 25xb9
 315 315 l 25
 315 236 l 25xb2
 236 236 l 25
 236 158 l 25xd4
 158 158 l 25
 158 79 l 25
 394 79 l 25
 394 0 l 25
 79 0 l 25
 79 158 l 25
 158 158 l 25xd9
 158 236 l 25
 236 236 l 25xd4
 236 315 l 25
 315 315 l 25xb2
 315 394 l 25
 79 394 l 25
 79 473 l 25xb9
EndSplineSet
EndChar

StartChar: bracketleft
Encoding: 91 91 59
Width: 469
VWidth: 0
Flags: W
HStem: -79 79<236 315> 473 79<236 315>
VStem: 158 158<-79 0 473 551> 158 79<0 473>
LayerCount: 2
Back
SplineSet
157.538085938 551.384765625 m 29
 315.077148438 551.384765625 l 25
 315.077148438 472.615234375 l 25
 236.307617188 472.615234375 l 25
 236.307617188 0 l 25
 315.077148438 0 l 25
 315.077148438 -78.76953125 l 25
 157.538085938 -78.76953125 l 25
 157.538085938 551.384765625 l 29
EndSplineSet
Fore
SplineSet
158 551 m 25xe0
 315 551 l 25
 315 473 l 25xe0
 236 473 l 25
 236 0 l 25xd0
 315 0 l 25
 315 -79 l 25
 158 -79 l 25
 158 551 l 25xe0
EndSplineSet
EndChar

StartChar: backslash
Encoding: 92 92 60
Width: 469
VWidth: 0
Flags: W
HStem: -79 16G<315 394> 536 16G<79 158>
VStem: 79 79<394 551> 158 79<236 394> 236 79<79 236> 315 79<-79 79>
LayerCount: 2
Back
SplineSet
78.76953125 551.384765625 m 29
 157.538085938 551.384765625 l 25
 157.538085938 393.845703125 l 25
 236.307617188 393.845703125 l 25
 236.307617188 236.307617188 l 25
 315.077148438 236.307617188 l 25
 315.077148438 78.76953125 l 25
 393.845703125 78.76953125 l 25
 393.845703125 -78.76953125 l 25
 315.077148438 -78.76953125 l 25
 315.077148438 78.76953125 l 25
 236.307617188 78.76953125 l 25
 236.307617188 236.307617188 l 25
 157.538085938 236.307617188 l 25
 157.538085938 393.845703125 l 25
 78.76953125 393.845703125 l 25
 78.76953125 551.384765625 l 29
EndSplineSet
Fore
SplineSet
79 551 m 25xe0
 158 551 l 25
 158 394 l 25xe0
 236 394 l 25
 236 236 l 25xd0
 315 236 l 25
 315 79 l 25xc8
 394 79 l 25
 394 -79 l 25
 315 -79 l 25xc4
 315 79 l 25
 236 79 l 25xc8
 236 236 l 25
 158 236 l 25xd0
 158 394 l 25
 79 394 l 25
 79 551 l 25xe0
EndSplineSet
EndChar

StartChar: bracketright
Encoding: 93 93 61
Width: 469
VWidth: 0
Flags: W
HStem: -79 79<158 236> 473 79<158 236>
VStem: 158 158<-79 0 473 551> 236 79<0 473>
LayerCount: 2
Back
SplineSet
157.538085938 551.384765625 m 29
 315.077148438 551.384765625 l 25
 315.077148438 -78.76953125 l 25
 157.538085938 -78.76953125 l 25
 157.538085938 0 l 25
 236.307617188 0 l 25
 236.307617188 472.615234375 l 25
 157.538085938 472.615234375 l 25
 157.538085938 551.384765625 l 29
EndSplineSet
Fore
SplineSet
158 551 m 25xe0
 315 551 l 25
 315 -79 l 25
 158 -79 l 25
 158 0 l 25xe0
 236 0 l 25
 236 473 l 25xd0
 158 473 l 25
 158 551 l 25xe0
EndSplineSet
EndChar

StartChar: asciicircum
Encoding: 94 94 62
Width: 469
VWidth: 0
Flags: W
HStem: 315 79<79 158 394 473> 394 79<158 236 315 394> 473 79<236 315>
VStem: 79 79<315 394> 158 79<394 473> 315 79<394 473> 394 79<315 394>
LayerCount: 2
Back
SplineSet
78.76953125 393.845703125 m 29
 157.538085938 393.845703125 l 25
 157.538085938 472.615234375 l 25
 236.307617188 472.615234375 l 25
 236.307617188 551.384765625 l 25
 315.077148438 551.384765625 l 25
 315.077148438 472.615234375 l 25
 393.845703125 472.615234375 l 25
 393.845703125 393.845703125 l 25
 472.615234375 393.845703125 l 25
 472.615234375 315.077148438 l 25
 393.845703125 315.077148438 l 25
 393.845703125 393.845703125 l 25
 315.077148438 393.845703125 l 25
 315.077148438 472.615234375 l 25
 236.307617188 472.615234375 l 25
 236.307617188 393.845703125 l 25
 157.538085938 393.845703125 l 25
 157.538085938 315.077148438 l 25
 78.76953125 315.077148438 l 25
 78.76953125 393.845703125 l 29
EndSplineSet
Fore
SplineSet
79 394 m 25x90
 158 394 l 25x90
 158 473 l 25
 236 473 l 25x48
 236 551 l 25
 315 551 l 25x2c
 315 473 l 25
 394 473 l 25x4c
 394 394 l 25x8c
 473 394 l 25
 473 315 l 25
 394 315 l 25x82
 394 394 l 25x84
 315 394 l 25
 315 473 l 25
 236 473 l 25
 236 394 l 25x4c
 158 394 l 25
 158 315 l 25
 79 315 l 25
 79 394 l 25x90
EndSplineSet
EndChar

StartChar: underscore
Encoding: 95 95 63
Width: 469
VWidth: 0
Flags: W
HStem: -79 79<79 473>
LayerCount: 2
Back
SplineSet
78.76953125 0 m 29
 472.615234375 0 l 25
 472.615234375 -78.76953125 l 25
 78.76953125 -78.76953125 l 25
 78.76953125 0 l 29
EndSplineSet
Fore
SplineSet
79 0 m 25
 473 0 l 25
 473 -79 l 25
 79 -79 l 25
 79 0 l 25
EndSplineSet
EndChar

StartChar: grave
Encoding: 96 96 64
Width: 469
VWidth: 0
Flags: W
LayerCount: 2
Back
SplineSet
157.538085938 551.384765625 m 29
 157.538085938 393.845703125 l 25
 236.307617188 393.845703125 l 25
 236.307617188 315.077148438 l 25
 315.077148438 315.077148438 l 25
 315.077148438 393.845703125 l 25
 236.307617188 393.845703125 l 25
 236.307617188 551.384765625 l 25
 157.538085938 551.384765625 l 29
EndSplineSet
Fore
SplineSet
158 551 m 25
 158 394 l 25
 236 394 l 25
 236 315 l 25
 315 315 l 25
 315 394 l 25
 236 394 l 25
 236 551 l 25
 158 551 l 25
EndSplineSet
EndChar

StartChar: a
Encoding: 97 97 65
Width: 469
VWidth: 0
Flags: W
LayerCount: 2
Back
SplineSet
393.845703125 78.76953125 m 29
 393.845703125 0 l 25
 472.615234375 0 l 25
 472.615234375 78.76953125 l 25
 393.845703125 78.76953125 l 29
157.538085938 78.76953125 m 25
 157.538085938 0 l 25
 315.077148438 0 l 25
 315.077148438 78.76953125 l 25
 157.538085938 78.76953125 l 25
157.538085938 393.845703125 m 25
 157.538085938 315.077148438 l 25
 315.077148438 315.077148438 l 25
 315.077148438 78.76953125 l 25
 393.845703125 78.76953125 l 25
 393.845703125 393.845703125 l 25
 157.538085938 393.845703125 l 25
78.76953125 315.077148438 m 25
 78.76953125 78.76953125 l 25
 157.538085938 78.76953125 l 25
 157.538085938 315.077148438 l 25
 78.76953125 315.077148438 l 25
EndSplineSet
Fore
SplineSet
394 79 m 25
 394 0 l 25
 473 0 l 25
 473 79 l 25
 394 79 l 25
158 79 m 25
 158 0 l 25
 315 0 l 25
 315 79 l 25
 158 79 l 25
158 394 m 25
 158 315 l 25
 315 315 l 25
 315 79 l 25
 394 79 l 25
 394 394 l 25
 158 394 l 25
79 315 m 25
 79 79 l 25
 158 79 l 25
 158 315 l 25
 79 315 l 25
EndSplineSet
EndChar

StartChar: b
Encoding: 98 98 66
Width: 469
VWidth: 0
Flags: W
HStem: 0 79<158 315> 315 79<158 315> 536 16G<79 158>
VStem: 79 236<0 79 315 394> 79 79<79 315 394 551> 315 79<79 315>
LayerCount: 2
Back
SplineSet
315.077148438 78.76953125 m 29
 315.077148438 315.077148438 l 25
 393.845703125 315.077148438 l 25
 393.845703125 78.76953125 l 25
 315.077148438 78.76953125 l 29
78.76953125 0 m 25
 78.76953125 551.384765625 l 25
 157.538085938 551.384765625 l 25
 157.538085938 393.845703125 l 25
 315.077148438 393.845703125 l 25
 315.077148438 315.077148438 l 25
 157.538085938 315.077148438 l 25
 157.538085938 78.76953125 l 25
 315.077148438 78.76953125 l 25
 315.077148438 0 l 25
 78.76953125 0 l 25
EndSplineSet
Fore
SplineSet
315 79 m 25xf0
 315 315 l 25xf0
 394 315 l 25
 394 79 l 25xe4
 315 79 l 25xf0
79 0 m 25
 79 551 l 25
 158 551 l 25
 158 394 l 25xe8
 315 394 l 25
 315 315 l 25xf0
 158 315 l 25
 158 79 l 25xe8
 315 79 l 25
 315 0 l 25
 79 0 l 25
EndSplineSet
EndChar

StartChar: c
Encoding: 99 99 67
Width: 469
VWidth: 0
Flags: W
HStem: 0 79<158 394> 315 79<158 394>
VStem: 79 79<79 315> 158 236<0 79 315 394>
LayerCount: 2
Back
SplineSet
157.538085938 393.845703125 m 29
 393.845703125 393.845703125 l 25
 393.845703125 315.077148438 l 25
 157.538085938 315.077148438 l 25
 157.538085938 78.76953125 l 25
 393.845703125 78.76953125 l 25
 393.845703125 0 l 25
 157.538085938 0 l 25
 157.538085938 78.76953125 l 25
 78.76953125 78.76953125 l 25
 78.76953125 315.077148438 l 25
 157.538085938 315.077148438 l 25
 157.538085938 393.845703125 l 29
EndSplineSet
Fore
SplineSet
158 394 m 25xd0
 394 394 l 25
 394 315 l 25xd0
 158 315 l 25
 158 79 l 25xe0
 394 79 l 25
 394 0 l 25
 158 0 l 25xd0
 158 79 l 25
 79 79 l 25
 79 315 l 25
 158 315 l 25xe0
 158 394 l 25xd0
EndSplineSet
EndChar

StartChar: d
Encoding: 100 100 68
Width: 469
VWidth: 0
Flags: W
HStem: 0 79<158 315> 315 79<158 315> 536 16G<315 394>
VStem: 79 79<79 315> 158 236<0 79 315 394> 315 79<79 315 394 551>
LayerCount: 2
Back
SplineSet
157.538085938 393.845703125 m 29
 315.077148438 393.845703125 l 25
 315.077148438 551.384765625 l 25
 393.845703125 551.384765625 l 25
 393.845703125 0 l 25
 157.538085938 0 l 25
 157.538085938 78.76953125 l 25
 315.077148438 78.76953125 l 25
 315.077148438 315.077148438 l 25
 157.538085938 315.077148438 l 25
 157.538085938 78.76953125 l 25
 78.76953125 78.76953125 l 25
 78.76953125 315.077148438 l 25
 157.538085938 315.077148438 l 25
 157.538085938 393.845703125 l 29
EndSplineSet
Fore
SplineSet
158 394 m 25xe8
 315 394 l 25
 315 551 l 25
 394 551 l 25xe4
 394 0 l 25
 158 0 l 25xe8
 158 79 l 25
 315 79 l 25
 315 315 l 25
 158 315 l 25
 158 79 l 25
 79 79 l 25
 79 315 l 25
 158 315 l 25xf4
 158 394 l 25xe8
EndSplineSet
EndChar

StartChar: e
Encoding: 101 101 69
Width: 469
VWidth: 0
Flags: W
HStem: 0 79<158 394> 158 79<158 315> 315 79<158 315>
VStem: 79 79<79 158 236 315> 315 79<236 315>
CounterMasks: 1 e0
LayerCount: 2
Back
SplineSet
157.538085938 393.845703125 m 29
 315.077148438 393.845703125 l 25
 315.077148438 315.077148438 l 25
 157.538085938 315.077148438 l 25
 157.538085938 236.307617188 l 25
 315.077148438 236.307617188 l 25
 315.077148438 315.077148438 l 25
 393.845703125 315.077148438 l 25
 393.845703125 157.538085938 l 25
 157.538085938 157.538085938 l 25
 157.538085938 78.76953125 l 25
 393.845703125 78.76953125 l 25
 393.845703125 0 l 25
 157.538085938 0 l 25
 157.538085938 78.76953125 l 25
 78.76953125 78.76953125 l 25
 78.76953125 315.077148438 l 25
 157.538085938 315.077148438 l 25
 157.538085938 393.845703125 l 29
EndSplineSet
Fore
SplineSet
158 394 m 25
 315 394 l 25
 315 315 l 25
 158 315 l 25
 158 236 l 25
 315 236 l 25
 315 315 l 25
 394 315 l 25
 394 158 l 25
 158 158 l 25
 158 79 l 25
 394 79 l 25
 394 0 l 25
 158 0 l 25
 158 79 l 25
 79 79 l 25
 79 315 l 25
 158 315 l 25
 158 394 l 25
EndSplineSet
EndChar

StartChar: f
Encoding: 102 102 70
Width: 469
VWidth: 0
Flags: W
HStem: 0 16G<158 236> 315 79<236 394> 473 79<236 394>
VStem: 158 79<0 315 394 473>
LayerCount: 2
Back
SplineSet
157.538085938 472.615234375 m 29
 236.307617188 472.615234375 l 25
 236.307617188 551.384765625 l 25
 393.845703125 551.384765625 l 25
 393.845703125 472.615234375 l 25
 236.307617188 472.615234375 l 25
 236.307617188 393.845703125 l 25
 393.845703125 393.845703125 l 25
 393.845703125 315.077148438 l 25
 236.307617188 315.077148438 l 25
 236.307617188 0 l 25
 157.538085938 0 l 25
 157.538085938 472.615234375 l 29
EndSplineSet
Fore
SplineSet
158 473 m 25
 236 473 l 25
 236 551 l 25
 394 551 l 25
 394 473 l 25
 236 473 l 25
 236 394 l 25
 394 394 l 25
 394 315 l 25
 236 315 l 25
 236 0 l 25
 158 0 l 25
 158 473 l 25
EndSplineSet
EndChar

StartChar: g
Encoding: 103 103 71
Width: 469
VWidth: 0
Flags: W
HStem: -79 79<158 315> 79 79<158 315> 315 79<158 315>
VStem: 79 79<158 315> 158 236<79 158 315 394> 315 79<0 79 158 315>
LayerCount: 2
Back
SplineSet
78.76953125 315.077148438 m 29
 157.538085938 315.077148438 l 25
 157.538085938 393.845703125 l 25
 393.845703125 393.845703125 l 25
 393.845703125 0 l 25
 315.077148438 0 l 25
 315.077148438 -78.76953125 l 25
 157.538085938 -78.76953125 l 25
 157.538085938 0 l 25
 315.077148438 0 l 25
 315.077148438 78.76953125 l 25
 157.538085938 78.76953125 l 25
 157.538085938 157.538085938 l 25
 315.077148438 157.538085938 l 25
 315.077148438 315.077148438 l 25
 157.538085938 315.077148438 l 25
 157.538085938 157.538085938 l 25
 78.76953125 157.538085938 l 25
 78.76953125 315.077148438 l 29
EndSplineSet
Fore
SplineSet
79 315 m 25
 158 315 l 25
 158 79 l 25
 315 79 l 25
 315 315 l 25
 158 315 l 25
 158 394 l 25
 394 394 l 25
 394 -79 l 25
 315 -79 l 25
 315 -158 l 25
 158 -158 l 25
 158 -79 l 25
 315 -79 l 25
 315 0 l 25
 158 0 l 25
 158 79 l 25
 79 79 l 25
 79 315 l 25
EndSplineSet
EndChar

StartChar: h
Encoding: 104 104 72
Width: 469
VWidth: 0
Flags: W
HStem: 0 16G<79 158 315 394> 315 79<158 315> 536 16G<79 158>
VStem: 79 79<0 315 394 551> 315 79<0 315>
LayerCount: 2
Back
SplineSet
78.76953125 551.384765625 m 29
 157.538085938 551.384765625 l 25
 157.538085938 393.845703125 l 25
 315.077148438 393.845703125 l 25
 315.077148438 315.077148438 l 25
 393.845703125 315.077148438 l 25
 393.845703125 0 l 25
 315.077148438 0 l 25
 315.077148438 315.077148438 l 25
 157.538085938 315.077148438 l 25
 157.538085938 0 l 25
 78.76953125 0 l 25
 78.76953125 551.384765625 l 29
EndSplineSet
Fore
SplineSet
79 551 m 25
 158 551 l 25
 158 394 l 25
 315 394 l 25
 315 315 l 25
 394 315 l 25
 394 0 l 25
 315 0 l 25
 315 315 l 25
 158 315 l 25
 158 0 l 25
 79 0 l 25
 79 551 l 25
EndSplineSet
EndChar

StartChar: i
Encoding: 105 105 73
Width: 469
VWidth: 0
Flags: W
HStem: 0 16G<236 315> 378 16G<236 315> 473 79<236 315>
VStem: 236 79<0 394 473 551>
LayerCount: 2
Back
SplineSet
236.307617188 393.845703125 m 29
 315.077148438 393.845703125 l 25
 315.077148438 0 l 25
 236.307617188 0 l 25
 236.307617188 393.845703125 l 29
236.307617188 551.384765625 m 25
 315.077148438 551.384765625 l 25
 315.077148438 472.615234375 l 25
 236.307617188 472.615234375 l 25
 236.307617188 551.384765625 l 25
EndSplineSet
Fore
SplineSet
236 394 m 25
 315 394 l 25
 315 0 l 25
 236 0 l 25
 236 394 l 25
236 551 m 25
 315 551 l 25
 315 473 l 25
 236 473 l 25
 236 551 l 25
EndSplineSet
EndChar

StartChar: j
Encoding: 106 106 74
Width: 469
VWidth: 0
Flags: W
HStem: -79 79<158 236> 378 16G<236 315> 473 79<236 315>
VStem: 158 79<-79 0> 236 79<0 394 473 551>
LayerCount: 2
Back
SplineSet
236.307617188 393.845703125 m 29
 315.077148438 393.845703125 l 25
 315.077148438 0 l 25
 236.307617188 0 l 25
 236.307617188 -78.76953125 l 25
 157.538085938 -78.76953125 l 25
 157.538085938 0 l 25
 236.307617188 0 l 25
 236.307617188 393.845703125 l 29
236.307617188 551.384765625 m 25
 315.077148438 551.384765625 l 25
 315.077148438 472.615234375 l 25
 236.307617188 472.615234375 l 25
 236.307617188 551.384765625 l 25
EndSplineSet
Fore
SplineSet
236 394 m 25xe8
 315 394 l 25
 315 0 l 25xe8
 236 0 l 25
 236 -79 l 25
 158 -79 l 25
 158 0 l 25
 236 0 l 25xf0
 236 394 l 25xe8
236 551 m 25
 315 551 l 25
 315 473 l 25
 236 473 l 25
 236 551 l 25
EndSplineSet
EndChar

StartChar: k
Encoding: 107 107 75
Width: 469
VWidth: 0
Flags: W
HStem: 0 79<315 394> 79 79<236 315> 236 79<236 315> 315 79<315 394> 536 16G<79 158>
VStem: 79 79<0 158 236 551> 236 79<79 158 236 315> 315 79<0 79 315 394>
LayerCount: 2
Back
SplineSet
78.76953125 551.384765625 m 29
 157.538085938 551.384765625 l 25
 157.538085938 236.307617188 l 25
 236.307617188 236.307617188 l 25
 236.307617188 315.077148438 l 25
 315.077148438 315.077148438 l 25
 315.077148438 393.845703125 l 25
 393.845703125 393.845703125 l 25
 393.845703125 315.077148438 l 25
 315.077148438 315.077148438 l 25
 315.077148438 236.307617188 l 25
 236.307617188 236.307617188 l 25
 236.307617188 157.538085938 l 25
 315.077148438 157.538085938 l 25
 315.077148438 78.76953125 l 25
 393.845703125 78.76953125 l 25
 393.845703125 0 l 25
 315.077148438 0 l 25
 315.077148438 78.76953125 l 25
 236.307617188 78.76953125 l 25
 236.307617188 157.538085938 l 25
 157.538085938 157.538085938 l 25
 157.538085938 0 l 25
 78.76953125 0 l 25
 78.76953125 551.384765625 l 29
EndSplineSet
Fore
SplineSet
79 551 m 25x8e
 158 551 l 25
 158 236 l 25
 236 236 l 25
 236 315 l 25
 315 315 l 25xae
 315 394 l 25
 394 394 l 25
 394 315 l 25x1d
 315 315 l 25
 315 236 l 25
 236 236 l 25
 236 158 l 25
 315 158 l 25x6e
 315 79 l 25x8e
 394 79 l 25
 394 0 l 25
 315 0 l 25x8d
 315 79 l 25x8e
 236 79 l 25
 236 158 l 25
 158 158 l 25x4e
 158 0 l 25
 79 0 l 25
 79 551 l 25x8e
EndSplineSet
EndChar

StartChar: l
Encoding: 108 108 76
Width: 469
VWidth: 0
Flags: W
HStem: 0 79<236 394> 536 16G<158 236>
VStem: 158 79<79 551>
LayerCount: 2
Back
SplineSet
157.538085938 551.384765625 m 29
 236.307617188 551.384765625 l 25
 236.307617188 78.76953125 l 25
 393.845703125 78.76953125 l 25
 393.845703125 0 l 25
 236.307617188 0 l 25
 236.307617188 78.76953125 l 25
 157.538085938 78.76953125 l 25
 157.538085938 551.384765625 l 29
EndSplineSet
Fore
SplineSet
158 551 m 25
 236 551 l 25
 236 79 l 25
 394 79 l 25
 394 0 l 25
 236 0 l 25
 236 79 l 25
 158 79 l 25
 158 551 l 25
EndSplineSet
EndChar

StartChar: m
Encoding: 109 109 77
Width: 469
VWidth: 0
Flags: W
HStem: 0 16G<79 158 394 473> 315 79<158 236 315 394>
VStem: 79 79<0 315> 236 79<79 315> 394 79<0 315>
CounterMasks: 1 38
LayerCount: 2
Back
SplineSet
78.76953125 0 m 29
 78.76953125 393.845703125 l 25
 393.845703125 393.845703125 l 25
 393.845703125 315.077148438 l 25
 472.615234375 315.077148438 l 25
 472.615234375 0 l 25
 393.845703125 0 l 25
 393.845703125 315.077148438 l 25
 315.077148438 315.077148438 l 25
 315.077148438 78.76953125 l 25
 236.307617188 78.76953125 l 25
 236.307617188 315.077148438 l 25
 157.538085938 315.077148438 l 25
 157.538085938 0 l 25
 78.76953125 0 l 29
EndSplineSet
Fore
SplineSet
79 0 m 25
 79 394 l 25
 394 394 l 25
 394 315 l 25
 473 315 l 25
 473 0 l 25
 394 0 l 25
 394 315 l 25
 315 315 l 25
 315 79 l 25
 236 79 l 25
 236 315 l 25
 158 315 l 25
 158 0 l 25
 79 0 l 25
EndSplineSet
EndChar

StartChar: n
Encoding: 110 110 78
Width: 469
VWidth: 0
Flags: W
HStem: 0 16G<79 158 315 394> 315 79<158 315>
VStem: 79 79<0 315> 315 79<0 315>
LayerCount: 2
Back
SplineSet
78.76953125 393.845703125 m 29
 315.077148438 393.845703125 l 25
 315.077148438 315.077148438 l 25
 393.845703125 315.077148438 l 25
 393.845703125 0 l 25
 315.077148438 0 l 25
 315.077148438 315.077148438 l 25
 157.538085938 315.077148438 l 25
 157.538085938 0 l 25
 78.76953125 0 l 25
 78.76953125 393.845703125 l 29
EndSplineSet
Fore
SplineSet
79 394 m 25
 315 394 l 25
 315 315 l 25
 394 315 l 25
 394 0 l 25
 315 0 l 25
 315 315 l 25
 158 315 l 25
 158 0 l 25
 79 0 l 25
 79 394 l 25
EndSplineSet
EndChar

StartChar: o
Encoding: 111 111 79
Width: 469
VWidth: 0
Flags: W
HStem: 0 79<158 315> 79 236<79 158 315 394>
VStem: 79 79<79 315> 158 158<0 79 315 394>
LayerCount: 2
Back
SplineSet
157.538085938 393.845703125 m 29x28
 315.077148438 393.845703125 l 25
 315.077148438 315.077148438 l 25
 393.845703125 315.077148438 l 25
 393.845703125 78.76953125 l 25
 315.077148438 78.76953125 l 25x28
 315.077148438 0 l 25
 157.538085938 0 l 25x88
 157.538085938 78.76953125 l 25
 78.76953125 78.76953125 l 25
 78.76953125 315.077148438 l 25
 157.538085938 315.077148438 l 25
 157.538085938 78.76953125 l 25x30
 315.077148438 78.76953125 l 25
 315.077148438 315.077148438 l 25x28
 157.538085938 315.077148438 l 25x30
 157.538085938 393.845703125 l 29x28
EndSplineSet
Fore
SplineSet
158 394 m 25x50
 315 394 l 25
 315 315 l 25
 394 315 l 25
 394 79 l 25x50
 315 79 l 25
 315 0 l 25
 158 0 l 25x90
 158 79 l 25xa0
 79 79 l 25
 79 315 l 25
 158 315 l 25x60
 158 79 l 25xa0
 315 79 l 25x90
 315 315 l 25x50
 158 315 l 25x60
 158 394 l 25x50
EndSplineSet
EndChar

StartChar: p
Encoding: 112 112 80
Width: 469
VWidth: 0
Flags: W
HStem: -79 16G<79 158> 79 79<158 315> 315 79<158 315>
VStem: 79 236<79 158 315 394> 79 79<-79 79 158 315> 315 79<158 315>
LayerCount: 2
Back
SplineSet
78.76953125 393.845703125 m 29
 315.077148438 393.845703125 l 25
 315.077148438 315.077148438 l 25
 393.845703125 315.077148438 l 25
 393.845703125 157.538085938 l 25
 315.077148438 157.538085938 l 25
 315.077148438 315.077148438 l 25
 157.538085938 315.077148438 l 25
 157.538085938 157.538085938 l 25
 315.077148438 157.538085938 l 25
 315.077148438 78.76953125 l 25
 157.538085938 78.76953125 l 25
 157.538085938 -78.76953125 l 25
 78.76953125 -78.76953125 l 25
 78.76953125 393.845703125 l 29
EndSplineSet
Fore
SplineSet
79 394 m 25
 315 394 l 25
 315 315 l 25
 158 315 l 25
 158 79 l 25
 315 79 l 25
 315 315 l 25
 394 315 l 25
 394 79 l 25
 315 79 l 25
 315 0 l 25
 158 0 l 25
 158 -158 l 25
 79 -158 l 25
 79 394 l 25
EndSplineSet
EndChar

StartChar: q
Encoding: 113 113 81
Width: 469
VWidth: 0
Flags: W
HStem: -79 16G<315 394> 79 79<158 315> 315 79<158 315>
VStem: 79 79<158 315> 158 236<79 158 315 394> 315 79<-79 79 158 315>
LayerCount: 2
Back
SplineSet
157.538085938 393.845703125 m 29
 393.845703125 393.845703125 l 25
 393.845703125 -78.76953125 l 25
 315.077148438 -78.76953125 l 25
 315.077148438 78.76953125 l 25
 157.538085938 78.76953125 l 25
 157.538085938 157.538085938 l 25
 78.76953125 157.538085938 l 25
 78.76953125 315.077148438 l 25
 157.538085938 315.077148438 l 25
 157.538085938 157.538085938 l 25
 315.077148438 157.538085938 l 25
 315.077148438 315.077148438 l 25
 157.538085938 315.077148438 l 25
 157.538085938 393.845703125 l 29
EndSplineSet
Fore
SplineSet
79 315 m 25
 158 315 l 25
 158 79 l 25
 315 79 l 25
 315 315 l 25
 158 315 l 25
 158 394 l 25
 394 394 l 25
 394 -158 l 25
 315 -158 l 25
 315 0 l 25
 158 0 l 25
 158 79 l 25
 79 79 l 25
 79 315 l 25
EndSplineSet
EndChar

StartChar: r
Encoding: 114 114 82
Width: 469
VWidth: 0
Flags: W
HStem: 0 16G<158 236> 315 79<236 394>
VStem: 158 79<0 315>
LayerCount: 2
Back
SplineSet
236.307617188 393.845703125 m 29
 393.845703125 393.845703125 l 25
 393.845703125 315.077148438 l 25
 236.307617188 315.077148438 l 25
 236.307617188 0 l 25
 157.538085938 0 l 25
 157.538085938 315.077148438 l 25
 236.307617188 315.077148438 l 25
 236.307617188 393.845703125 l 29
EndSplineSet
Fore
SplineSet
236 394 m 25
 394 394 l 25
 394 315 l 25
 236 315 l 25
 236 0 l 25
 158 0 l 25
 158 315 l 25
 236 315 l 25
 236 394 l 25
EndSplineSet
EndChar

StartChar: s
Encoding: 115 115 83
Width: 469
VWidth: 0
Flags: W
HStem: 0 79<79 315> 158 79<158 315> 315 79<158 394>
VStem: 79 79<236 315> 315 79<79 158>
CounterMasks: 1 e0
LayerCount: 2
Back
SplineSet
157.538085938 393.845703125 m 29
 393.845703125 393.845703125 l 25
 393.845703125 315.077148438 l 25
 157.538085938 315.077148438 l 25
 157.538085938 236.307617188 l 25
 315.077148438 236.307617188 l 25
 315.077148438 157.538085938 l 25
 393.845703125 157.538085938 l 25
 393.845703125 78.76953125 l 25
 315.077148438 78.76953125 l 25
 315.077148438 0 l 25
 78.76953125 0 l 25
 78.76953125 78.76953125 l 25
 315.077148438 78.76953125 l 25
 315.077148438 157.538085938 l 25
 157.538085938 157.538085938 l 25
 157.538085938 236.307617188 l 25
 78.76953125 236.307617188 l 25
 78.76953125 315.077148438 l 25
 157.538085938 315.077148438 l 25
 157.538085938 393.845703125 l 29
EndSplineSet
Fore
SplineSet
158 394 m 25
 394 394 l 25
 394 315 l 25
 158 315 l 25
 158 236 l 25
 315 236 l 25
 315 158 l 25
 394 158 l 25
 394 79 l 25
 315 79 l 25
 315 0 l 25
 79 0 l 25
 79 79 l 25
 315 79 l 25
 315 158 l 25
 158 158 l 25
 158 236 l 25
 79 236 l 25
 79 315 l 25
 158 315 l 25
 158 394 l 25
EndSplineSet
EndChar

StartChar: t
Encoding: 116 116 84
Width: 469
VWidth: 0
Flags: W
HStem: 0 79<236 394> 315 79<236 394> 536 16G<158 236>
VStem: 158 79<79 315 394 551>
LayerCount: 2
Back
SplineSet
157.538085938 551.384765625 m 29
 236.307617188 551.384765625 l 25
 236.307617188 393.845703125 l 25
 393.845703125 393.845703125 l 25
 393.845703125 315.077148438 l 25
 236.307617188 315.077148438 l 25
 236.307617188 78.76953125 l 25
 393.845703125 78.76953125 l 25
 393.845703125 0 l 25
 236.307617188 0 l 25
 236.307617188 78.76953125 l 25
 157.538085938 78.76953125 l 25
 157.538085938 551.384765625 l 29
EndSplineSet
Fore
SplineSet
158 551 m 25
 236 551 l 25
 236 394 l 25
 394 394 l 25
 394 315 l 25
 236 315 l 25
 236 79 l 25
 394 79 l 25
 394 0 l 25
 236 0 l 25
 236 79 l 25
 158 79 l 25
 158 551 l 25
EndSplineSet
EndChar

StartChar: u
Encoding: 117 117 85
Width: 469
VWidth: 0
Flags: W
HStem: 0 79<158 315> 378 16G<79 158 315 394>
VStem: 79 79<79 394> 315 79<79 394>
LayerCount: 2
Back
SplineSet
78.76953125 393.845703125 m 29
 157.538085938 393.845703125 l 25
 157.538085938 78.76953125 l 25
 315.077148438 78.76953125 l 25
 315.077148438 393.845703125 l 25
 393.845703125 393.845703125 l 25
 393.845703125 0 l 25
 157.538085938 0 l 25
 157.538085938 78.76953125 l 25
 78.76953125 78.76953125 l 25
 78.76953125 393.845703125 l 29
EndSplineSet
Fore
SplineSet
79 394 m 25
 158 394 l 25
 158 79 l 25
 315 79 l 25
 315 394 l 25
 394 394 l 25
 394 0 l 25
 158 0 l 25
 158 79 l 25
 79 79 l 25
 79 394 l 25
EndSplineSet
EndChar

StartChar: v
Encoding: 118 118 86
Width: 469
VWidth: 0
Flags: W
HStem: 0 158<158 315> 158 236<79 158 315 394>
VStem: 79 79<158 394> 315 79<158 394>
LayerCount: 2
Back
SplineSet
78.76953125 393.845703125 m 29
 157.538085938 393.845703125 l 25
 157.538085938 157.538085938 l 25
 315.077148438 157.538085938 l 25
 315.077148438 393.845703125 l 25
 393.845703125 393.845703125 l 25
 393.845703125 157.538085938 l 25
 315.077148438 157.538085938 l 25
 315.077148438 0 l 25
 157.538085938 0 l 25
 157.538085938 157.538085938 l 25
 78.76953125 157.538085938 l 25
 78.76953125 393.845703125 l 29
EndSplineSet
Fore
SplineSet
79 394 m 25x70
 158 394 l 25x70
 158 158 l 25
 315 158 l 25xb0
 315 394 l 25
 394 394 l 25
 394 158 l 25x70
 315 158 l 25
 315 0 l 25
 158 0 l 25
 158 158 l 25xb0
 79 158 l 25
 79 394 l 25x70
EndSplineSet
EndChar

StartChar: w
Encoding: 119 119 87
Width: 469
VWidth: 0
Flags: W
HStem: 0 79<158 236 315 394> 378 16G<79 158 394 473>
VStem: 79 79<79 394> 236 79<79 315> 394 79<79 394>
CounterMasks: 1 38
LayerCount: 2
Back
SplineSet
78.76953125 393.845703125 m 29
 157.538085938 393.845703125 l 25
 157.538085938 78.76953125 l 25
 236.307617188 78.76953125 l 25
 236.307617188 315.077148438 l 25
 315.077148438 315.077148438 l 25
 315.077148438 78.76953125 l 25
 393.845703125 78.76953125 l 25
 393.845703125 393.845703125 l 25
 472.615234375 393.845703125 l 25
 472.615234375 0 l 25
 157.538085938 0 l 25
 157.538085938 78.76953125 l 25
 78.76953125 78.76953125 l 25
 78.76953125 393.845703125 l 29
EndSplineSet
Fore
SplineSet
79 394 m 25
 158 394 l 25
 158 79 l 25
 236 79 l 25
 236 315 l 25
 315 315 l 25
 315 79 l 25
 394 79 l 25
 394 394 l 25
 473 394 l 25
 473 0 l 25
 158 0 l 25
 158 79 l 25
 79 79 l 25
 79 394 l 25
EndSplineSet
EndChar

StartChar: x
Encoding: 120 120 88
Width: 469
VWidth: 0
Flags: W
HStem: 0 158<79 158 315 394> 236 158<79 158 315 394>
VStem: 79 79<0 158 236 394> 315 79<0 158 236 394>
LayerCount: 2
Back
SplineSet
78.76953125 393.845703125 m 29
 157.538085938 393.845703125 l 25
 157.538085938 236.307617188 l 25
 315.077148438 236.307617188 l 25
 315.077148438 393.845703125 l 25
 393.845703125 393.845703125 l 25
 393.845703125 236.307617188 l 25
 315.077148438 236.307617188 l 25
 315.077148438 157.538085938 l 25
 393.845703125 157.538085938 l 25
 393.845703125 0 l 25
 315.077148438 0 l 25
 315.077148438 157.538085938 l 25
 157.538085938 157.538085938 l 25
 157.538085938 0 l 25
 78.76953125 0 l 25
 78.76953125 157.538085938 l 25
 157.538085938 157.538085938 l 25
 157.538085938 236.307617188 l 25
 78.76953125 236.307617188 l 25
 78.76953125 393.845703125 l 29
EndSplineSet
Fore
SplineSet
79 394 m 25
 158 394 l 25
 158 236 l 25
 315 236 l 25
 315 394 l 25
 394 394 l 25
 394 236 l 25
 315 236 l 25
 315 158 l 25
 394 158 l 25
 394 0 l 25
 315 0 l 25
 315 158 l 25
 158 158 l 25
 158 0 l 25
 79 0 l 25
 79 158 l 25
 158 158 l 25
 158 236 l 25
 79 236 l 25
 79 394 l 25
EndSplineSet
EndChar

StartChar: y
Encoding: 121 121 89
Width: 469
VWidth: 0
Flags: W
HStem: -79 79<158 315> 79 79<158 315> 378 16G<79 158 315 394>
VStem: 79 79<158 394> 315 79<0 79 158 394>
LayerCount: 2
Back
SplineSet
78.76953125 393.845703125 m 29
 157.538085938 393.845703125 l 25
 157.538085938 157.538085938 l 25
 315.077148438 157.538085938 l 25
 315.077148438 393.845703125 l 25
 393.845703125 393.845703125 l 25
 393.845703125 0 l 25
 315.077148438 0 l 25
 315.077148438 -78.76953125 l 25
 157.538085938 -78.76953125 l 25
 157.538085938 0 l 25
 315.077148438 0 l 25
 315.077148438 78.76953125 l 25
 157.538085938 78.76953125 l 25
 157.538085938 157.538085938 l 25
 78.76953125 157.538085938 l 25
 78.76953125 393.845703125 l 29
EndSplineSet
Fore
SplineSet
79 394 m 25
 158 394 l 25
 158 158 l 25
 315 158 l 25
 315 394 l 25
 394 394 l 25
 394 0 l 25
 315 0 l 25
 315 -79 l 25
 158 -79 l 25
 158 0 l 25
 315 0 l 25
 315 79 l 25
 158 79 l 25
 158 158 l 25
 79 158 l 25
 79 394 l 25
EndSplineSet
EndChar

StartChar: z
Encoding: 122 122 90
Width: 469
VWidth: 0
Flags: W
HStem: 0 79<158 394> 158 79<158 315> 315 79<79 315>
VStem: 79 79<79 158> 315 79<236 315>
CounterMasks: 1 e0
LayerCount: 2
Back
SplineSet
78.76953125 393.845703125 m 29
 393.845703125 393.845703125 l 25
 393.845703125 236.307617188 l 25
 315.077148438 236.307617188 l 25
 315.077148438 157.538085938 l 25
 157.538085938 157.538085938 l 25
 157.538085938 78.76953125 l 25
 393.845703125 78.76953125 l 25
 393.845703125 0 l 25
 78.76953125 0 l 25
 78.76953125 157.538085938 l 25
 157.538085938 157.538085938 l 25
 157.538085938 236.307617188 l 25
 315.077148438 236.307617188 l 25
 315.077148438 315.077148438 l 25
 78.76953125 315.077148438 l 25
 78.76953125 393.845703125 l 29
EndSplineSet
Fore
SplineSet
79 394 m 25
 394 394 l 25
 394 236 l 25
 315 236 l 25
 315 158 l 25
 158 158 l 25
 158 79 l 25
 394 79 l 25
 394 0 l 25
 79 0 l 25
 79 158 l 25
 158 158 l 25
 158 236 l 25
 315 236 l 25
 315 315 l 25
 79 315 l 25
 79 394 l 25
EndSplineSet
EndChar

StartChar: braceleft
Encoding: 123 123 91
Width: 469
VWidth: 0
Flags: W
HStem: 0 79<315 394> 236 79<158 236> 473 79<315 394>
VStem: 158 79<236 315> 236 79<79 236 315 473> 315 79<0 79 473 551>
CounterMasks: 1 e0
LayerCount: 2
Back
SplineSet
315.077148438 551.384765625 m 29
 393.845703125 551.384765625 l 25
 393.845703125 472.615234375 l 25
 315.077148438 472.615234375 l 25
 315.077148438 315.077148438 l 25
 236.307617188 315.077148438 l 25
 236.307617188 236.307617188 l 25
 315.077148438 236.307617188 l 25
 315.077148438 78.76953125 l 25
 393.845703125 78.76953125 l 25
 393.845703125 0 l 25
 315.077148438 0 l 25
 315.077148438 78.76953125 l 25
 236.307617188 78.76953125 l 25
 236.307617188 236.307617188 l 25
 157.538085938 236.307617188 l 25
 157.538085938 315.077148438 l 25
 236.307617188 315.077148438 l 25
 236.307617188 472.615234375 l 25
 315.077148438 472.615234375 l 25
 315.077148438 551.384765625 l 29
EndSplineSet
Fore
SplineSet
315 551 m 25xe4
 394 551 l 25
 394 473 l 25xe4
 315 473 l 25
 315 315 l 25xe8
 236 315 l 25
 236 236 l 25xf0
 315 236 l 25
 315 79 l 25xe8
 394 79 l 25
 394 0 l 25
 315 0 l 25xe4
 315 79 l 25
 236 79 l 25xe8
 236 236 l 25
 158 236 l 25
 158 315 l 25
 236 315 l 25xf0
 236 473 l 25
 315 473 l 25xe8
 315 551 l 25xe4
EndSplineSet
EndChar

StartChar: bar
Encoding: 124 124 92
Width: 469
VWidth: 0
Flags: W
HStem: -79 16G<236 315> 457 16G<236 315>
VStem: 236 79<-79 473>
LayerCount: 2
Back
SplineSet
236.307617188 472.615234375 m 29
 315.077148438 472.615234375 l 25
 315.077148438 -78.76953125 l 25
 236.307617188 -78.76953125 l 25
 236.307617188 472.615234375 l 29
EndSplineSet
Fore
SplineSet
236 473 m 25
 315 473 l 25
 315 -79 l 25
 236 -79 l 25
 236 473 l 25
EndSplineSet
EndChar

StartChar: braceright
Encoding: 125 125 93
Width: 469
VWidth: 0
Flags: W
HStem: 0 79<79 158> 236 79<236 315> 473 79<79 158>
VStem: 79 79<0 79 473 551> 158 79<79 236 315 473> 236 79<236 315>
CounterMasks: 1 e0
LayerCount: 2
Back
SplineSet
78.76953125 551.384765625 m 29
 157.538085938 551.384765625 l 25
 157.538085938 472.615234375 l 25
 236.307617188 472.615234375 l 25
 236.307617188 315.077148438 l 25
 315.077148438 315.077148438 l 25
 315.077148438 236.307617188 l 25
 236.307617188 236.307617188 l 25
 236.307617188 78.76953125 l 25
 157.538085938 78.76953125 l 25
 157.538085938 0 l 25
 78.76953125 0 l 25
 78.76953125 78.76953125 l 25
 157.538085938 78.76953125 l 25
 157.538085938 236.307617188 l 25
 236.307617188 236.307617188 l 25
 236.307617188 315.077148438 l 25
 157.538085938 315.077148438 l 25
 157.538085938 472.615234375 l 25
 78.76953125 472.615234375 l 25
 78.76953125 551.384765625 l 29
EndSplineSet
Fore
SplineSet
79 551 m 25xf0
 158 551 l 25
 158 473 l 25xf0
 236 473 l 25
 236 315 l 25xe8
 315 315 l 25
 315 236 l 25xe4
 236 236 l 25
 236 79 l 25xe8
 158 79 l 25
 158 0 l 25
 79 0 l 25
 79 79 l 25
 158 79 l 25xf0
 158 236 l 25
 236 236 l 25
 236 315 l 25
 158 315 l 25xe8
 158 473 l 25
 79 473 l 25
 79 551 l 25xf0
EndSplineSet
EndChar

StartChar: asciitilde
Encoding: 126 126 94
Width: 469
VWidth: 0
Flags: W
HStem: 158 79<79 158 236 394> 236 79<158 236 394 473>
VStem: 79 79<158 236> 394 79<236 315>
LayerCount: 2
Back
SplineSet
78.76953125 236.307617188 m 29
 157.538085938 236.307617188 l 25
 157.538085938 315.077148438 l 25
 236.307617188 315.077148438 l 25
 236.307617188 236.307617188 l 25
 393.845703125 236.307617188 l 25
 393.845703125 315.077148438 l 25
 472.615234375 315.077148438 l 25
 472.615234375 236.307617188 l 25
 393.845703125 236.307617188 l 25
 393.845703125 157.538085938 l 25
 236.307617188 157.538085938 l 25
 236.307617188 236.307617188 l 25
 157.538085938 236.307617188 l 25
 157.538085938 157.538085938 l 25
 78.76953125 157.538085938 l 25
 78.76953125 236.307617188 l 29
EndSplineSet
Fore
SplineSet
79 236 m 25xb0
 158 236 l 25xb0
 158 315 l 25
 236 315 l 25x70
 236 236 l 25
 394 236 l 25xb0
 394 315 l 25
 473 315 l 25
 473 236 l 25x70
 394 236 l 25
 394 158 l 25
 236 158 l 25
 236 236 l 25
 158 236 l 25
 158 158 l 25
 79 158 l 25
 79 236 l 25xb0
EndSplineSet
EndChar

StartChar: exclamdown
Encoding: 161 161 96
Width: 469
VWidth: 0
Flags: W
HStem: -79 16G<236 315> 394 79<236 315>
VStem: 236 79<-79 315 394 473>
LayerCount: 2
Back
SplineSet
236.307617188 315.077148438 m 29
 315.077148438 315.077148438 l 25
 315.077148438 -78.76953125 l 25
 236.307617188 -78.76953125 l 25
 236.307617188 315.077148438 l 29
315.077148438 472.615234375 m 25
 315.077148438 393.845703125 l 25
 236.307617188 393.845703125 l 25
 236.307617188 472.615234375 l 25
 315.077148438 472.615234375 l 25
EndSplineSet
Fore
SplineSet
236 315 m 25
 315 315 l 25
 315 -79 l 25
 236 -79 l 25
 236 315 l 25
315 473 m 25
 315 394 l 25
 236 394 l 25
 236 473 l 25
 315 473 l 25
EndSplineSet
EndChar

StartChar: sterling
Encoding: 163 163 98
Width: 469
VWidth: 0
Flags: W
HStem: 0 79<79 158 236 473> 158 79<79 158 236 394> 394 79<236 473>
VStem: 158 79<79 158 236 394>
LayerCount: 2
Back
Fore
SplineSet
236 473 m 25
 473 473 l 25
 473 394 l 25
 236 394 l 25
 236 236 l 25
 394 236 l 25
 394 158 l 25
 236 158 l 25
 236 79 l 25
 473 79 l 25
 473 0 l 25
 79 0 l 25
 79 79 l 25
 158 79 l 25
 158 158 l 25
 79 158 l 25
 79 236 l 25
 158 236 l 25
 158 394 l 25
 236 394 l 25
 236 473 l 25
EndSplineSet
EndChar

StartChar: currency
Encoding: 256 164 99
Width: 469
VWidth: 0
Flags: W
HStem: 0 79<0 79 394 473> 394 79<0 79 394 473>
VStem: 0 79<0 79 394 473> 394 79<0 79 394 473>
LayerCount: 2
Back
Fore
SplineSet
158 315 m 25
 158 158 l 25
 315 158 l 25
 315 315 l 25
 158 315 l 25
0 473 m 25
 79 473 l 25
 79 394 l 25
 394 394 l 25
 394 473 l 25
 473 473 l 25
 473 394 l 25
 394 394 l 25
 394 79 l 25
 473 79 l 25
 473 0 l 25
 394 0 l 25
 394 79 l 25
 79 79 l 25
 79 0 l 25
 0 0 l 25
 0 79 l 25
 79 79 l 25
 79 394 l 25
 0 394 l 25
 0 473 l 25
EndSplineSet
EndChar

StartChar: yen
Encoding: 165 165 100
Width: 469
VWidth: 0
Flags: W
HStem: -79 16G<236 315> 0 79<158 236 315 394> 158 79<158 236 315 394> 315 79<158 236 315 394> 394 79<79 158 394 473>
VStem: 79 79<394 473> 158 79<315 394> 236 79<-79 0 79 158 236 315> 315 79<315 394> 394 79<394 473>
LayerCount: 2
Back
Fore
SplineSet
79 473 m 25xec
 158 473 l 25xec
 158 394 l 25xf4
 236 394 l 25
 236 315 l 25xf2
 315 315 l 25xf1
 315 394 l 25
 394 394 l 25xf080
 394 473 l 25
 473 473 l 25
 473 394 l 25xe840
 394 394 l 25
 394 315 l 25xf080
 315 315 l 25
 315 236 l 25
 394 236 l 25
 394 158 l 25
 315 158 l 25
 315 79 l 25
 394 79 l 25
 394 0 l 25
 315 0 l 25
 315 -79 l 25
 236 -79 l 25
 236 0 l 25xf140
 158 0 l 25
 158 79 l 25xf2
 236 79 l 25
 236 158 l 25xf1
 158 158 l 25
 158 236 l 25xf2
 236 236 l 25xf1
 236 315 l 25
 158 315 l 25xf2
 158 394 l 25xf4
 79 394 l 25
 79 473 l 25xec
EndSplineSet
EndChar

StartChar: brokenbar
Encoding: 257 166 101
Width: 469
VWidth: 0
Flags: W
HStem: -79 16G<236 315> 457 16G<236 315>
VStem: 236 79<-79 473>
LayerCount: 2
Back
Fore
SplineSet
236 473 m 25
 315 473 l 25
 315 -79 l 25
 236 -79 l 25
 236 473 l 25
EndSplineSet
EndChar

StartChar: section
Encoding: 167 167 102
Width: 469
VWidth: 0
Flags: W
HStem: -79 79<79 236> 79 79<158 236 315 394> 158 79<79 158 236 315> 315 79<236 394>
VStem: 79 79<158 236> 158 79<79 158 236 315> 236 79<0 79 158 236> 315 79<79 158>
LayerCount: 2
Back
Fore
SplineSet
158 394 m 25xb4
 394 394 l 25
 394 315 l 25
 236 315 l 25
 236 236 l 25xb5
 315 236 l 25xb2
 315 158 l 25xd2
 394 158 l 25
 394 79 l 25xd1
 315 79 l 25
 315 158 l 25xd2
 236 158 l 25xd4
 236 236 l 25xb4
 158 236 l 25xb8
 158 158 l 25xd8
 236 158 l 25
 236 79 l 25xd4
 315 79 l 25xd2
 315 -79 l 25xd1
 79 -79 l 25
 79 0 l 25
 236 0 l 25xda
 236 79 l 25
 158 79 l 25xd4
 158 158 l 25xd8
 79 158 l 25
 79 236 l 25
 158 236 l 25xb8
 158 394 l 25xb4
EndSplineSet
EndChar

StartChar: dieresis
Encoding: 258 168 103
Width: 469
VWidth: 0
Flags: W
HStem: 394 79<158 236 394 473>
VStem: 158 79<394 473> 394 79<394 473>
LayerCount: 2
Back
Fore
SplineSet
394 473 m 25
 473 473 l 25
 473 394 l 25
 394 394 l 25
 394 473 l 25
158 473 m 25
 236 473 l 25
 236 394 l 25
 158 394 l 25
 158 473 l 25
EndSplineSet
EndChar

StartChar: copyright
Encoding: 169 169 104
Width: 469
VWidth: 0
Flags: W
HStem: 0 79<158 315> 79 79<79 158 315 394> 158 79<158 315> 315 79<158 315> 394 79<79 158 315 394> 473 79<158 315>
VStem: 0 79<158 236 315 394> 79 79<79 158 394 473> 158 158<0 79 158 236 315 394 473 551> 315 79<79 158 394 473> 394 79<158 394>
LayerCount: 2
Back
Fore
SplineSet
158 551 m 25x0480
 315 551 l 25x0480
 315 473 l 25x0880
 158 473 l 25x09
 158 394 l 25x11
 79 394 l 25x0a
 79 315 l 25
 158 315 l 25
 158 236 l 25
 79 236 l 25x3280
 79 158 l 25x4280
 158 158 l 25x41
 158 79 l 25x81
 315 79 l 25x8080
 315 158 l 25x4080
 158 158 l 25x41
 158 236 l 25
 315 236 l 25x2080
 315 158 l 25x4080
 394 158 l 25
 394 394 l 25x4840
 315 394 l 25
 315 315 l 25
 158 315 l 25x1080
 158 394 l 25x11
 315 394 l 25x1080
 315 473 l 25x0880
 394 473 l 25
 394 394 l 25x0840
 473 394 l 25
 473 158 l 25x2820
 394 158 l 25
 394 79 l 25x4040
 315 79 l 25
 315 0 l 25
 158 0 l 25x8080
 158 79 l 25x81
 79 79 l 25x41
 79 158 l 25x42
 0 158 l 25
 0 394 l 25
 79 394 l 25x2a
 79 473 l 25
 158 473 l 25x29
 158 551 l 25x0480
EndSplineSet
EndChar

StartChar: ordfeminine
Encoding: 170 170 105
Width: 469
VWidth: 0
Flags: W
HStem: 79 79<158 236> 158 79<79 158> 236 79<158 236> 394 79<158 236>
VStem: 79 79<158 236> 158 79<394 473> 236 79<158 236 315 394>
LayerCount: 2
Back
Fore
SplineSet
158 473 m 25x34
 236 473 l 25
 236 394 l 25x34
 315 394 l 25
 315 79 l 25xb2
 158 79 l 25xb4
 158 158 l 25
 236 158 l 25
 236 236 l 25xba
 158 236 l 25x5a
 158 158 l 25x9a
 79 158 l 25
 79 236 l 25
 158 236 l 25x5a
 158 315 l 25x34
 236 315 l 25x32
 236 394 l 25
 158 394 l 25
 158 473 l 25x34
EndSplineSet
EndChar

StartChar: guillemotleft
Encoding: 171 171 106
Width: 469
VWidth: 0
Flags: W
HStem: 0 79<158 236 394 473> 79 79<79 158 315 394> 158 79<0 79 236 315> 236 79<79 158 315 394> 315 79<158 236 394 473>
VStem: 0 79<158 236> 79 79<79 158 236 315> 158 79<0 79 315 394> 236 79<158 236> 315 79<79 158 236 315> 394 79<0 79 315 394>
LayerCount: 2
Back
Fore
SplineSet
394 394 m 25x0820
 473 394 l 25
 473 315 l 25x0820
 394 315 l 25
 394 236 l 25x1040
 315 236 l 25x2080
 315 158 l 25x4080
 394 158 l 25x4040
 394 79 l 25x8040
 473 79 l 25
 473 0 l 25
 394 0 l 25x8020
 394 79 l 25x8040
 315 79 l 25x4040
 315 158 l 25x4080
 236 158 l 25
 236 236 l 25
 315 236 l 25x2080
 315 315 l 25
 394 315 l 25x1040
 394 394 l 25x0820
158 394 m 25x09
 236 394 l 25
 236 315 l 25x09
 158 315 l 25
 158 236 l 25x12
 79 236 l 25x24
 79 158 l 25x44
 158 158 l 25x42
 158 79 l 25x82
 236 79 l 25
 236 0 l 25
 158 0 l 25x81
 158 79 l 25x82
 79 79 l 25x42
 79 158 l 25x44
 0 158 l 25
 0 236 l 25
 79 236 l 25x24
 79 315 l 25
 158 315 l 25x12
 158 394 l 25x09
EndSplineSet
EndChar

StartChar: logicalnot
Encoding: 172 172 107
Width: 469
VWidth: 0
Flags: W
HStem: 0 16G<394 473> 158 79<79 394>
VStem: 394 79<0 158>
LayerCount: 2
Back
Fore
SplineSet
79 236 m 25
 473 236 l 25
 473 0 l 25
 394 0 l 25
 394 158 l 25
 79 158 l 25
 79 236 l 25
EndSplineSet
EndChar

StartChar: registered
Encoding: 174 174 108
Width: 469
VWidth: 0
Flags: W
HStem: 0 79<158 315> 79 79<79 158> 158 236<0 79 158 236 394 473> 394 79<79 158> 473 79<158 315>
VStem: 0 79<158 394> 79 79<79 158 394 473> 158 158<0 79 236 315 473 551> 158 79<158 236> 315 79<79 158 394 473> 394 79<236 315>
LayerCount: 2
Back
Fore
SplineSet
158 551 m 25x09
 315 551 l 25
 315 473 l 25x09
 158 473 l 25x12
 158 394 l 25x22
 79 394 l 25x24
 79 158 l 25x44
 158 158 l 25x42
 158 79 l 25x82
 315 79 l 25
 315 236 l 25
 394 236 l 25
 394 315 l 25
 315 315 l 25
 315 236 l 25x8120
 236 236 l 25
 236 158 l 25xa080
 158 158 l 25x42
 158 394 l 25x22
 315 394 l 25x1240
 315 473 l 25x09
 394 473 l 25
 394 394 l 25x2840
 473 394 l 25
 473 158 l 25x2820
 394 158 l 25x2840
 394 79 l 25x4040
 315 79 l 25
 315 0 l 25
 158 0 l 25x81
 158 79 l 25x82
 79 79 l 25x42
 79 158 l 25x44
 0 158 l 25
 0 394 l 25
 79 394 l 25x24
 79 473 l 25
 158 473 l 25x12
 158 551 l 25x09
EndSplineSet
EndChar

StartChar: macron
Encoding: 175 175 109
Width: 469
VWidth: 0
Flags: W
HStem: 394 79<158 394>
VStem: 158 236<394 473>
LayerCount: 2
Back
Fore
SplineSet
158 473 m 25
 394 473 l 25
 394 394 l 25
 158 394 l 25
 158 473 l 25
EndSplineSet
EndChar

StartChar: degree
Encoding: 176 176 110
Width: 469
VWidth: 0
Flags: W
HStem: 236 79<158 236> 315 79<79 158 236 315> 394 79<158 236>
VStem: 79 79<315 394> 158 79<236 315 394 473> 236 79<315 394>
LayerCount: 2
Back
Fore
SplineSet
158 473 m 25x28
 236 473 l 25x28
 236 394 l 25x48
 158 394 l 25x50
 158 315 l 25x90
 236 315 l 25x88
 236 394 l 25x48
 315 394 l 25
 315 315 l 25x44
 236 315 l 25
 236 236 l 25
 158 236 l 25x88
 158 315 l 25x90
 79 315 l 25
 79 394 l 25
 158 394 l 25x50
 158 473 l 25x28
EndSplineSet
EndChar

StartChar: plusminus
Encoding: 177 177 111
Width: 469
VWidth: 0
Flags: W
HStem: 79 79<158 394> 315 79<158 236 315 394> 457 16G<236 315>
VStem: 158 236<79 158 315 394> 236 79<236 315 394 473>
LayerCount: 2
Back
Fore
SplineSet
158 158 m 25xf0
 394 158 l 25
 394 79 l 25
 158 79 l 25
 158 158 l 25xf0
236 473 m 25xe8
 315 473 l 25
 315 394 l 25xe8
 394 394 l 25
 394 315 l 25xf0
 315 315 l 25
 315 236 l 25
 236 236 l 25
 236 315 l 25xe8
 158 315 l 25
 158 394 l 25xf0
 236 394 l 25
 236 473 l 25xe8
EndSplineSet
EndChar

StartChar: uni00B2
Encoding: 178 178 112
Width: 469
VWidth: 0
Flags: W
HStem: 236 79<79 158 236 315> 473 79<79 158> 551 79<158 236>
VStem: 79 79<473 551> 158 79<315 394 551 630> 236 79<394 551>
LayerCount: 2
Back
Fore
SplineSet
79 473 m 25xd0
 79 551 l 25
 158 551 l 25xd0
 158 630 l 25
 236 630 l 25
 236 551 l 25xa8
 315 551 l 25
 315 394 l 25xa4
 236 394 l 25
 236 315 l 25xa8
 315 315 l 25
 315 236 l 25
 79 236 l 25
 79 315 l 25xb4
 158 315 l 25
 158 394 l 25
 236 394 l 25
 236 551 l 25xa8
 158 551 l 25
 158 473 l 25
 79 473 l 25xd0
EndSplineSet
EndChar

StartChar: uni00B3
Encoding: 179 179 113
Width: 469
VWidth: 0
Flags: W
HStem: 236 79<79 236> 394 79<79 236> 551 79<79 236>
VStem: 79 158<236 315 394 473 551 630> 236 79<315 394 473 551>
CounterMasks: 1 e0
LayerCount: 2
Back
Fore
SplineSet
79 630 m 25xf0
 236 630 l 25
 236 551 l 25xf0
 315 551 l 25
 315 473 l 25xe8
 236 473 l 25
 236 394 l 25xf0
 315 394 l 25
 315 315 l 25xe8
 236 315 l 25
 236 236 l 25
 79 236 l 25
 79 315 l 25
 236 315 l 25
 236 394 l 25
 79 394 l 25
 79 473 l 25
 236 473 l 25
 236 551 l 25
 79 551 l 25
 79 630 l 25xf0
EndSplineSet
EndChar

StartChar: acute
Encoding: 259 180 114
Width: 469
VWidth: 0
Flags: W
HStem: 315 79<158 236> 536 16G<236 315>
VStem: 158 79<315 394> 236 79<394 551>
LayerCount: 2
Back
Fore
SplineSet
236 551 m 25xd0
 315 551 l 25
 315 394 l 25xd0
 236 394 l 25
 236 315 l 25
 158 315 l 25
 158 394 l 25
 236 394 l 25xe0
 236 551 l 25xd0
EndSplineSet
EndChar

StartChar: mu
Encoding: 181 181 115
Width: 469
VWidth: 0
Flags: W
HStem: 0 79<158 236> 79 79<236 315> 378 16G<79 158 315 394>
VStem: 79 79<-158 0 79 394> 315 79<0 79 158 394>
LayerCount: 2
Back
Fore
SplineSet
79 394 m 25xb8
 158 394 l 25
 158 79 l 25
 236 79 l 25xb8
 236 158 l 25
 315 158 l 25x78
 315 394 l 25
 394 394 l 25
 394 0 l 25
 315 0 l 25xb8
 315 79 l 25x78
 236 79 l 25
 236 0 l 25
 158 0 l 25
 158 -158 l 25
 79 -158 l 25
 79 394 l 25xb8
EndSplineSet
EndChar

StartChar: paragraph
Encoding: 182 182 116
Width: 469
VWidth: 0
Flags: W
HStem: -79 16G<158 236 315 394> 394 79<236 315>
VStem: 0 236<236 394> 158 79<-79 158> 315 79<-79 394>
LayerCount: 2
Back
Fore
SplineSet
0 394 m 25xe8
 79 394 l 25
 79 473 l 25
 394 473 l 25
 394 -79 l 25
 315 -79 l 25
 315 394 l 25
 236 394 l 25xe8
 236 -79 l 25
 158 -79 l 25
 158 158 l 25xd8
 79 158 l 25
 79 236 l 25
 0 236 l 25
 0 394 l 25xe8
EndSplineSet
EndChar

StartChar: periodcentered
Encoding: 183 183 117
Width: 469
VWidth: 0
Flags: W
HStem: 79 158<158 315>
VStem: 158 158<79 236>
LayerCount: 2
Back
Fore
SplineSet
158 236 m 25
 315 236 l 25
 315 79 l 25
 158 79 l 25
 158 236 l 25
EndSplineSet
EndChar

StartChar: cedilla
Encoding: 260 184 118
Width: 469
VWidth: 0
Flags: W
HStem: -158 79<158 315> 0 79<236 315>
VStem: 236 79<0 79> 315 79<-79 0>
LayerCount: 2
Back
Fore
SplineSet
236 79 m 25xe0
 315 79 l 25
 315 0 l 25xe0
 394 0 l 25
 394 -158 l 25
 158 -158 l 25
 158 -79 l 25
 315 -79 l 25xd0
 315 0 l 25
 236 0 l 25
 236 79 l 25xe0
EndSplineSet
EndChar

StartChar: uni00B9
Encoding: 185 185 119
Width: 469
VWidth: 0
Flags: W
HStem: 315 79<79 158> 457 16G<158 236>
VStem: 158 79<79 315 394 473>
LayerCount: 2
Back
Fore
SplineSet
79 394 m 25
 158 394 l 25
 158 473 l 25
 236 473 l 25
 236 79 l 25
 158 79 l 25
 158 315 l 25
 79 315 l 25
 79 394 l 25
EndSplineSet
EndChar

StartChar: ordmasculine
Encoding: 186 186 120
Width: 469
VWidth: 0
Flags: W
HStem: 158 79<158 315> 236 158<79 158 315 394> 394 79<158 315>
VStem: 79 79<236 394> 158 158<158 236 394 473> 315 79<236 394>
LayerCount: 2
Back
Fore
SplineSet
158 473 m 25x28
 315 473 l 25x28
 315 394 l 25x48
 394 394 l 25
 394 236 l 25x44
 315 236 l 25
 315 158 l 25
 158 158 l 25x88
 158 236 l 25x90
 315 236 l 25x88
 315 394 l 25x48
 158 394 l 25x50
 158 236 l 25x90
 79 236 l 25
 79 394 l 25
 158 394 l 25x50
 158 473 l 25x28
EndSplineSet
EndChar

StartChar: guillemotright
Encoding: 187 187 121
Width: 469
VWidth: 0
Flags: W
HStem: 0 79<0 79 236 315> 79 79<79 158 315 394> 158 79<158 236 394 473> 236 79<79 158 315 394> 315 79<0 79 236 315>
VStem: 0 79<0 79 315 394> 79 79<79 158 236 315> 158 79<158 236> 236 79<0 79 315 394> 315 79<79 158 236 315> 394 79<158 236>
LayerCount: 2
Back
Fore
SplineSet
236 394 m 25x0880
 315 394 l 25x0880
 315 315 l 25x1080
 394 315 l 25x1040
 394 236 l 25x2040
 473 236 l 25
 473 158 l 25x2020
 394 158 l 25
 394 79 l 25x4040
 315 79 l 25
 315 0 l 25
 236 0 l 25
 236 79 l 25
 315 79 l 25x8080
 315 158 l 25
 394 158 l 25x4040
 394 236 l 25x2040
 315 236 l 25x1040
 315 315 l 25x1080
 236 315 l 25
 236 394 l 25x0880
0 394 m 25x0c
 79 394 l 25x0c
 79 315 l 25x14
 158 315 l 25x12
 158 236 l 25x22
 236 236 l 25
 236 158 l 25x21
 158 158 l 25
 158 79 l 25x42
 79 79 l 25
 79 0 l 25
 0 0 l 25
 0 79 l 25
 79 79 l 25x84
 79 158 l 25
 158 158 l 25x42
 158 236 l 25x22
 79 236 l 25x12
 79 315 l 25x14
 0 315 l 25
 0 394 l 25x0c
EndSplineSet
EndChar

StartChar: onequarter
Encoding: 261 188 122
Width: 469
VWidth: 0
Flags: W
HStem: -79 16G<315 394> 0 79<236 315 394 473> 79 79<0 79> 158 79<79 158 236 315> 236 79<158 236> 315 79<236 315> 394 79<315 394> 473 79<0 79>
VStem: 0 79<79 158> 79 79<158 236 315 473 551 630> 158 79<79 158 236 315> 236 79<315 394> 315 79<-79 0 79 158 236 315 394 473>
LayerCount: 2
Back
Fore
SplineSet
0 551 m 25x8580
 79 551 l 25
 79 630 l 25
 158 630 l 25
 158 315 l 25x8940
 236 315 l 25x8920
 236 394 l 25
 315 394 l 25x8410
 315 473 l 25
 394 473 l 25
 394 394 l 25x8208
 315 394 l 25
 315 315 l 25x8410
 394 315 l 25
 394 79 l 25
 473 79 l 25
 473 0 l 25
 394 0 l 25
 394 -79 l 25
 315 -79 l 25
 315 0 l 25
 158 0 l 25xc428
 158 158 l 25xd440
 236 158 l 25
 236 79 l 25
 315 79 l 25
 315 158 l 25
 236 158 l 25
 236 236 l 25
 315 236 l 25xd428
 315 315 l 25xd410
 236 315 l 25x8820
 236 236 l 25x9020
 158 236 l 25
 158 158 l 25x9040
 79 158 l 25
 79 79 l 25
 0 79 l 25
 0 158 l 25
 79 158 l 25xa080
 79 236 l 25
 158 236 l 25x9040
 158 315 l 25x8840
 79 315 l 25
 79 473 l 25x8540
 0 473 l 25
 0 551 l 25x8580
EndSplineSet
EndChar

StartChar: onehalf
Encoding: 262 189 123
Width: 469
VWidth: 0
Flags: W
HStem: 0 79<236 315 394 473> 79 79<0 79> 158 79<79 158 394 473> 236 79<158 236 315 394> 394 79<315 394> 473 79<0 79>
VStem: 0 79<79 158> 79 79<158 236 315 473 551 630> 236 79<315 394> 315 79<79 158 394 473> 394 79<158 236>
LayerCount: 2
Back
Fore
SplineSet
0 551 m 25x16
 79 551 l 25x15
 79 630 l 25
 158 630 l 25
 158 315 l 25
 236 315 l 25
 236 394 l 25
 315 394 l 25x1980
 315 473 l 25
 394 473 l 25
 394 394 l 25x1840
 315 394 l 25
 315 315 l 25
 394 315 l 25x18a0
 394 236 l 25
 473 236 l 25
 473 158 l 25x20a0
 394 158 l 25
 394 79 l 25xa040
 473 79 l 25
 473 0 l 25
 236 0 l 25
 236 79 l 25xa0a0
 315 79 l 25
 315 158 l 25
 394 158 l 25xa040
 394 236 l 25
 158 236 l 25
 158 158 l 25xa120
 79 158 l 25
 79 79 l 25
 0 79 l 25
 0 158 l 25
 79 158 l 25x42
 79 236 l 25
 158 236 l 25x21
 158 315 l 25
 79 315 l 25
 79 473 l 25x15
 0 473 l 25
 0 551 l 25x16
EndSplineSet
EndChar

StartChar: threequarters
Encoding: 263 190 124
Width: 469
VWidth: 0
Flags: W
HStem: -79 16G<315 394> 0 79<236 315 394 473> 79 79<0 79> 158 79<79 158 236 315> 315 79<0 158 236 315> 394 79<315 394> 551 79<0 79>
VStem: 0 79<79 158> 79 79<158 236> 158 79<79 158 236 315 394 473> 315 79<-79 0 79 158 236 315 394 473>
LayerCount: 2
Back
Fore
SplineSet
0 630 m 25x8720
 236 630 l 25
 236 394 l 25
 315 394 l 25x8b60
 315 473 l 25
 394 473 l 25
 394 394 l 25x8760
 315 394 l 25
 315 315 l 25
 394 315 l 25
 394 79 l 25
 473 79 l 25
 473 0 l 25
 394 0 l 25
 394 -79 l 25
 315 -79 l 25
 315 0 l 25
 158 0 l 25xcb60
 158 158 l 25xdaa0
 236 158 l 25
 236 79 l 25
 315 79 l 25
 315 158 l 25
 236 158 l 25
 236 236 l 25
 315 236 l 25
 315 315 l 25
 236 315 l 25
 236 236 l 25xda60
 158 236 l 25
 158 158 l 25xdaa0
 79 158 l 25
 79 79 l 25
 0 79 l 25
 0 158 l 25
 79 158 l 25xa320
 79 236 l 25
 158 236 l 25x92a0
 158 315 l 25
 0 315 l 25
 0 394 l 25
 158 394 l 25x9b60
 158 473 l 25x8760
 79 473 l 25
 79 551 l 25x86a0
 0 551 l 25
 0 630 l 25x8720
EndSplineSet
EndChar

StartChar: questiondown
Encoding: 191 191 125
Width: 469
VWidth: 0
Flags: W
HStem: -79 79<158 315> 0 79<315 394> 158 79<158 236> 236 79<236 315> 394 79<236 315>
VStem: 79 79<0 158> 158 79<158 236> 236 79<236 315 394 473> 315 79<0 79>
LayerCount: 2
Back
Fore
SplineSet
236 315 m 25x19
 315 315 l 25
 315 236 l 25x19
 236 236 l 25
 236 158 l 25x2a
 158 158 l 25
 158 0 l 25
 315 0 l 25xac80
 315 79 l 25
 394 79 l 25
 394 0 l 25x4c80
 315 0 l 25
 315 -79 l 25
 158 -79 l 25x8a80
 158 0 l 25x8c
 79 0 l 25
 79 158 l 25
 158 158 l 25x6c
 158 236 l 25
 236 236 l 25x6a
 236 315 l 25x19
236 473 m 25
 315 473 l 25
 315 394 l 25
 236 394 l 25
 236 473 l 25
EndSplineSet
EndChar

StartChar: Agrave
Encoding: 192 192 126
Width: 469
VWidth: 0
Flags: W
HStem: 0 16G<79 158 315 394> 158 79<158 315> 378 16G<79 158> 394 79<158 236> 551 79<158 236>
VStem: 79 79<0 158 236 394> 158 79<551 630> 236 79<473 551> 315 79<0 158 236 394>
LayerCount: 2
Back
Fore
SplineSet
158 630 m 25xda
 236 630 l 25
 236 551 l 25xda
 315 551 l 25xd9
 315 394 l 25
 394 394 l 25xd880
 394 0 l 25
 315 0 l 25
 315 158 l 25
 158 158 l 25
 158 0 l 25
 79 0 l 25
 79 394 l 25
 158 394 l 25xec80
 158 236 l 25
 315 236 l 25
 315 394 l 25xdc80
 158 394 l 25xec80
 158 473 l 25xda
 236 473 l 25xd9
 236 551 l 25
 158 551 l 25
 158 630 l 25xda
EndSplineSet
EndChar

StartChar: Aacute
Encoding: 193 193 127
Width: 469
VWidth: 0
Flags: W
HStem: 0 16G<79 158 315 394> 158 79<158 315> 378 16G<79 158> 394 79<158 236> 551 79<315 394>
VStem: 79 79<0 158 236 394> 236 79<473 551> 315 79<0 158 236 394 551 630>
LayerCount: 2
Back
Fore
SplineSet
315 630 m 25xdd
 394 630 l 25
 394 551 l 25xdd
 315 551 l 25xde
 315 394 l 25
 394 394 l 25xdd
 394 0 l 25
 315 0 l 25
 315 158 l 25
 158 158 l 25
 158 0 l 25
 79 0 l 25
 79 394 l 25
 158 394 l 25xed
 158 236 l 25
 315 236 l 25
 315 394 l 25xdd
 158 394 l 25xed
 158 473 l 25
 236 473 l 25
 236 551 l 25
 315 551 l 25xde
 315 630 l 25xdd
EndSplineSet
EndChar

StartChar: Acircumflex
Encoding: 194 194 128
Width: 469
VWidth: 0
Flags: W
HStem: 0 16G<79 158 315 394> 158 79<158 315> 378 16G<315 394> 394 79<158 315> 473 79<79 158 315 394> 551 79<158 315>
VStem: 79 79<0 158 236 394 473 551> 158 158<394 473 551 630> 315 79<0 158 236 394 473 551>
LayerCount: 2
Back
Fore
SplineSet
79 473 m 25xca80
 79 551 l 25
 158 551 l 25xca80
 158 630 l 25
 315 630 l 25xc5
 315 551 l 25xc9
 158 551 l 25xca
 158 473 l 25xd2
 315 473 l 25xd1
 315 551 l 25xc9
 394 551 l 25
 394 473 l 25xc880
 315 473 l 25xd1
 315 394 l 25xe1
 158 394 l 25
 158 236 l 25
 315 236 l 25xd280
 315 394 l 25xe1
 394 394 l 25xe080
 394 0 l 25
 315 0 l 25
 315 158 l 25
 158 158 l 25
 158 0 l 25
 79 0 l 25
 79 394 l 25
 158 394 l 25
 158 473 l 25xd280
 79 473 l 25xca80
EndSplineSet
EndChar

StartChar: Atilde
Encoding: 195 195 129
Width: 469
VWidth: 0
Flags: W
HStem: 0 16G<79 158 315 394> 158 79<158 315> 378 16G<315 394> 394 79<158 236> 473 79<79 158> 551 79<158 236 315 394>
VStem: 79 79<0 158 236 394 473 551> 158 79<551 630> 236 79<473 551> 315 79<0 158 236 394 551 630>
LayerCount: 2
Back
Fore
SplineSet
79 473 m 25xca40
 79 551 l 25
 158 551 l 25xca40
 158 473 l 25
 236 473 l 25xd280
 236 551 l 25xd5
 158 551 l 25xca
 158 630 l 25
 236 630 l 25
 236 551 l 25xc5
 315 551 l 25xc480
 315 630 l 25
 394 630 l 25
 394 551 l 25xc440
 315 551 l 25xc480
 315 394 l 25xe440
 158 394 l 25xd240
 158 236 l 25
 315 236 l 25
 315 394 l 25
 394 394 l 25xe240
 394 0 l 25
 315 0 l 25
 315 158 l 25
 158 158 l 25
 158 0 l 25
 79 0 l 25
 79 394 l 25
 158 394 l 25
 158 473 l 25xd240
 79 473 l 25xca40
EndSplineSet
EndChar

StartChar: Adieresis
Encoding: 196 196 130
Width: 469
VWidth: 0
Flags: W
HStem: 0 16G<79 158 315 394> 158 79<158 315> 378 16G<79 158> 394 79<158 315> 551 79<79 158 315 394>
VStem: 79 79<0 158 236 394 551 630> 315 79<0 158 236 394 551 630>
LayerCount: 2
Back
Fore
SplineSet
158 473 m 25xde
 315 473 l 25
 315 394 l 25
 394 394 l 25xde
 394 0 l 25
 315 0 l 25
 315 158 l 25
 158 158 l 25
 158 0 l 25
 79 0 l 25
 79 394 l 25
 158 394 l 25xee
 158 236 l 25
 315 236 l 25
 315 394 l 25xde
 158 394 l 25xee
 158 473 l 25xde
315 630 m 25
 394 630 l 25
 394 551 l 25
 315 551 l 25
 315 630 l 25
79 630 m 25
 158 630 l 25
 158 551 l 25
 79 551 l 25
 79 630 l 25
EndSplineSet
EndChar

StartChar: Aring
Encoding: 197 197 131
Width: 469
VWidth: 0
Flags: W
HStem: 0 16G<79 158 315 394> 158 79<158 315> 378 16G<315 394> 394 79<158 236> 551 79<158 236 315 394> 630 79<236 315>
VStem: 79 79<0 158 236 394> 158 79<551 630> 236 79<473 551 630 709> 315 79<0 158 236 394 551 630>
LayerCount: 2
Back
Fore
SplineSet
158 630 m 25xd9
 236 630 l 25xd9
 236 709 l 25
 315 709 l 25xc480
 315 630 l 25xc880
 236 630 l 25
 236 551 l 25xc9
 315 551 l 25
 315 630 l 25xc880
 394 630 l 25
 394 551 l 25xc840
 315 551 l 25xc880
 315 394 l 25xe840
 158 394 l 25xd240
 158 236 l 25
 315 236 l 25
 315 394 l 25
 394 394 l 25xe240
 394 0 l 25
 315 0 l 25
 315 158 l 25
 158 158 l 25
 158 0 l 25
 79 0 l 25
 79 394 l 25
 158 394 l 25xd240
 158 473 l 25xd1
 236 473 l 25xd080
 236 551 l 25
 158 551 l 25
 158 630 l 25xd9
EndSplineSet
EndChar

StartChar: AE
Encoding: 198 198 132
Width: 469
VWidth: 0
Flags: W
HStem: 0 79<315 473> 158 79<79 236> 236 79<315 394> 394 79<79 236 315 473>
VStem: 0 79<0 158 236 394> 236 79<79 158 315 394>
LayerCount: 2
Back
Fore
SplineSet
0 394 m 25xdc
 79 394 l 25
 79 473 l 25
 236 473 l 25
 236 394 l 25
 79 394 l 25
 79 236 l 25
 236 236 l 25xdc
 236 394 l 25
 315 394 l 25
 315 473 l 25
 473 473 l 25
 473 394 l 25
 315 394 l 25
 315 315 l 25
 394 315 l 25
 394 236 l 25
 315 236 l 25xbc
 315 79 l 25
 473 79 l 25
 473 0 l 25
 236 0 l 25
 236 158 l 25
 79 158 l 25
 79 0 l 25
 0 0 l 25
 0 394 l 25xdc
EndSplineSet
EndChar

StartChar: Ccedilla
Encoding: 199 199 133
Width: 469
VWidth: 0
Flags: W
HStem: -158 79<158 236> 0 79<158 236 315 394> 394 79<158 394>
VStem: 79 79<79 394> 158 236<0 79 394 473> 158 79<-158 -79> 236 79<-79 0>
LayerCount: 2
Back
Fore
SplineSet
158 473 m 25xe8
 394 473 l 25
 394 394 l 25xe8
 158 394 l 25
 158 79 l 25xf0
 394 79 l 25
 394 0 l 25xe8
 315 0 l 25
 315 -79 l 25xe2
 236 -79 l 25
 236 -158 l 25
 158 -158 l 25
 158 -79 l 25
 236 -79 l 25xe4
 236 0 l 25xe2
 158 0 l 25xe8
 158 79 l 25
 79 79 l 25
 79 394 l 25
 158 394 l 25xf0
 158 473 l 25xe8
EndSplineSet
EndChar

StartChar: Egrave
Encoding: 200 200 134
Width: 469
VWidth: 0
Flags: W
HStem: 0 79<158 394> 236 79<158 315> 394 79<158 236 315 394> 551 79<158 236>
VStem: 79 79<79 236 315 394> 158 79<551 630> 236 79<473 551>
LayerCount: 2
Back
Fore
SplineSet
158 630 m 25xf4
 236 630 l 25
 236 551 l 25xf4
 315 551 l 25
 315 473 l 25
 394 473 l 25
 394 394 l 25
 158 394 l 25
 158 315 l 25
 315 315 l 25
 315 236 l 25
 158 236 l 25
 158 79 l 25
 394 79 l 25
 394 0 l 25
 79 0 l 25
 79 473 l 25
 236 473 l 25xfa
 236 551 l 25
 158 551 l 25
 158 630 l 25xf4
EndSplineSet
EndChar

StartChar: Eacute
Encoding: 201 201 135
Width: 469
VWidth: 0
Flags: W
HStem: 0 79<158 394> 236 79<158 315> 394 79<236 394> 551 79<236 315>
VStem: 79 79<79 236 315 394> 158 79<473 551> 236 79<551 630>
LayerCount: 2
Back
Fore
SplineSet
236 630 m 25xf2
 315 630 l 25
 315 551 l 25xf2
 236 551 l 25
 236 473 l 25xf4
 394 473 l 25
 394 394 l 25
 158 394 l 25
 158 315 l 25
 315 315 l 25
 315 236 l 25
 158 236 l 25
 158 79 l 25
 394 79 l 25
 394 0 l 25
 79 0 l 25
 79 473 l 25xfa
 158 473 l 25
 158 551 l 25
 236 551 l 25xf4
 236 630 l 25xf2
EndSplineSet
EndChar

StartChar: Ecircumflex
Encoding: 202 202 136
Width: 469
VWidth: 0
Flags: W
HStem: 0 79<158 394> 236 79<158 315> 394 79<158 315> 473 79<79 158> 551 79<158 315>
VStem: 79 79<79 236 315 394 473 551> 315 79<473 551>
LayerCount: 2
Back
Fore
SplineSet
79 551 m 25xd6
 158 551 l 25xd6
 158 630 l 25
 315 630 l 25
 315 551 l 25xce
 158 551 l 25xd6
 158 473 l 25
 315 473 l 25
 315 551 l 25
 394 551 l 25
 394 394 l 25
 158 394 l 25
 158 315 l 25
 315 315 l 25
 315 236 l 25
 158 236 l 25
 158 79 l 25
 394 79 l 25
 394 0 l 25
 79 0 l 25
 79 394 l 25
 158 394 l 25
 158 473 l 25xee
 79 473 l 25
 79 551 l 25xd6
EndSplineSet
EndChar

StartChar: Edieresis
Encoding: 203 203 137
Width: 469
VWidth: 0
Flags: W
HStem: 0 79<158 394> 236 79<158 315> 394 79<158 394> 551 79<79 158 315 394>
VStem: 79 79<79 236 315 394 551 630> 315 79<551 630>
LayerCount: 2
Back
Fore
SplineSet
79 473 m 25
 394 473 l 25
 394 394 l 25
 158 394 l 25
 158 315 l 25
 315 315 l 25
 315 236 l 25
 158 236 l 25
 158 79 l 25
 394 79 l 25
 394 0 l 25
 79 0 l 25
 79 473 l 25
315 630 m 25
 394 630 l 25
 394 551 l 25
 315 551 l 25
 315 630 l 25
79 630 m 25
 158 630 l 25
 158 551 l 25
 79 551 l 25
 79 630 l 25
EndSplineSet
EndChar

StartChar: Igrave
Encoding: 204 204 138
Width: 469
VWidth: 0
Flags: W
HStem: 0 79<158 236 315 394> 394 79<158 236 315 394> 551 79<158 236>
VStem: 158 236<0 79 394 473> 158 79<551 630> 236 79<79 394 473 551>
LayerCount: 2
Back
Fore
SplineSet
158 630 m 25xe8
 236 630 l 25
 236 551 l 25xe8
 315 551 l 25
 315 473 l 25xe4
 394 473 l 25
 394 394 l 25xf0
 315 394 l 25
 315 79 l 25xe4
 394 79 l 25
 394 0 l 25
 158 0 l 25
 158 79 l 25xf0
 236 79 l 25
 236 394 l 25xe4
 158 394 l 25
 158 473 l 25xf0
 236 473 l 25xe4
 236 551 l 25
 158 551 l 25
 158 630 l 25xe8
EndSplineSet
EndChar

StartChar: Iacute
Encoding: 205 205 139
Width: 469
VWidth: 0
Flags: W
HStem: 0 79<158 236 315 394> 394 79<158 236 315 394> 551 79<315 394>
VStem: 158 236<0 79 394 473> 236 79<79 394 473 551> 315 79<551 630>
LayerCount: 2
Back
Fore
SplineSet
315 630 m 25xe4
 394 630 l 25
 394 551 l 25xe4
 315 551 l 25
 315 473 l 25xe8
 394 473 l 25
 394 394 l 25xf0
 315 394 l 25
 315 79 l 25xe8
 394 79 l 25
 394 0 l 25
 158 0 l 25
 158 79 l 25xf0
 236 79 l 25
 236 394 l 25xe8
 158 394 l 25
 158 473 l 25xf0
 236 473 l 25
 236 551 l 25
 315 551 l 25xe8
 315 630 l 25xe4
EndSplineSet
EndChar

StartChar: Icircumflex
Encoding: 206 206 140
Width: 469
VWidth: 0
Flags: W
HStem: 0 79<158 236 315 394> 315 79<158 236 315 394> 473 79<158 236 315 394> 551 79<236 315>
VStem: 158 79<473 551> 236 79<79 315 551 630> 315 79<473 551>
LayerCount: 2
Back
Fore
SplineSet
158 394 m 25xc8
 394 394 l 25
 394 315 l 25xca
 315 315 l 25
 315 79 l 25xc4
 394 79 l 25
 394 0 l 25
 158 0 l 25
 158 79 l 25xca
 236 79 l 25
 236 315 l 25xc4
 158 315 l 25
 158 394 l 25xc8
158 551 m 25xe8
 236 551 l 25xe8
 236 630 l 25
 315 630 l 25xd4
 315 551 l 25xe4
 394 551 l 25
 394 473 l 25
 315 473 l 25xe2
 315 551 l 25xe4
 236 551 l 25
 236 473 l 25
 158 473 l 25
 158 551 l 25xe8
EndSplineSet
EndChar

StartChar: Idieresis
Encoding: 207 207 141
Width: 469
VWidth: 0
Flags: W
HStem: 0 79<158 236 315 394> 394 79<158 236 315 394> 551 79<158 236 315 394>
VStem: 158 79<551 630> 315 79<551 630>
LayerCount: 2
Back
Fore
SplineSet
158 473 m 25
 394 473 l 25
 394 394 l 25
 315 394 l 25
 315 79 l 25
 394 79 l 25
 394 0 l 25
 158 0 l 25
 158 79 l 25
 236 79 l 25
 236 394 l 25
 158 394 l 25
 158 473 l 25
315 630 m 25
 394 630 l 25
 394 551 l 25
 315 551 l 25
 315 630 l 25
158 630 m 25
 236 630 l 25
 236 551 l 25
 158 551 l 25
 158 630 l 25
EndSplineSet
EndChar

StartChar: Eth
Encoding: 208 208 142
Width: 469
VWidth: 0
Flags: W
HStem: 0 79<236 394> 236 79<79 158 236 315> 378 16G<394 473> 394 79<236 394>
VStem: 158 236<0 79 394 473> 158 79<79 236 315 394> 394 79<79 394>
LayerCount: 2
Back
Fore
SplineSet
79 315 m 25xe4
 158 315 l 25xe4
 158 473 l 25
 394 473 l 25xd8
 394 394 l 25xe8
 236 394 l 25
 236 315 l 25
 315 315 l 25
 315 236 l 25
 236 236 l 25
 236 79 l 25xd4
 394 79 l 25
 394 394 l 25xe8
 473 394 l 25
 473 79 l 25xe2
 394 79 l 25
 394 0 l 25
 158 0 l 25xe8
 158 236 l 25
 79 236 l 25
 79 315 l 25xe4
EndSplineSet
EndChar

StartChar: Ntilde
Encoding: 209 209 143
Width: 469
VWidth: 0
Flags: W
HStem: 0 16G<79 158 315 394> 158 79<236 315> 236 79<158 236> 457 16G<315 394> 473 79<236 315> 551 79<158 236 315 394>
VStem: 79 79<0 236 315 551> 158 79<551 630> 236 79<473 551> 315 79<0 158 236 473 551 630>
LayerCount: 2
Back
Fore
SplineSet
79 0 m 25xa280
 79 551 l 25
 158 551 l 25xa680
 158 630 l 25
 236 630 l 25xa5
 236 551 l 25x89
 315 551 l 25x8880
 315 630 l 25
 394 630 l 25
 394 551 l 25x8440
 315 551 l 25x8880
 315 473 l 25x9080
 236 473 l 25x8880
 236 551 l 25x89
 158 551 l 25
 158 315 l 25
 236 315 l 25xa680
 236 236 l 25xc280
 315 236 l 25xc040
 315 473 l 25xd080
 394 473 l 25
 394 0 l 25
 315 0 l 25
 315 158 l 25xd040
 236 158 l 25
 236 236 l 25xd080
 158 236 l 25
 158 0 l 25
 79 0 l 25xa280
EndSplineSet
EndChar

StartChar: Ograve
Encoding: 210 210 144
Width: 469
VWidth: 0
Flags: W
HStem: 0 79<158 315> 378 16G<315 394> 394 79<158 236> 551 79<158 236>
VStem: 79 79<79 394> 158 79<551 630> 236 79<473 551> 315 79<79 394>
LayerCount: 2
Back
Fore
SplineSet
158 630 m 25xb4
 236 630 l 25
 236 551 l 25xb4
 315 551 l 25xb2
 315 394 l 25xd1
 158 394 l 25
 158 79 l 25xb9
 315 79 l 25
 315 394 l 25
 394 394 l 25
 394 79 l 25
 315 79 l 25
 315 0 l 25
 158 0 l 25xd5
 158 79 l 25
 79 79 l 25
 79 394 l 25
 158 394 l 25xb8
 158 473 l 25xb4
 236 473 l 25xb2
 236 551 l 25
 158 551 l 25
 158 630 l 25xb4
EndSplineSet
EndChar

StartChar: Oacute
Encoding: 211 211 145
Width: 469
VWidth: 0
Flags: W
HStem: 0 79<158 315> 378 16G<315 394> 394 79<236 315> 551 79<236 315>
VStem: 79 79<79 394> 158 79<473 551> 236 79<551 630> 315 79<79 394>
LayerCount: 2
Back
Fore
SplineSet
236 630 m 25xb2
 315 630 l 25
 315 551 l 25xb2
 236 551 l 25
 236 473 l 25
 315 473 l 25xb5
 315 394 l 25xd5
 158 394 l 25
 158 79 l 25xb9
 315 79 l 25
 315 394 l 25
 394 394 l 25
 394 79 l 25
 315 79 l 25
 315 0 l 25
 158 0 l 25xd5
 158 79 l 25
 79 79 l 25
 79 394 l 25
 158 394 l 25xb8
 158 551 l 25
 236 551 l 25xb4
 236 630 l 25xb2
EndSplineSet
EndChar

StartChar: Ocircumflex
Encoding: 212 212 146
Width: 469
VWidth: 0
Flags: W
HStem: 0 79<158 315> 378 16G<315 394> 394 79<158 315> 473 79<79 158 315 394> 551 79<158 315>
VStem: 79 79<79 394 473 551> 158 158<0 79 394 473 551 630> 315 79<79 394 473 551>
LayerCount: 2
Back
Fore
SplineSet
158 630 m 25x8a
 315 630 l 25x8a
 315 551 l 25x92
 158 551 l 25x94
 158 473 l 25xa4
 315 473 l 25xa2
 315 551 l 25x92
 394 551 l 25
 394 473 l 25x91
 315 473 l 25xa2
 315 394 l 25xc2
 158 394 l 25
 158 79 l 25xa4
 315 79 l 25
 315 394 l 25xc2
 394 394 l 25
 394 79 l 25xc1
 315 79 l 25
 315 0 l 25
 158 0 l 25xc2
 158 79 l 25
 79 79 l 25
 79 394 l 25
 158 394 l 25
 158 473 l 25xa4
 79 473 l 25
 79 551 l 25
 158 551 l 25x94
 158 630 l 25x8a
EndSplineSet
EndChar

StartChar: Otilde
Encoding: 213 213 147
Width: 469
VWidth: 0
Flags: W
HStem: 0 79<158 315> 378 16G<315 394> 394 79<158 236> 473 79<79 158> 551 79<158 236 315 394>
VStem: 79 79<79 394 473 551> 158 79<551 630> 236 79<473 551> 315 79<79 394 551 630>
LayerCount: 2
Back
Fore
SplineSet
79 551 m 25x94
 158 551 l 25x94
 158 473 l 25
 236 473 l 25xa5
 236 551 l 25xaa
 158 551 l 25x94
 158 630 l 25
 236 630 l 25
 236 551 l 25x8a
 315 551 l 25x89
 315 630 l 25
 394 630 l 25
 394 551 l 25x8880
 315 551 l 25x89
 315 394 l 25xc880
 158 394 l 25
 158 79 l 25xa480
 315 79 l 25
 315 394 l 25
 394 394 l 25
 394 79 l 25
 315 79 l 25
 315 0 l 25
 158 0 l 25xc280
 158 79 l 25
 79 79 l 25
 79 394 l 25
 158 394 l 25
 158 473 l 25xa4
 79 473 l 25
 79 551 l 25x94
EndSplineSet
EndChar

StartChar: Odieresis
Encoding: 214 214 148
Width: 469
VWidth: 0
Flags: W
HStem: 0 79<158 315> 378 16G<315 394> 394 79<158 315> 551 79<79 158 315 394>
VStem: 79 79<79 394 551 630> 158 158<0 79 394 473> 315 79<79 394 551 630>
LayerCount: 2
Back
Fore
SplineSet
158 473 m 25xb4
 315 473 l 25xb4
 315 394 l 25xd4
 158 394 l 25
 158 79 l 25xb8
 315 79 l 25
 315 394 l 25xd4
 394 394 l 25
 394 79 l 25xd2
 315 79 l 25
 315 0 l 25
 158 0 l 25xd4
 158 79 l 25
 79 79 l 25
 79 394 l 25
 158 394 l 25xb8
 158 473 l 25xb4
315 630 m 25x92
 394 630 l 25
 394 551 l 25
 315 551 l 25
 315 630 l 25x92
79 630 m 25x98
 158 630 l 25
 158 551 l 25
 79 551 l 25
 79 630 l 25x98
EndSplineSet
EndChar

StartChar: multiply
Encoding: 215 215 149
Width: 469
VWidth: 0
Flags: W
HStem: 158 79<158 236 315 394> 315 79<158 236 315 394>
VStem: 158 79<158 236 315 394> 315 79<158 236 315 394>
LayerCount: 2
Back
Fore
SplineSet
158 394 m 25
 236 394 l 25
 236 315 l 25
 315 315 l 25
 315 394 l 25
 394 394 l 25
 394 315 l 25
 315 315 l 25
 315 236 l 25
 394 236 l 25
 394 158 l 25
 315 158 l 25
 315 236 l 25
 236 236 l 25
 236 158 l 25
 158 158 l 25
 158 236 l 25
 236 236 l 25
 236 315 l 25
 158 315 l 25
 158 394 l 25
EndSplineSet
EndChar

StartChar: Oslash
Encoding: 216 216 150
Width: 469
VWidth: 0
Flags: W
HStem: 0 79<0 79 158 315> 236 79<236 315> 394 79<158 315 394 473>
VStem: 0 79<0 79> 79 79<79 158 236 394> 158 158<0 79 394 473> 315 79<79 236 315 394> 394 79<394 473>
LayerCount: 2
Back
Fore
SplineSet
158 473 m 25xe4
 315 473 l 25
 315 394 l 25xe4
 158 394 l 25
 158 236 l 25
 236 236 l 25
 236 158 l 25
 158 158 l 25
 158 79 l 25xe8
 315 79 l 25xe4
 315 236 l 25
 236 236 l 25
 236 315 l 25
 315 315 l 25xe2
 315 394 l 25xe4
 394 394 l 25xe2
 394 473 l 25
 473 473 l 25
 473 394 l 25xe1
 394 394 l 25
 394 79 l 25xe2
 315 79 l 25
 315 0 l 25
 158 0 l 25xe4
 158 79 l 25xe8
 79 79 l 25
 79 0 l 25
 0 0 l 25
 0 79 l 25
 79 79 l 25xf0
 79 394 l 25
 158 394 l 25xe8
 158 473 l 25xe4
EndSplineSet
EndChar

StartChar: Ugrave
Encoding: 217 217 151
Width: 469
VWidth: 0
Flags: W
HStem: 0 79<158 315> 457 16G<79 158> 473 79<236 315> 551 79<158 236>
VStem: 79 79<79 473> 158 79<551 630> 236 79<473 551> 315 79<79 473>
LayerCount: 2
Back
Fore
SplineSet
158 630 m 25x94
 236 630 l 25x94
 236 551 l 25xa4
 315 551 l 25
 315 473 l 25xa2
 394 473 l 25
 394 0 l 25
 158 0 l 25xa5
 158 79 l 25
 79 79 l 25
 79 473 l 25
 158 473 l 25
 158 79 l 25
 315 79 l 25xc9
 315 473 l 25
 236 473 l 25xa2
 236 551 l 25xa4
 158 551 l 25
 158 630 l 25x94
EndSplineSet
EndChar

StartChar: Uacute
Encoding: 218 218 152
Width: 469
VWidth: 0
Flags: W
HStem: 0 79<158 315> 457 16G<315 394> 473 79<158 236> 551 79<236 315>
VStem: 79 79<79 473> 158 79<473 551> 236 79<551 630> 315 79<79 473>
LayerCount: 2
Back
Fore
SplineSet
236 630 m 25x92
 315 630 l 25
 315 551 l 25x92
 236 551 l 25
 236 473 l 25xa4
 158 473 l 25
 158 79 l 25xa8
 315 79 l 25
 315 473 l 25
 394 473 l 25
 394 0 l 25
 158 0 l 25xc5
 158 79 l 25
 79 79 l 25
 79 473 l 25
 158 473 l 25xa8
 158 551 l 25
 236 551 l 25xa4
 236 630 l 25x92
EndSplineSet
EndChar

StartChar: Ucircumflex
Encoding: 219 219 153
Width: 469
VWidth: 0
Flags: W
HStem: 0 79<158 315> 378 16G<79 158 315 394> 473 79<79 158 315 394> 551 79<158 315>
VStem: 79 79<79 394 473 551> 315 79<79 394 473 551>
LayerCount: 2
Back
Fore
SplineSet
79 394 m 25xcc
 158 394 l 25
 158 79 l 25
 315 79 l 25
 315 394 l 25
 394 394 l 25
 394 0 l 25
 158 0 l 25
 158 79 l 25
 79 79 l 25
 79 394 l 25xcc
79 551 m 25xec
 158 551 l 25xec
 158 630 l 25
 315 630 l 25xdc
 315 551 l 25
 394 551 l 25
 394 473 l 25
 315 473 l 25
 315 551 l 25
 158 551 l 25
 158 473 l 25
 79 473 l 25
 79 551 l 25xec
EndSplineSet
EndChar

StartChar: Udieresis
Encoding: 220 220 154
Width: 469
VWidth: 0
Flags: W
HStem: 0 79<158 315> 457 16G<79 158 315 394> 551 79<79 158 315 394>
VStem: 79 79<79 473 551 630> 315 79<79 473 551 630>
LayerCount: 2
Back
Fore
SplineSet
79 473 m 25
 158 473 l 25
 158 79 l 25
 315 79 l 25
 315 473 l 25
 394 473 l 25
 394 0 l 25
 158 0 l 25
 158 79 l 25
 79 79 l 25
 79 473 l 25
315 630 m 25
 394 630 l 25
 394 551 l 25
 315 551 l 25
 315 630 l 25
79 630 m 25
 158 630 l 25
 158 551 l 25
 79 551 l 25
 79 630 l 25
EndSplineSet
EndChar

StartChar: Yacute
Encoding: 221 221 155
Width: 469
VWidth: 0
Flags: W
HStem: 0 16G<236 315> 236 79<158 236 315 394> 315 158<79 158 394 473> 473 79<236 315> 551 79<315 394>
VStem: 79 79<315 473> 158 79<236 315> 236 79<0 236 473 551> 315 79<236 315 551 630> 394 79<315 473>
LayerCount: 2
Back
Fore
SplineSet
79 473 m 25xa4
 158 473 l 25xa4
 158 315 l 25xc4
 236 315 l 25
 236 236 l 25xc2
 315 236 l 25xc1
 315 315 l 25
 394 315 l 25xc080
 394 473 l 25
 473 473 l 25
 473 315 l 25xa040
 394 315 l 25
 394 236 l 25xc080
 315 236 l 25
 315 0 l 25
 236 0 l 25xc1
 236 236 l 25
 158 236 l 25xc2
 158 315 l 25xc4
 79 315 l 25
 79 473 l 25xa4
315 630 m 25x8880
 394 630 l 25
 394 551 l 25x8880
 315 551 l 25
 315 473 l 25
 236 473 l 25
 236 551 l 25
 315 551 l 25x91
 315 630 l 25x8880
EndSplineSet
EndChar

StartChar: Thorn
Encoding: 222 222 156
Width: 469
VWidth: 0
Flags: W
HStem: -79 16G<79 158> 79 79<158 315> 315 79<158 315> 536 16G<79 158>
VStem: 79 236<79 158 315 394> 79 79<-79 79 158 315 394 551> 315 79<158 315>
LayerCount: 2
Back
Fore
SplineSet
79 551 m 25xf4
 158 551 l 25
 158 394 l 25xf4
 315 394 l 25
 315 315 l 25xf8
 158 315 l 25
 158 158 l 25xf4
 315 158 l 25
 315 315 l 25xf8
 394 315 l 25
 394 158 l 25xf2
 315 158 l 25
 315 79 l 25xf8
 158 79 l 25
 158 -79 l 25
 79 -79 l 25
 79 551 l 25xf4
EndSplineSet
EndChar

StartChar: germandbls
Encoding: 223 223 157
Width: 469
VWidth: 0
Flags: W
HStem: -79 16G<79 158> 0 79<236 315> 473 79<158 236>
VStem: 79 79<-79 473> 236 79<0 79 315 473> 315 79<79 315>
LayerCount: 2
Back
Fore
SplineSet
79 473 m 25xf8
 158 473 l 25
 158 551 l 25
 315 551 l 25xf4
 315 315 l 25xf8
 394 315 l 25
 394 79 l 25xf4
 315 79 l 25
 315 0 l 25
 236 0 l 25
 236 79 l 25
 315 79 l 25
 315 315 l 25
 236 315 l 25
 236 473 l 25
 158 473 l 25
 158 -79 l 25
 79 -79 l 25
 79 473 l 25xf8
EndSplineSet
EndChar

StartChar: agrave
Encoding: 224 224 158
Width: 469
VWidth: 0
Flags: W
HStem: 0 79<158 315 394 473> 315 79<158 315> 473 79<236 315> 551 79<158 236>
VStem: 79 79<79 315> 158 79<551 630> 236 79<473 551> 315 79<79 315> 394 79<0 79>
LayerCount: 2
Back
Fore
SplineSet
79 315 m 25xc8
 158 315 l 25xc8
 158 394 l 25
 394 394 l 25xc480
 394 79 l 25xc1
 473 79 l 25
 473 0 l 25
 394 0 l 25xc080
 394 79 l 25
 315 79 l 25
 315 315 l 25
 158 315 l 25
 158 79 l 25xc9
 315 79 l 25
 315 0 l 25
 158 0 l 25xc5
 158 79 l 25
 79 79 l 25
 79 315 l 25xc8
158 630 m 25xd4
 236 630 l 25xd4
 236 551 l 25xe4
 315 551 l 25
 315 473 l 25
 236 473 l 25xe2
 236 551 l 25xe4
 158 551 l 25
 158 630 l 25xd4
EndSplineSet
EndChar

StartChar: aacute
Encoding: 225 225 159
Width: 469
VWidth: 0
Flags: W
HStem: 0 79<158 315 394 473> 315 79<158 315> 473 79<236 315> 551 79<315 394>
VStem: 79 79<79 315> 236 79<473 551> 315 79<79 315 551 630> 394 79<0 79>
LayerCount: 2
Back
Fore
SplineSet
158 394 m 25xca
 394 394 l 25xc9
 394 79 l 25xca
 473 79 l 25
 473 0 l 25
 394 0 l 25xc9
 394 79 l 25
 315 79 l 25
 315 315 l 25
 158 315 l 25
 158 79 l 25
 315 79 l 25
 315 0 l 25
 158 0 l 25
 158 79 l 25
 79 79 l 25
 79 315 l 25
 158 315 l 25
 158 394 l 25xca
236 551 m 25xec
 315 551 l 25xec
 315 630 l 25
 394 630 l 25
 394 551 l 25xda
 315 551 l 25
 315 473 l 25
 236 473 l 25
 236 551 l 25xec
EndSplineSet
EndChar

StartChar: acircumflex
Encoding: 226 226 160
Width: 469
VWidth: 0
Flags: W
HStem: 0 79<158 315 394 473> 315 79<158 315> 473 79<158 236 315 394> 551 79<236 315>
VStem: 79 79<79 315> 158 79<473 551> 236 79<551 630> 315 79<79 315 473 551> 394 79<0 79>
LayerCount: 2
Back
Fore
SplineSet
79 315 m 25xc8
 158 315 l 25xc8
 158 394 l 25
 394 394 l 25xc480
 394 79 l 25xc1
 473 79 l 25
 473 0 l 25
 394 0 l 25xc080
 394 79 l 25
 315 79 l 25
 315 315 l 25
 158 315 l 25
 158 79 l 25xc9
 315 79 l 25
 315 0 l 25
 158 0 l 25xc5
 158 79 l 25
 79 79 l 25
 79 315 l 25xc8
158 551 m 25xe4
 236 551 l 25xe4
 236 630 l 25
 315 630 l 25xd2
 315 551 l 25xe2
 394 551 l 25
 394 473 l 25
 315 473 l 25xe1
 315 551 l 25xe2
 236 551 l 25
 236 473 l 25
 158 473 l 25
 158 551 l 25xe4
EndSplineSet
EndChar

StartChar: atilde
Encoding: 227 227 161
Width: 469
VWidth: 0
Flags: W
HStem: 0 79<158 315 394 473> 315 79<158 315> 473 79<79 158 236 315> 551 79<158 236 315 394>
VStem: 79 79<79 315 473 551> 158 79<551 630> 236 79<473 551> 315 79<79 315 551 630> 394 79<0 79>
LayerCount: 2
Back
Fore
SplineSet
79 315 m 25xc8
 158 315 l 25xc8
 158 394 l 25
 394 394 l 25xc480
 394 79 l 25xc1
 473 79 l 25
 473 0 l 25
 394 0 l 25xc080
 394 79 l 25
 315 79 l 25
 315 315 l 25
 158 315 l 25
 158 79 l 25xc9
 315 79 l 25
 315 0 l 25
 158 0 l 25xc5
 158 79 l 25
 79 79 l 25
 79 315 l 25xc8
79 551 m 25xe8
 158 551 l 25xe8
 158 630 l 25
 236 630 l 25xd4
 236 551 l 25xe4
 315 551 l 25xe2
 315 630 l 25
 394 630 l 25
 394 551 l 25xd1
 315 551 l 25
 315 473 l 25
 236 473 l 25xe2
 236 551 l 25xe4
 158 551 l 25
 158 473 l 25
 79 473 l 25
 79 551 l 25xe8
EndSplineSet
EndChar

StartChar: adieresis
Encoding: 228 228 162
Width: 469
VWidth: 0
Flags: W
HStem: 0 79<158 315 394 473> 315 79<158 315> 473 79<158 236 315 394>
VStem: 79 79<79 315> 158 79<473 551> 315 79<79 315 473 551> 394 79<0 79>
LayerCount: 2
Back
Fore
SplineSet
79 315 m 25xf0
 158 315 l 25xf0
 158 394 l 25
 394 394 l 25xea
 394 79 l 25xe4
 473 79 l 25
 473 0 l 25
 394 0 l 25xe2
 394 79 l 25
 315 79 l 25
 315 315 l 25
 158 315 l 25
 158 79 l 25xf4
 315 79 l 25
 315 0 l 25
 158 0 l 25xec
 158 79 l 25
 79 79 l 25
 79 315 l 25xf0
315 551 m 25xe4
 394 551 l 25
 394 473 l 25
 315 473 l 25
 315 551 l 25xe4
158 551 m 25xe8
 236 551 l 25
 236 473 l 25
 158 473 l 25
 158 551 l 25xe8
EndSplineSet
EndChar

StartChar: aring
Encoding: 229 229 163
Width: 469
VWidth: 0
Flags: W
HStem: 0 79<158 315 394 473> 315 79<158 236> 473 79<158 236 315 394> 551 79<236 315>
VStem: 79 79<79 315> 158 79<473 551> 236 79<394 473 551 630> 315 79<79 315 473 551> 394 79<0 79>
LayerCount: 2
Back
Fore
SplineSet
158 551 m 25xe4
 236 551 l 25xe4
 236 630 l 25
 315 630 l 25xd2
 315 551 l 25xe2
 236 551 l 25
 236 473 l 25xe4
 315 473 l 25
 315 551 l 25xe2
 394 551 l 25
 394 473 l 25xe1
 315 473 l 25
 315 394 l 25
 394 394 l 25xe280
 394 79 l 25xe1
 473 79 l 25
 473 0 l 25
 394 0 l 25xe080
 394 79 l 25
 315 79 l 25
 315 315 l 25
 158 315 l 25
 158 79 l 25xe9
 315 79 l 25
 315 0 l 25
 158 0 l 25xe5
 158 79 l 25
 79 79 l 25
 79 315 l 25
 158 315 l 25xe8
 158 394 l 25xe4
 236 394 l 25xe2
 236 473 l 25
 158 473 l 25
 158 551 l 25xe4
EndSplineSet
EndChar

StartChar: ae
Encoding: 230 230 164
Width: 469
VWidth: 0
Flags: W
HStem: 0 79<79 236 315 473> 79 79<0 79> 158 79<79 236 315 394> 315 79<79 236 315 394>
VStem: 0 79<79 158> 236 79<79 158 236 315> 394 79<236 315>
LayerCount: 2
Back
Fore
SplineSet
79 394 m 25x3e
 394 394 l 25
 394 315 l 25
 315 315 l 25
 315 236 l 25
 394 236 l 25
 394 315 l 25
 473 315 l 25
 473 158 l 25
 315 158 l 25
 315 79 l 25
 473 79 l 25
 473 0 l 25
 315 0 l 25
 315 79 l 25
 236 79 l 25
 236 0 l 25
 79 0 l 25
 79 79 l 25
 236 79 l 25
 236 158 l 25xbe
 79 158 l 25x5e
 79 79 l 25x9e
 0 79 l 25
 0 158 l 25
 79 158 l 25x5e
 79 236 l 25
 236 236 l 25
 236 315 l 25
 79 315 l 25
 79 394 l 25x3e
EndSplineSet
EndChar

StartChar: ccedilla
Encoding: 231 231 165
Width: 469
VWidth: 0
Flags: W
HStem: -158 79<158 236> 0 79<158 236 315 394> 315 79<158 394>
VStem: 79 79<79 315> 158 236<0 79 315 394> 158 79<-158 -79> 236 79<-79 0>
LayerCount: 2
Back
Fore
SplineSet
158 394 m 25xe8
 394 394 l 25
 394 315 l 25xe8
 158 315 l 25
 158 79 l 25xf0
 394 79 l 25
 394 0 l 25xe8
 315 0 l 25
 315 -79 l 25xe2
 236 -79 l 25
 236 -158 l 25
 158 -158 l 25
 158 -79 l 25
 236 -79 l 25xe4
 236 0 l 25xe2
 158 0 l 25xe8
 158 79 l 25
 79 79 l 25
 79 315 l 25
 158 315 l 25xf0
 158 394 l 25xe8
EndSplineSet
EndChar

StartChar: egrave
Encoding: 232 232 166
Width: 469
VWidth: 0
Flags: W
HStem: 0 79<158 394> 158 79<158 315> 315 79<158 315> 473 79<236 315> 551 79<158 236>
VStem: 79 79<79 158 236 315> 158 79<551 630> 236 79<473 551> 315 79<236 315>
LayerCount: 2
Back
Fore
SplineSet
158 394 m 25xe2
 315 394 l 25
 315 315 l 25
 158 315 l 25
 158 236 l 25
 315 236 l 25
 315 315 l 25
 394 315 l 25
 394 158 l 25
 158 158 l 25
 158 79 l 25xe480
 394 79 l 25
 394 0 l 25
 158 0 l 25xe280
 158 79 l 25
 79 79 l 25
 79 315 l 25
 158 315 l 25xe4
 158 394 l 25xe2
158 630 m 25xea
 236 630 l 25xea
 236 551 l 25xf2
 315 551 l 25
 315 473 l 25
 236 473 l 25xf1
 236 551 l 25xf2
 158 551 l 25
 158 630 l 25xea
EndSplineSet
EndChar

StartChar: eacute
Encoding: 233 233 167
Width: 469
VWidth: 0
Flags: W
HStem: 0 79<158 394> 158 79<158 315> 315 79<158 315> 473 79<158 236> 551 79<236 315>
VStem: 79 79<79 158 236 315> 158 79<473 551> 236 79<551 630> 315 79<236 315>
LayerCount: 2
Back
Fore
SplineSet
158 394 m 25xe2
 315 394 l 25
 315 315 l 25
 158 315 l 25
 158 236 l 25
 315 236 l 25
 315 315 l 25
 394 315 l 25
 394 158 l 25
 158 158 l 25
 158 79 l 25xe480
 394 79 l 25
 394 0 l 25
 158 0 l 25xe280
 158 79 l 25
 79 79 l 25
 79 315 l 25
 158 315 l 25xe4
 158 394 l 25xe2
158 551 m 25xf2
 236 551 l 25xf2
 236 630 l 25
 315 630 l 25
 315 551 l 25xe9
 236 551 l 25
 236 473 l 25
 158 473 l 25
 158 551 l 25xf2
EndSplineSet
EndChar

StartChar: ecircumflex
Encoding: 234 234 168
Width: 469
VWidth: 0
Flags: W
HStem: 0 79<158 394> 158 79<158 315> 315 79<158 315> 473 79<79 158 315 394> 551 79<158 315>
VStem: 79 79<79 158 236 315 473 551> 158 158<315 394 551 630> 315 79<236 315 473 551>
LayerCount: 2
Back
Fore
SplineSet
158 394 m 25xe2
 315 394 l 25
 315 315 l 25xe2
 158 315 l 25
 158 236 l 25
 315 236 l 25xe5
 315 315 l 25xe2
 394 315 l 25
 394 158 l 25
 158 158 l 25
 158 79 l 25
 394 79 l 25
 394 0 l 25xe5
 158 0 l 25xe2
 158 79 l 25
 79 79 l 25
 79 315 l 25
 158 315 l 25xe4
 158 394 l 25xe2
79 551 m 25xf4
 158 551 l 25xf4
 158 630 l 25
 315 630 l 25xea
 315 551 l 25xf2
 394 551 l 25
 394 473 l 25
 315 473 l 25xf1
 315 551 l 25xf2
 158 551 l 25
 158 473 l 25
 79 473 l 25
 79 551 l 25xf4
EndSplineSet
EndChar

StartChar: edieresis
Encoding: 235 235 169
Width: 469
VWidth: 0
Flags: W
HStem: 0 79<158 394> 158 79<158 315> 315 79<158 315> 473 79<79 158 315 394>
VStem: 79 79<79 158 236 315 473 551> 315 79<236 315 473 551>
LayerCount: 2
Back
Fore
SplineSet
158 394 m 25
 315 394 l 25
 315 315 l 25
 158 315 l 25
 158 236 l 25
 315 236 l 25
 315 315 l 25
 394 315 l 25
 394 158 l 25
 158 158 l 25
 158 79 l 25
 394 79 l 25
 394 0 l 25
 158 0 l 25
 158 79 l 25
 79 79 l 25
 79 315 l 25
 158 315 l 25
 158 394 l 25
315 551 m 25
 394 551 l 25
 394 473 l 25
 315 473 l 25
 315 551 l 25
79 551 m 25
 158 551 l 25
 158 473 l 25
 79 473 l 25
 79 551 l 25
EndSplineSet
EndChar

StartChar: igrave
Encoding: 236 236 170
Width: 469
VWidth: 0
Flags: W
HStem: 0 16G<236 315> 378 16G<236 315> 473 79<236 315> 551 79<158 236>
VStem: 158 79<551 630> 236 79<0 394 473 551>
LayerCount: 2
Back
Fore
SplineSet
236 394 m 25xc4
 315 394 l 25
 315 0 l 25
 236 0 l 25
 236 394 l 25xc4
158 630 m 25xd8
 236 630 l 25xd8
 236 551 l 25xe8
 315 551 l 25
 315 473 l 25
 236 473 l 25xe4
 236 551 l 25xe8
 158 551 l 25
 158 630 l 25xd8
EndSplineSet
EndChar

StartChar: iacute
Encoding: 237 237 171
Width: 469
VWidth: 0
Flags: W
HStem: 0 16G<236 315> 378 16G<236 315> 473 79<236 315> 551 79<315 394>
VStem: 236 79<0 394 473 551> 315 79<551 630>
LayerCount: 2
Back
Fore
SplineSet
236 394 m 25xc8
 315 394 l 25
 315 0 l 25
 236 0 l 25
 236 394 l 25xc8
315 630 m 25xd4
 394 630 l 25
 394 551 l 25xd4
 315 551 l 25
 315 473 l 25
 236 473 l 25
 236 551 l 25
 315 551 l 25xe8
 315 630 l 25xd4
EndSplineSet
EndChar

StartChar: icircumflex
Encoding: 238 238 172
Width: 469
VWidth: 0
Flags: W
HStem: 0 16G<236 315> 378 16G<236 315> 473 79<158 236 315 394> 551 79<236 315>
VStem: 158 79<473 551> 236 79<0 394 551 630> 315 79<473 551>
LayerCount: 2
Back
Fore
SplineSet
236 394 m 25xc4
 315 394 l 25
 315 0 l 25
 236 0 l 25
 236 394 l 25xc4
158 551 m 25xe8
 236 551 l 25xe8
 236 630 l 25
 315 630 l 25xd4
 315 551 l 25xe4
 394 551 l 25
 394 473 l 25
 315 473 l 25xe2
 315 551 l 25xe4
 236 551 l 25
 236 473 l 25
 158 473 l 25
 158 551 l 25xe8
EndSplineSet
EndChar

StartChar: idieresis
Encoding: 239 239 173
Width: 469
VWidth: 0
Flags: W
HStem: 0 16G<236 315> 378 16G<236 315> 473 79<158 236 315 394>
VStem: 158 79<473 551> 236 79<0 394> 315 79<473 551>
LayerCount: 2
Back
Fore
SplineSet
236 394 m 25xe8
 315 394 l 25
 315 0 l 25
 236 0 l 25
 236 394 l 25xe8
315 551 m 25xe4
 394 551 l 25
 394 473 l 25
 315 473 l 25
 315 551 l 25xe4
158 551 m 25xf0
 236 551 l 25
 236 473 l 25
 158 473 l 25
 158 551 l 25xf0
EndSplineSet
EndChar

StartChar: eth
Encoding: 240 240 174
Width: 469
VWidth: 0
Flags: W
HStem: 0 79<158 315> 79 79<79 158> 158 79<158 315> 315 79<236 315> 394 79<394 473> 473 79<236 315>
VStem: 79 79<79 158> 236 79<473 551> 315 79<79 158 236 315>
LayerCount: 2
Back
Fore
SplineSet
236 551 m 25x37
 315 551 l 25
 315 473 l 25x37
 473 473 l 25
 473 394 l 25
 394 394 l 25
 394 79 l 25x4a80
 315 79 l 25
 315 158 l 25xa280
 158 158 l 25x4280
 158 79 l 25
 315 79 l 25
 315 0 l 25
 158 0 l 25
 158 79 l 25x8280
 79 79 l 25
 79 158 l 25
 158 158 l 25x4280
 158 236 l 25
 315 236 l 25
 315 315 l 25x3280
 236 315 l 25
 236 394 l 25x33
 315 394 l 25x3280
 315 473 l 25
 236 473 l 25
 236 551 l 25x37
EndSplineSet
EndChar

StartChar: ntilde
Encoding: 241 241 175
Width: 469
VWidth: 0
Flags: W
HStem: 0 16G<79 158 315 394> 315 79<158 315> 473 79<79 158 236 315> 551 79<158 236 315 394>
VStem: 79 79<0 315 473 551> 236 79<473 551> 315 79<0 315 551 630>
LayerCount: 2
Back
Fore
SplineSet
79 394 m 25xca
 315 394 l 25
 315 315 l 25
 394 315 l 25
 394 0 l 25
 315 0 l 25
 315 315 l 25
 158 315 l 25
 158 0 l 25
 79 0 l 25
 79 394 l 25xca
79 551 m 25xec
 158 551 l 25xec
 158 630 l 25
 236 630 l 25xdc
 236 551 l 25
 315 551 l 25xec
 315 630 l 25
 394 630 l 25
 394 551 l 25xda
 315 551 l 25
 315 473 l 25
 236 473 l 25
 236 551 l 25
 158 551 l 25
 158 473 l 25
 79 473 l 25
 79 551 l 25xec
EndSplineSet
EndChar

StartChar: ograve
Encoding: 242 242 176
Width: 469
VWidth: 0
Flags: W
HStem: 0 79<158 315> 79 236<79 158 315 394> 315 79<158 236> 473 79<158 236>
VStem: 79 79<79 315> 158 79<473 551> 236 79<394 473> 315 79<79 315>
LayerCount: 2
Back
Fore
SplineSet
158 551 m 25x34
 236 551 l 25
 236 473 l 25x34
 315 473 l 25x32
 315 315 l 25
 158 315 l 25x59
 158 79 l 25
 315 79 l 25x99
 315 315 l 25
 394 315 l 25
 394 79 l 25x59
 315 79 l 25
 315 0 l 25
 158 0 l 25x95
 158 79 l 25x98
 79 79 l 25
 79 315 l 25
 158 315 l 25x58
 158 394 l 25x34
 236 394 l 25x32
 236 473 l 25
 158 473 l 25
 158 551 l 25x34
EndSplineSet
EndChar

StartChar: oacute
Encoding: 243 243 177
Width: 469
VWidth: 0
Flags: W
HStem: 0 79<158 315> 79 236<79 158 315 394> 315 79<236 315> 473 79<236 315>
VStem: 79 79<79 315> 158 79<394 473> 236 79<473 551> 315 79<79 315>
LayerCount: 2
Back
Fore
SplineSet
315 551 m 25x52
 315 473 l 25x52
 236 473 l 25
 236 394 l 25
 315 394 l 25x35
 315 315 l 25
 158 315 l 25x59
 158 79 l 25
 315 79 l 25x99
 315 315 l 25
 394 315 l 25
 394 79 l 25x59
 315 79 l 25
 315 0 l 25
 158 0 l 25x95
 158 79 l 25x98
 79 79 l 25
 79 315 l 25
 158 315 l 25x58
 158 473 l 25
 236 473 l 25x54
 236 551 l 25
 315 551 l 25x52
EndSplineSet
EndChar

StartChar: ocircumflex
Encoding: 244 244 178
Width: 469
VWidth: 0
Flags: W
HStem: 0 79<158 315> 79 236<79 158 315 394> 315 79<158 315> 473 79<79 158 315 394> 551 79<158 315>
VStem: 79 79<79 315 473 551> 158 158<0 79 315 394 551 630> 315 79<79 315 473 551>
LayerCount: 2
Back
Fore
SplineSet
158 394 m 25x22
 315 394 l 25x22
 315 315 l 25x42
 158 315 l 25x44
 158 79 l 25x84
 315 79 l 25x82
 315 315 l 25x42
 394 315 l 25
 394 79 l 25x41
 315 79 l 25
 315 0 l 25
 158 0 l 25x82
 158 79 l 25x84
 79 79 l 25
 79 315 l 25
 158 315 l 25x44
 158 394 l 25x22
79 551 m 25x14
 158 551 l 25x14
 158 630 l 25
 315 630 l 25x0a
 315 551 l 25x12
 394 551 l 25
 394 473 l 25
 315 473 l 25x11
 315 551 l 25x12
 158 551 l 25
 158 473 l 25
 79 473 l 25
 79 551 l 25x14
EndSplineSet
EndChar

StartChar: otilde
Encoding: 245 245 179
Width: 469
VWidth: 0
Flags: W
HStem: 0 79<158 315> 79 236<79 158 315 394> 315 79<158 315> 473 79<79 158 236 315> 551 79<158 236 315 394>
VStem: 79 79<79 315 473 551> 158 79<551 630> 236 79<473 551> 315 79<79 315 551 630>
LayerCount: 2
Back
Fore
SplineSet
158 394 m 25x22
 315 394 l 25x2280
 315 315 l 25
 158 315 l 25x4480
 158 79 l 25
 315 79 l 25x8480
 315 315 l 25
 394 315 l 25
 394 79 l 25x4480
 315 79 l 25
 315 0 l 25
 158 0 l 25x8280
 158 79 l 25x84
 79 79 l 25
 79 315 l 25
 158 315 l 25x44
 158 394 l 25x22
79 551 m 25x14
 158 551 l 25x14
 158 630 l 25
 236 630 l 25x0a
 236 551 l 25x12
 315 551 l 25x11
 315 630 l 25
 394 630 l 25
 394 551 l 25x0880
 315 551 l 25
 315 473 l 25
 236 473 l 25x11
 236 551 l 25x12
 158 551 l 25
 158 473 l 25
 79 473 l 25
 79 551 l 25x14
EndSplineSet
EndChar

StartChar: odieresis
Encoding: 246 246 180
Width: 469
VWidth: 0
Flags: W
HStem: 0 79<158 315> 79 236<79 158 315 394> 315 79<158 315> 473 79<79 158 315 394>
VStem: 79 79<79 315 473 551> 158 158<0 79 315 394> 315 79<79 315 473 551>
LayerCount: 2
Back
Fore
SplineSet
158 394 m 25x34
 315 394 l 25x34
 315 315 l 25x54
 158 315 l 25x58
 158 79 l 25x98
 315 79 l 25x94
 315 315 l 25x54
 394 315 l 25
 394 79 l 25x52
 315 79 l 25
 315 0 l 25
 158 0 l 25x94
 158 79 l 25x98
 79 79 l 25
 79 315 l 25
 158 315 l 25x58
 158 394 l 25x34
315 551 m 25x12
 394 551 l 25
 394 473 l 25
 315 473 l 25
 315 551 l 25x12
79 551 m 25x18
 158 551 l 25
 158 473 l 25
 79 473 l 25
 79 551 l 25x18
EndSplineSet
EndChar

StartChar: divide
Encoding: 247 247 181
Width: 469
VWidth: 0
Flags: W
HStem: 79 79<236 315> 236 79<79 473> 394 79<236 315>
VStem: 236 79<79 158 394 473>
CounterMasks: 1 e0
LayerCount: 2
Back
Fore
SplineSet
236 158 m 25
 315 158 l 25
 315 79 l 25
 236 79 l 25
 236 158 l 25
79 315 m 25
 473 315 l 25
 473 236 l 25
 79 236 l 25
 79 315 l 25
236 473 m 25
 315 473 l 25
 315 394 l 25
 236 394 l 25
 236 473 l 25
EndSplineSet
EndChar

StartChar: oslash
Encoding: 248 248 182
Width: 469
VWidth: 0
Flags: W
HStem: -79 79<0 79> 0 79<158 315> 158 79<158 315> 315 79<158 315> 394 79<394 473>
VStem: 0 79<-79 0> 79 79<79 158 236 315> 315 79<79 158 236 315> 394 79<394 473>
LayerCount: 2
Back
Fore
SplineSet
158 394 m 25xb3
 394 394 l 25
 394 473 l 25
 473 473 l 25
 473 394 l 25
 394 394 l 25x2a80
 394 79 l 25
 315 79 l 25
 315 158 l 25
 158 158 l 25
 158 79 l 25
 315 79 l 25
 315 0 l 25x6b
 79 0 l 25
 79 -79 l 25
 0 -79 l 25
 0 0 l 25
 79 0 l 25xa5
 79 315 l 25
 158 315 l 25
 158 236 l 25
 315 236 l 25
 315 315 l 25
 158 315 l 25
 158 394 l 25xb3
EndSplineSet
EndChar

StartChar: ugrave
Encoding: 249 249 183
Width: 469
VWidth: 0
Flags: W
HStem: 0 79<158 315> 378 16G<79 158 315 394> 473 79<236 315> 551 79<158 236>
VStem: 79 79<79 394> 158 79<551 630> 236 79<473 551> 315 79<79 394>
LayerCount: 2
Back
Fore
SplineSet
315 394 m 25xc9
 394 394 l 25
 394 0 l 25
 158 0 l 25xc5
 158 79 l 25
 79 79 l 25
 79 394 l 25
 158 394 l 25
 158 79 l 25
 315 79 l 25
 315 394 l 25xc9
158 630 m 25xd4
 236 630 l 25xd4
 236 551 l 25xe4
 315 551 l 25
 315 473 l 25
 236 473 l 25xe2
 236 551 l 25xe4
 158 551 l 25
 158 630 l 25xd4
EndSplineSet
EndChar

StartChar: uacute
Encoding: 250 250 184
Width: 469
VWidth: 0
Flags: W
HStem: 0 79<158 315> 378 16G<79 158 315 394> 473 79<158 236> 551 79<236 315>
VStem: 79 79<79 394> 158 79<473 551> 236 79<551 630> 315 79<79 394>
LayerCount: 2
Back
Fore
SplineSet
315 394 m 25xc9
 394 394 l 25
 394 0 l 25
 158 0 l 25xc5
 158 79 l 25
 79 79 l 25
 79 394 l 25
 158 394 l 25
 158 79 l 25
 315 79 l 25
 315 394 l 25xc9
158 551 m 25xe4
 236 551 l 25xe4
 236 630 l 25
 315 630 l 25
 315 551 l 25xd2
 236 551 l 25
 236 473 l 25
 158 473 l 25
 158 551 l 25xe4
EndSplineSet
EndChar

StartChar: ucircumflex
Encoding: 251 251 185
Width: 469
VWidth: 0
Flags: W
HStem: 0 79<158 315> 378 16G<79 158 315 394> 473 79<79 158 315 394> 551 79<158 315>
VStem: 79 79<79 394 473 551> 315 79<79 394 473 551>
LayerCount: 2
Back
Fore
SplineSet
315 394 m 25xcc
 394 394 l 25
 394 0 l 25
 158 0 l 25
 158 79 l 25
 79 79 l 25
 79 394 l 25
 158 394 l 25
 158 79 l 25
 315 79 l 25
 315 394 l 25xcc
79 551 m 25xec
 158 551 l 25xec
 158 630 l 25
 315 630 l 25xdc
 315 551 l 25
 394 551 l 25
 394 473 l 25
 315 473 l 25
 315 551 l 25
 158 551 l 25
 158 473 l 25
 79 473 l 25
 79 551 l 25xec
EndSplineSet
EndChar

StartChar: udieresis
Encoding: 252 252 186
Width: 469
VWidth: 0
Flags: W
HStem: 0 79<158 315> 378 16G<79 158 315 394> 473 79<79 158 315 394>
VStem: 79 79<79 394 473 551> 315 79<79 394 473 551>
LayerCount: 2
Back
Fore
SplineSet
315 394 m 25
 394 394 l 25
 394 0 l 25
 158 0 l 25
 158 79 l 25
 79 79 l 25
 79 394 l 25
 158 394 l 25
 158 79 l 25
 315 79 l 25
 315 394 l 25
315 551 m 25
 394 551 l 25
 394 473 l 25
 315 473 l 25
 315 551 l 25
79 551 m 25
 158 551 l 25
 158 473 l 25
 79 473 l 25
 79 551 l 25
EndSplineSet
EndChar

StartChar: yacute
Encoding: 253 253 187
Width: 469
VWidth: 0
Flags: W
HStem: -79 79<158 315> 79 79<158 315> 378 16G<315 394> 394 79<158 236> 473 79<236 315>
VStem: 79 79<158 394> 158 79<394 473> 236 79<473 551> 315 79<0 79 158 394>
LayerCount: 2
Back
Fore
SplineSet
236 551 m 25xc9
 315 551 l 25
 315 473 l 25xc9
 236 473 l 25
 236 394 l 25xd2
 158 394 l 25
 158 158 l 25xd4
 315 158 l 25
 315 394 l 25
 394 394 l 25
 394 0 l 25
 315 0 l 25
 315 -79 l 25
 158 -79 l 25
 158 0 l 25
 315 0 l 25
 315 79 l 25
 158 79 l 25xe280
 158 158 l 25
 79 158 l 25
 79 394 l 25
 158 394 l 25xd4
 158 473 l 25
 236 473 l 25xd2
 236 551 l 25xc9
EndSplineSet
EndChar

StartChar: thorn
Encoding: 254 254 188
Width: 469
VWidth: 0
Flags: W
HStem: -79 16G<79 158> 79 79<158 315> 158 79<315 394> 457 16G<79 158>
VStem: 79 236<79 158 236 315> 79 79<-79 79 158 236 315 473> 315 79<158 236>
LayerCount: 2
Back
Fore
SplineSet
79 473 m 25xd4
 158 473 l 25
 158 315 l 25xd4
 315 315 l 25
 315 236 l 25xb8
 158 236 l 25xb4
 158 158 l 25xd4
 315 158 l 25xd8
 315 236 l 25xb8
 394 236 l 25
 394 158 l 25xb2
 315 158 l 25
 315 79 l 25xd8
 158 79 l 25
 158 -79 l 25
 79 -79 l 25
 79 473 l 25xd4
EndSplineSet
EndChar

StartChar: ydieresis
Encoding: 255 255 189
Width: 469
VWidth: 0
Flags: W
HStem: -79 79<158 315> 79 79<158 315> 378 16G<79 158 315 394> 473 79<79 158 315 394>
VStem: 79 79<158 394 473 551> 315 79<0 79 158 394 473 551>
LayerCount: 2
Back
Fore
SplineSet
79 394 m 25
 158 394 l 25
 158 158 l 25
 315 158 l 25
 315 394 l 25
 394 394 l 25
 394 0 l 25
 315 0 l 25
 315 -79 l 25
 158 -79 l 25
 158 0 l 25
 315 0 l 25
 315 79 l 25
 158 79 l 25
 158 158 l 25
 79 158 l 25
 79 394 l 25
315 551 m 25
 394 551 l 25
 394 473 l 25
 315 473 l 25
 315 551 l 25
79 551 m 25
 158 551 l 25
 158 473 l 25
 79 473 l 25
 79 551 l 25
EndSplineSet
EndChar

StartChar: uni0185
Encoding: 270 389 262
Width: 469
VWidth: 0
Flags: W
LayerCount: 2
Back
SplineSet
0 6.154296875 m 29
 4.615234375 6.154296875 l 25
 4.615234375 -1.5380859375 l 25
 0 -1.5380859375 l 25
 0 6.154296875 l 29
EndSplineSet
EndChar

StartChar: pi
Encoding: 402 960 401
Width: 469
VWidth: 0
Flags: W
HStem: 0 79<315 394> 315 79<0 79 158 236 315 394>
VStem: 79 79<0 315> 236 79<79 315> 315 79<0 79>
LayerCount: 2
Back
Fore
SplineSet
0 394 m 25xf0
 394 394 l 25
 394 315 l 25xe8
 315 315 l 25
 315 79 l 25xf0
 394 79 l 25
 394 0 l 25
 315 0 l 25xe8
 315 79 l 25
 236 79 l 25
 236 315 l 25
 158 315 l 25
 158 0 l 25
 79 0 l 25
 79 315 l 25
 0 315 l 25
 0 394 l 25xf0
EndSplineSet
EndChar

StartChar: arrowup
Encoding: 403 8593 402
Width: 469
VWidth: 0
Flags: W
HStem: 0 16G<236 315> 315 79<79 158 394 473> 394 79<158 236 315 394> 536 16G<236 315>
VStem: 79 79<315 394> 236 79<0 394 473 551> 394 79<315 394>
CounterMasks: 1 0e
LayerCount: 2
Back
Fore
SplineSet
79 394 m 25xde
 158 394 l 25xde
 158 473 l 25
 236 473 l 25
 236 551 l 25
 315 551 l 25
 315 473 l 25
 394 473 l 25xbe
 394 394 l 25
 473 394 l 25
 473 315 l 25
 394 315 l 25
 394 394 l 25xde
 315 394 l 25
 315 0 l 25
 236 0 l 25
 236 394 l 25xbe
 158 394 l 25
 158 315 l 25
 79 315 l 25
 79 394 l 25xde
EndSplineSet
EndChar

StartChar: arrowdown
Encoding: 404 8595 403
Width: 469
VWidth: 0
Flags: W
HStem: 0 16G<236 315> 79 79<158 236 315 394> 158 79<79 158 394 473> 536 16G<236 315>
VStem: 79 79<158 236> 236 79<0 79 158 551> 394 79<158 236>
CounterMasks: 1 0e
LayerCount: 2
Back
Fore
SplineSet
236 551 m 25xde
 315 551 l 25
 315 158 l 25
 394 158 l 25xde
 394 236 l 25
 473 236 l 25
 473 158 l 25xbe
 394 158 l 25
 394 79 l 25
 315 79 l 25
 315 0 l 25
 236 0 l 25
 236 79 l 25
 158 79 l 25
 158 158 l 25xde
 79 158 l 25
 79 236 l 25
 158 236 l 25xbe
 158 158 l 25
 236 158 l 25
 236 551 l 25xde
EndSplineSet
EndChar

StartChar: lessequal
Encoding: 405 8804 404
Width: 469
VWidth: 0
Flags: W
HStem: -158 79<158 236> -79 79<79 158> 0 79<0 79 236 315> 79 79<158 236> 158 79<79 158> 315 79<79 158> 394 79<158 236> 473 79<236 315>
VStem: 0 79<0 79 236 315> 79 79<-79 0 158 236 315 394> 158 79<-158 -79 79 158 394 473> 236 79<0 79 473 551>
LayerCount: 2
Back
Fore
SplineSet
0 79 m 25x2080
 79 79 l 25x2080
 79 0 l 25x4080
 158 0 l 25x4040
 158 -79 l 25x8040
 236 -79 l 25
 236 -158 l 25
 158 -158 l 25x8020
 158 -79 l 25x8040
 79 -79 l 25x4040
 79 0 l 25x4080
 0 0 l 25
 0 79 l 25x2080
236 551 m 25x0110
 315 551 l 25
 315 473 l 25x0110
 236 473 l 25
 236 394 l 25x0220
 158 394 l 25
 158 315 l 25x0440
 79 315 l 25
 79 236 l 25x0c80
 158 236 l 25x0c40
 158 158 l 25x1040
 236 158 l 25x1020
 236 79 l 25x2020
 315 79 l 25
 315 0 l 25
 236 0 l 25x2010
 236 79 l 25x2020
 158 79 l 25x1020
 158 158 l 25x1040
 79 158 l 25x0840
 79 236 l 25
 0 236 l 25
 0 315 l 25
 79 315 l 25x0c80
 79 394 l 25
 158 394 l 25x0c40
 158 473 l 25
 236 473 l 25x0220
 236 551 l 25x0110
EndSplineSet
EndChar

StartChar: greaterequal
Encoding: 406 8805 405
Width: 469
VWidth: 0
Flags: W
HStem: -158 79<158 236> -79 79<236 315> 0 79<79 158 315 394> 79 79<158 236> 158 79<236 315> 315 79<236 315> 394 79<158 236> 473 79<79 158>
VStem: 79 79<0 79 473 551> 158 79<-158 -79 79 158 394 473> 236 79<-79 0 158 236 315 394> 315 79<0 79 236 315>
LayerCount: 2
Back
Fore
SplineSet
315 79 m 25x2010
 394 79 l 25
 394 0 l 25x2010
 315 0 l 25
 315 -79 l 25x4020
 236 -79 l 25
 236 -158 l 25
 158 -158 l 25
 158 -79 l 25
 236 -79 l 25x8040
 236 0 l 25
 315 0 l 25x4020
 315 79 l 25x2010
79 551 m 25x0180
 158 551 l 25x0180
 158 473 l 25x0280
 236 473 l 25x0240
 236 394 l 25x0440
 315 394 l 25
 315 315 l 25x0420
 394 315 l 25
 394 236 l 25x0c10
 315 236 l 25
 315 158 l 25x0c20
 236 158 l 25
 236 79 l 25x1040
 158 79 l 25
 158 0 l 25
 79 0 l 25
 79 79 l 25
 158 79 l 25x2080
 158 158 l 25
 236 158 l 25x1040
 236 236 l 25
 315 236 l 25
 315 315 l 25
 236 315 l 25x0c20
 236 394 l 25x0c40
 158 394 l 25x0240
 158 473 l 25x0280
 79 473 l 25
 79 551 l 25x0180
EndSplineSet
EndChar

StartChar: SF100000
Encoding: 407 9472 406
Width: 469
VWidth: 0
Flags: W
HStem: 236 79<0 473>
LayerCount: 2
Back
Fore
SplineSet
0 315 m 25
 473 315 l 25
 473 236 l 25
 0 236 l 25
 0 315 l 25
EndSplineSet
EndChar

StartChar: uni2501
Encoding: 408 9473 407
Width: 469
VWidth: 0
Flags: W
HStem: 158 158<0 473>
LayerCount: 2
Back
Fore
SplineSet
0 315 m 25
 473 315 l 25
 473 158 l 25
 0 158 l 25
 0 315 l 25
EndSplineSet
EndChar

StartChar: SF110000
Encoding: 409 9474 408
Width: 469
VWidth: 0
Flags: W
VStem: 158 79<-158 630>
LayerCount: 2
Back
Fore
SplineSet
158 630 m 25
 236 630 l 25
 236 -158 l 25
 158 -158 l 25
 158 630 l 25
EndSplineSet
EndChar

StartChar: uni2503
Encoding: 410 9475 409
Width: 469
VWidth: 0
Flags: W
VStem: 158 158<-158 630>
LayerCount: 2
Back
Fore
SplineSet
158 630 m 25
 315 630 l 25
 315 -158 l 25
 158 -158 l 25
 158 630 l 25
EndSplineSet
EndChar

StartChar: uni2504
Encoding: 411 9476 410
Width: 469
VWidth: 0
Flags: W
HStem: 236 79<0 79 158 236 315 394>
VStem: 0 79<236 315> 158 79<236 315> 315 79<236 315>
CounterMasks: 1 70
LayerCount: 2
Back
Fore
SplineSet
394 236 m 25
 315 236 l 25
 315 315 l 25
 394 315 l 25
 394 236 l 25
236 315 m 25
 236 236 l 25
 158 236 l 25
 158 315 l 25
 236 315 l 25
0 315 m 25
 79 315 l 25
 79 236 l 25
 0 236 l 25
 0 315 l 25
EndSplineSet
EndChar

StartChar: uni2505
Encoding: 412 9477 411
Width: 469
VWidth: 0
Flags: W
HStem: 158 158<0 79 158 236 315 394>
VStem: 0 79<158 315> 158 79<158 315> 315 79<158 315>
CounterMasks: 1 70
LayerCount: 2
Back
Fore
SplineSet
315 315 m 25
 394 315 l 25
 394 158 l 25
 315 158 l 25
 315 315 l 25
158 315 m 25
 236 315 l 25
 236 158 l 25
 158 158 l 25
 158 315 l 25
0 315 m 25
 79 315 l 25
 79 158 l 25
 0 158 l 25
 0 315 l 25
EndSplineSet
EndChar

StartChar: uni2506
Encoding: 413 9478 412
Width: 469
VWidth: 0
Flags: W
HStem: -16 16G<158 236> 378 16G<158 236> 473 16G<158 236>
VStem: 158 79<-158 0 79 394 473 630>
LayerCount: 2
Back
Fore
SplineSet
158 0 m 25
 236 0 l 25
 236 -158 l 25
 158 -158 l 25
 158 0 l 25
158 394 m 25
 236 394 l 25
 236 79 l 25
 158 79 l 25
 158 394 l 25
158 630 m 25
 236 630 l 25
 236 473 l 25
 158 473 l 25
 158 630 l 25
EndSplineSet
EndChar

StartChar: uni2507
Encoding: 414 9479 413
Width: 469
VWidth: 0
Flags: W
HStem: -158 158<158 315> 378 16G<158 315> 473 158<158 315>
VStem: 158 158<-158 0 79 394 473 630>
LayerCount: 2
Back
Fore
SplineSet
158 0 m 25
 315 0 l 25
 315 -158 l 25
 158 -158 l 25
 158 0 l 25
158 394 m 25
 315 394 l 25
 315 79 l 25
 158 79 l 25
 158 394 l 25
158 630 m 25
 315 630 l 25
 315 473 l 25
 158 473 l 25
 158 630 l 25
EndSplineSet
EndChar

StartChar: uni2508
Encoding: 415 9480 414
Width: 469
VWidth: 0
Flags: W
HStem: 236 79<0 79 158 236 315 394>
VStem: 0 79<236 315> 158 79<236 315> 315 79<236 315>
CounterMasks: 1 70
LayerCount: 2
Back
Fore
SplineSet
315 315 m 25
 394 315 l 25
 394 236 l 25
 315 236 l 25
 315 315 l 25
158 315 m 25
 236 315 l 25
 236 236 l 25
 158 236 l 25
 158 315 l 25
0 315 m 25
 79 315 l 25
 79 236 l 25
 0 236 l 25
 0 315 l 25
EndSplineSet
EndChar

StartChar: uni2509
Encoding: 416 9481 415
Width: 469
VWidth: 0
Flags: W
HStem: 158 158<0 79 158 236 315 394>
VStem: 0 79<158 315> 158 79<158 315> 315 79<158 315>
CounterMasks: 1 70
LayerCount: 2
Back
Fore
SplineSet
315 315 m 25
 394 315 l 25
 394 158 l 25
 315 158 l 25
 315 315 l 25
158 315 m 25
 236 315 l 25
 236 158 l 25
 158 158 l 25
 158 315 l 25
0 315 m 25
 79 315 l 25
 79 158 l 25
 0 158 l 25
 0 315 l 25
EndSplineSet
EndChar

StartChar: uni250A
Encoding: 417 9482 416
Width: 469
VWidth: 0
Flags: W
HStem: -158 79<158 236> 0 16G<158 236> 378 16G<158 236> 473 16G<158 236>
VStem: 158 79<-158 -79 0 158 236 394 473 630>
LayerCount: 2
Back
Fore
SplineSet
158 -79 m 25
 236 -79 l 25
 236 -158 l 25
 158 -158 l 25
 158 -79 l 25
158 158 m 25
 236 158 l 25
 236 0 l 25
 158 0 l 25
 158 158 l 25
158 394 m 25
 236 394 l 25
 236 236 l 25
 158 236 l 25
 158 394 l 25
158 630 m 25
 236 630 l 25
 236 473 l 25
 158 473 l 25
 158 630 l 25
EndSplineSet
EndChar

StartChar: uni250B
Encoding: 418 9483 417
Width: 469
VWidth: 0
Flags: W
HStem: -158 79<158 315> 0 158<158 315> 236 158<158 315> 473 158<158 315>
VStem: 158 158<-158 -79 0 158 236 394 473 630>
LayerCount: 2
Back
Fore
SplineSet
158 -79 m 25
 315 -79 l 25
 315 -158 l 25
 158 -158 l 25
 158 -79 l 25
158 158 m 25
 315 158 l 25
 315 0 l 25
 158 0 l 25
 158 158 l 25
158 394 m 25
 315 394 l 25
 315 236 l 25
 158 236 l 25
 158 394 l 25
158 630 m 25
 315 630 l 25
 315 473 l 25
 158 473 l 25
 158 630 l 25
EndSplineSet
EndChar

StartChar: SF010000
Encoding: 419 9484 418
Width: 469
VWidth: 0
Flags: W
HStem: 236 79<236 473>
VStem: 158 79<-158 236>
LayerCount: 2
Back
Fore
SplineSet
158 315 m 25
 473 315 l 25
 473 236 l 25
 236 236 l 25
 236 -158 l 25
 158 -158 l 25
 158 315 l 25
EndSplineSet
EndChar

StartChar: uni250D
Encoding: 420 9485 419
Width: 469
VWidth: 0
Flags: W
HStem: 158 158<236 473>
VStem: 158 79<-158 158>
LayerCount: 2
Back
Fore
SplineSet
158 315 m 25
 473 315 l 25
 473 158 l 25
 236 158 l 25
 236 -158 l 25
 158 -158 l 25
 158 315 l 25
EndSplineSet
EndChar

StartChar: uni250E
Encoding: 421 9486 420
Width: 469
VWidth: 0
Flags: W
HStem: 236 79<315 473>
VStem: 158 158<-158 236>
LayerCount: 2
Back
Fore
SplineSet
158 315 m 25
 473 315 l 25
 473 236 l 25
 315 236 l 25
 315 -158 l 25
 158 -158 l 25
 158 315 l 25
EndSplineSet
EndChar

StartChar: uni250F
Encoding: 422 9487 421
Width: 469
VWidth: 0
Flags: W
HStem: 158 158<315 473>
VStem: 158 158<-158 158>
LayerCount: 2
Back
Fore
SplineSet
158 315 m 25
 473 315 l 25
 473 158 l 25
 315 158 l 25
 315 -158 l 25
 158 -158 l 25
 158 315 l 25
EndSplineSet
EndChar

StartChar: SF030000
Encoding: 423 9488 422
Width: 469
VWidth: 0
Flags: W
HStem: 236 79<0 158>
VStem: 158 79<-158 236>
LayerCount: 2
Back
Fore
SplineSet
0 315 m 25
 236 315 l 25
 236 -158 l 25
 158 -158 l 25
 158 236 l 25
 0 236 l 25
 0 315 l 25
EndSplineSet
EndChar

StartChar: uni2511
Encoding: 424 9489 423
Width: 469
VWidth: 0
Flags: W
HStem: 158 158<0 158>
VStem: 0 236<158 315> 158 79<-158 158>
LayerCount: 2
Back
Fore
SplineSet
0 315 m 25xc0
 236 315 l 25xc0
 236 -158 l 25
 158 -158 l 25
 158 158 l 25xa0
 0 158 l 25
 0 315 l 25xc0
EndSplineSet
EndChar

StartChar: uni2512
Encoding: 425 9490 424
Width: 469
VWidth: 0
Flags: W
HStem: 236 79<0 158>
VStem: 158 158<-158 236>
LayerCount: 2
Back
Fore
SplineSet
0 315 m 25
 315 315 l 25
 315 -158 l 25
 158 -158 l 25
 158 236 l 25
 0 236 l 25
 0 315 l 25
EndSplineSet
EndChar

StartChar: uni2513
Encoding: 426 9491 425
Width: 469
VWidth: 0
Flags: W
HStem: 158 158<0 158>
VStem: 158 158<-158 158>
LayerCount: 2
Back
Fore
SplineSet
0 315 m 25
 315 315 l 25
 315 -158 l 25
 158 -158 l 25
 158 158 l 25
 0 158 l 25
 0 315 l 25
EndSplineSet
EndChar

StartChar: SF020000
Encoding: 427 9492 426
Width: 469
VWidth: 0
Flags: W
HStem: 236 79<236 473>
VStem: 158 79<315 630>
LayerCount: 2
Back
Fore
SplineSet
158 630 m 25
 236 630 l 25
 236 315 l 25
 473 315 l 25
 473 236 l 25
 158 236 l 25
 158 630 l 25
EndSplineSet
EndChar

StartChar: uni2515
Encoding: 428 9493 427
Width: 469
VWidth: 0
Flags: W
HStem: 158 158<236 473>
VStem: 158 79<315 630>
LayerCount: 2
Back
Fore
SplineSet
158 630 m 25
 236 630 l 25
 236 315 l 25
 473 315 l 25
 473 158 l 25
 158 158 l 25
 158 630 l 25
EndSplineSet
EndChar

StartChar: uni2516
Encoding: 429 9494 428
Width: 469
VWidth: 0
Flags: W
HStem: 236 79<315 473>
VStem: 158 158<315 630>
LayerCount: 2
Back
Fore
SplineSet
158 630 m 25
 315 630 l 25
 315 315 l 25
 473 315 l 25
 473 236 l 25
 158 236 l 25
 158 630 l 25
EndSplineSet
EndChar

StartChar: uni2517
Encoding: 430 9495 429
Width: 469
VWidth: 0
Flags: W
HStem: 158 158<315 473>
VStem: 158 158<315 630>
LayerCount: 2
Back
Fore
SplineSet
158 630 m 25
 315 630 l 25
 315 315 l 25
 473 315 l 25
 473 158 l 25
 158 158 l 25
 158 630 l 25
EndSplineSet
EndChar

StartChar: SF040000
Encoding: 431 9496 430
Width: 469
VWidth: 0
Flags: W
HStem: 236 79<0 158>
VStem: 158 79<315 630>
LayerCount: 2
Back
Fore
SplineSet
158 630 m 25
 236 630 l 25
 236 236 l 25
 0 236 l 25
 0 315 l 25
 158 315 l 25
 158 630 l 25
EndSplineSet
EndChar

StartChar: uni2519
Encoding: 432 9497 431
Width: 469
VWidth: 0
Flags: W
HStem: 158 158<0 158>
VStem: 0 236<158 315> 158 79<315 630>
LayerCount: 2
Back
Fore
SplineSet
158 630 m 25xa0
 236 630 l 25xa0
 236 158 l 25
 0 158 l 25
 0 315 l 25xc0
 158 315 l 25
 158 630 l 25xa0
EndSplineSet
EndChar

StartChar: uni251A
Encoding: 433 9498 432
Width: 469
VWidth: 0
Flags: W
HStem: 236 79<0 158>
VStem: 158 158<315 630>
LayerCount: 2
Back
Fore
SplineSet
158 630 m 25
 315 630 l 25
 315 236 l 25
 0 236 l 25
 0 315 l 25
 158 315 l 25
 158 630 l 25
EndSplineSet
EndChar

StartChar: uni251B
Encoding: 434 9499 433
Width: 469
VWidth: 0
Flags: W
HStem: 158 158<0 158>
VStem: 158 158<315 630>
LayerCount: 2
Back
Fore
SplineSet
158 630 m 25
 315 630 l 25
 315 158 l 25
 0 158 l 25
 0 315 l 25
 158 315 l 25
 158 630 l 25
EndSplineSet
EndChar

StartChar: SF080000
Encoding: 435 9500 434
Width: 469
VWidth: 0
Flags: W
HStem: 236 79<236 473>
VStem: 158 79<-158 236 315 630>
LayerCount: 2
Back
Fore
SplineSet
158 630 m 25
 236 630 l 25
 236 315 l 25
 473 315 l 25
 473 236 l 25
 236 236 l 25
 236 -158 l 25
 158 -158 l 25
 158 630 l 25
EndSplineSet
EndChar

StartChar: uni251D
Encoding: 436 9501 435
Width: 469
VWidth: 0
Flags: W
HStem: 158 158<236 473>
VStem: 158 79<-158 158 315 630>
LayerCount: 2
Back
Fore
SplineSet
158 630 m 25
 236 630 l 25
 236 315 l 25
 473 315 l 25
 473 158 l 25
 236 158 l 25
 236 -158 l 25
 158 -158 l 25
 158 630 l 25
EndSplineSet
EndChar

StartChar: uni251E
Encoding: 437 9502 436
Width: 469
VWidth: 0
Flags: W
HStem: 236 79<315 473>
VStem: 158 158<315 630> 158 79<-158 236>
LayerCount: 2
Back
Fore
SplineSet
158 630 m 25xc0
 315 630 l 25
 315 315 l 25xc0
 473 315 l 25
 473 236 l 25
 236 236 l 25
 236 -158 l 25
 158 -158 l 25xa0
 158 630 l 25xc0
EndSplineSet
EndChar

StartChar: uni251F
Encoding: 438 9503 437
Width: 469
VWidth: 0
Flags: W
HStem: 236 79<315 473>
VStem: 158 158<-158 236> 158 79<315 630>
LayerCount: 2
Back
Fore
SplineSet
158 630 m 25xa0
 236 630 l 25
 236 315 l 25xa0
 473 315 l 25
 473 236 l 25
 315 236 l 25
 315 -158 l 25
 158 -158 l 25xc0
 158 630 l 25xa0
EndSplineSet
EndChar

StartChar: uni2520
Encoding: 439 9504 438
Width: 469
VWidth: 0
Flags: W
HStem: 236 79<315 473>
VStem: 158 158<-158 236 315 630>
LayerCount: 2
Back
Fore
SplineSet
158 630 m 25
 315 630 l 25
 315 315 l 25
 473 315 l 25
 473 236 l 25
 315 236 l 25
 315 -158 l 25
 158 -158 l 25
 158 630 l 25
EndSplineSet
EndChar

StartChar: uni2521
Encoding: 440 9505 439
Width: 469
VWidth: 0
Flags: W
HStem: 158 158<315 473>
VStem: 158 158<315 630> 158 79<-158 158>
LayerCount: 2
Back
Fore
SplineSet
158 630 m 25xc0
 315 630 l 25
 315 315 l 25xc0
 473 315 l 25
 473 158 l 25
 236 158 l 25
 236 -158 l 25
 158 -158 l 25xa0
 158 630 l 25xc0
EndSplineSet
EndChar

StartChar: uni2522
Encoding: 441 9506 440
Width: 469
VWidth: 0
Flags: W
HStem: 158 158<315 473>
VStem: 158 158<-158 158> 158 79<315 630>
LayerCount: 2
Back
Fore
SplineSet
158 630 m 25xa0
 236 630 l 25
 236 315 l 25xa0
 473 315 l 25
 473 158 l 25
 315 158 l 25
 315 -158 l 25
 158 -158 l 25xc0
 158 630 l 25xa0
EndSplineSet
EndChar

StartChar: uni2523
Encoding: 442 9507 441
Width: 469
VWidth: 0
Flags: W
HStem: 158 158<315 473>
VStem: 158 158<-158 158 315 630>
LayerCount: 2
Back
Fore
SplineSet
158 630 m 25
 315 630 l 25
 315 315 l 25
 473 315 l 25
 473 158 l 25
 315 158 l 25
 315 -158 l 25
 158 -158 l 25
 158 630 l 25
EndSplineSet
EndChar

StartChar: SF090000
Encoding: 443 9508 442
Width: 469
VWidth: 0
Flags: W
HStem: 236 79<0 158>
VStem: 158 79<-158 236 315 630>
LayerCount: 2
Back
Fore
SplineSet
158 630 m 25
 236 630 l 25
 236 -158 l 25
 158 -158 l 25
 158 236 l 25
 0 236 l 25
 0 315 l 25
 158 315 l 25
 158 630 l 25
EndSplineSet
EndChar

StartChar: uni2525
Encoding: 444 9509 443
Width: 469
VWidth: 0
Flags: W
HStem: 158 158<0 158>
VStem: 0 236<158 315> 158 79<-158 158 315 630>
LayerCount: 2
Back
Fore
SplineSet
158 630 m 25xa0
 236 630 l 25
 236 -158 l 25
 158 -158 l 25
 158 158 l 25xa0
 0 158 l 25
 0 315 l 25xc0
 158 315 l 25
 158 630 l 25xa0
EndSplineSet
EndChar

StartChar: uni2526
Encoding: 445 9510 444
Width: 469
VWidth: 0
Flags: W
HStem: 236 79<0 158>
VStem: 158 158<315 630> 158 79<-158 236>
LayerCount: 2
Back
Fore
SplineSet
158 630 m 25xc0
 315 630 l 25
 315 315 l 25xc0
 236 315 l 25
 236 -158 l 25
 158 -158 l 25
 158 236 l 25xa0
 0 236 l 25
 0 315 l 25
 158 315 l 25
 158 630 l 25xc0
EndSplineSet
EndChar

StartChar: uni2527
Encoding: 446 9511 445
Width: 469
VWidth: 0
Flags: W
HStem: 236 79<0 158>
VStem: 158 158<-158 236> 158 79<315 630>
LayerCount: 2
Back
Fore
SplineSet
158 630 m 25xa0
 236 630 l 25
 236 236 l 25xa0
 315 236 l 25
 315 -158 l 25
 158 -158 l 25
 158 236 l 25xc0
 0 236 l 25
 0 315 l 25
 158 315 l 25
 158 630 l 25xa0
EndSplineSet
EndChar

StartChar: uni2528
Encoding: 447 9512 446
Width: 469
VWidth: 0
Flags: W
HStem: 236 79<0 158>
VStem: 158 158<-158 236 315 630>
LayerCount: 2
Back
Fore
SplineSet
158 630 m 25
 315 630 l 25
 315 -158 l 25
 158 -158 l 25
 158 236 l 25
 0 236 l 25
 0 315 l 25
 158 315 l 25
 158 630 l 25
EndSplineSet
EndChar

StartChar: uni2529
Encoding: 448 9513 447
Width: 469
VWidth: 0
Flags: W
HStem: 158 158<0 158>
VStem: 158 158<315 630> 158 79<-158 158>
LayerCount: 2
Back
Fore
SplineSet
158 630 m 25xc0
 315 630 l 25
 315 158 l 25xc0
 236 158 l 25
 236 -158 l 25
 158 -158 l 25
 158 158 l 25xa0
 0 158 l 25
 0 315 l 25
 158 315 l 25
 158 630 l 25xc0
EndSplineSet
EndChar

StartChar: uni252A
Encoding: 449 9514 448
Width: 469
VWidth: 0
Flags: W
HStem: 158 158<0 158>
VStem: 158 158<-158 158> 158 79<315 630>
LayerCount: 2
Back
Fore
SplineSet
158 630 m 25xa0
 236 630 l 25
 236 315 l 25xa0
 315 315 l 25
 315 -158 l 25
 158 -158 l 25
 158 158 l 25xc0
 0 158 l 25
 0 315 l 25
 158 315 l 25
 158 630 l 25xa0
EndSplineSet
EndChar

StartChar: uni252B
Encoding: 450 9515 449
Width: 469
VWidth: 0
Flags: W
HStem: 158 158<0 158>
VStem: 158 158<-158 158 315 630>
LayerCount: 2
Back
Fore
SplineSet
158 630 m 25
 315 630 l 25
 315 -158 l 25
 158 -158 l 25
 158 158 l 25
 0 158 l 25
 0 315 l 25
 158 315 l 25
 158 630 l 25
EndSplineSet
EndChar

StartChar: SF060000
Encoding: 451 9516 450
Width: 469
VWidth: 0
Flags: W
HStem: 236 79<0 158 236 473>
VStem: 158 79<-158 236>
LayerCount: 2
Back
Fore
SplineSet
0 315 m 25
 473 315 l 25
 473 236 l 25
 236 236 l 25
 236 -158 l 25
 158 -158 l 25
 158 236 l 25
 0 236 l 25
 0 315 l 25
EndSplineSet
EndChar

StartChar: uni252D
Encoding: 452 9517 451
Width: 469
VWidth: 0
Flags: W
HStem: 158 158<0 158> 236 79<236 473>
VStem: 158 79<-158 158>
LayerCount: 2
Back
Fore
SplineSet
0 315 m 25xa0
 473 315 l 25
 473 236 l 25
 236 236 l 25x60
 236 -158 l 25
 158 -158 l 25
 158 158 l 25
 0 158 l 25
 0 315 l 25xa0
EndSplineSet
EndChar

StartChar: uni252E
Encoding: 453 9518 452
Width: 469
VWidth: 0
Flags: W
HStem: 158 158<236 473> 236 79<0 158>
VStem: 158 79<-158 158>
LayerCount: 2
Back
Fore
SplineSet
0 315 m 25x60
 473 315 l 25
 473 158 l 25
 236 158 l 25xa0
 236 -158 l 25
 158 -158 l 25
 158 236 l 25
 0 236 l 25
 0 315 l 25x60
EndSplineSet
EndChar

StartChar: uni252F
Encoding: 454 9519 453
Width: 469
VWidth: 0
Flags: W
HStem: 158 158<0 158 236 473>
VStem: 158 79<-158 158>
LayerCount: 2
Back
Fore
SplineSet
0 315 m 25
 473 315 l 25
 473 158 l 25
 236 158 l 25
 236 -158 l 25
 158 -158 l 25
 158 158 l 25
 0 158 l 25
 0 315 l 25
EndSplineSet
EndChar

StartChar: uni2530
Encoding: 455 9520 454
Width: 469
VWidth: 0
Flags: W
HStem: 236 79<0 158 315 473>
VStem: 158 158<-158 236>
LayerCount: 2
Back
Fore
SplineSet
0 315 m 25
 473 315 l 25
 473 236 l 25
 315 236 l 25
 315 -158 l 25
 158 -158 l 25
 158 236 l 25
 0 236 l 25
 0 315 l 25
EndSplineSet
EndChar

StartChar: uni2531
Encoding: 456 9521 455
Width: 469
VWidth: 0
Flags: W
HStem: 158 158<0 158> 236 79<315 473>
VStem: 158 158<-158 158>
LayerCount: 2
Back
Fore
SplineSet
0 315 m 25xa0
 473 315 l 25
 473 236 l 25
 315 236 l 25x60
 315 -158 l 25
 158 -158 l 25
 158 158 l 25
 0 158 l 25
 0 315 l 25xa0
EndSplineSet
EndChar

StartChar: uni2532
Encoding: 457 9522 456
Width: 469
VWidth: 0
Flags: W
HStem: 158 158<315 473> 236 79<0 158>
VStem: 158 158<-158 158>
LayerCount: 2
Back
Fore
SplineSet
0 315 m 1x60
 473 315 l 1
 473 158 l 1
 315 158 l 1xa0
 315 -158 l 1
 158 -158 l 1
 158 236 l 1
 0 236 l 1
 0 315 l 1x60
EndSplineSet
EndChar

StartChar: uni2533
Encoding: 458 9523 457
Width: 469
VWidth: 0
Flags: W
HStem: 158 158<0 158 315 473>
VStem: 158 158<-158 158>
LayerCount: 2
Back
Fore
SplineSet
0 315 m 25
 473 315 l 25
 473 158 l 25
 315 158 l 25
 315 -158 l 25
 158 -158 l 25
 158 158 l 25
 0 158 l 25
 0 315 l 25
EndSplineSet
EndChar

StartChar: SF070000
Encoding: 459 9524 458
Width: 469
VWidth: 0
Flags: W
HStem: 236 79<0 158 236 473>
VStem: 158 79<315 630>
LayerCount: 2
Back
Fore
SplineSet
0 315 m 25
 158 315 l 25
 158 630 l 25
 236 630 l 25
 236 315 l 25
 473 315 l 25
 473 236 l 25
 0 236 l 25
 0 315 l 25
EndSplineSet
EndChar

StartChar: uni2535
Encoding: 460 9525 459
Width: 469
VWidth: 0
Flags: W
HStem: 158 158<0 158> 236 79<236 473>
VStem: 158 79<315 630>
LayerCount: 2
Back
Fore
SplineSet
158 630 m 25xa0
 236 630 l 25
 236 315 l 25
 473 315 l 25
 473 236 l 25
 158 236 l 25x60
 158 158 l 25
 0 158 l 25
 0 315 l 25
 158 315 l 25
 158 630 l 25xa0
EndSplineSet
EndChar

StartChar: uni2536
Encoding: 461 9526 460
Width: 469
VWidth: 0
Flags: W
HStem: 158 158<236 473> 236 79<0 158>
VStem: 158 79<315 630>
LayerCount: 2
Back
Fore
SplineSet
158 630 m 25x60
 236 630 l 25
 236 315 l 25
 473 315 l 25
 473 158 l 25
 236 158 l 25xa0
 236 236 l 25
 0 236 l 25
 0 315 l 25
 158 315 l 25
 158 630 l 25x60
EndSplineSet
EndChar

StartChar: uni2537
Encoding: 462 9527 461
Width: 469
VWidth: 0
Flags: W
HStem: 158 158<0 158 236 473>
VStem: 158 79<315 630>
LayerCount: 2
Back
Fore
SplineSet
158 630 m 25
 236 630 l 25
 236 315 l 25
 473 315 l 25
 473 158 l 25
 0 158 l 25
 0 315 l 25
 158 315 l 25
 158 630 l 25
EndSplineSet
EndChar

StartChar: uni2538
Encoding: 463 9528 462
Width: 469
VWidth: 0
Flags: W
HStem: 236 79<0 158 315 473>
VStem: 158 158<315 630>
LayerCount: 2
Back
Fore
SplineSet
158 630 m 25
 315 630 l 25
 315 315 l 25
 473 315 l 25
 473 236 l 25
 0 236 l 25
 0 315 l 25
 158 315 l 25
 158 630 l 25
EndSplineSet
EndChar

StartChar: uni2539
Encoding: 464 9529 463
Width: 469
VWidth: 0
Flags: W
HStem: 158 158<0 158> 236 79<315 473>
VStem: 158 158<315 630>
LayerCount: 2
Back
Fore
SplineSet
158 630 m 25xa0
 315 630 l 25
 315 315 l 25
 473 315 l 25
 473 236 l 25
 236 236 l 25x60
 236 158 l 25
 0 158 l 25
 0 315 l 25
 158 315 l 25
 158 630 l 25xa0
EndSplineSet
EndChar

StartChar: uni253A
Encoding: 465 9530 464
Width: 469
VWidth: 0
Flags: W
HStem: 158 158<315 473> 236 79<0 158>
VStem: 158 158<315 630>
LayerCount: 2
Back
Fore
SplineSet
158 630 m 25x60
 315 630 l 25
 315 315 l 25
 473 315 l 25
 473 158 l 25
 236 158 l 25xa0
 236 236 l 25
 0 236 l 25
 0 315 l 25
 158 315 l 25
 158 630 l 25x60
EndSplineSet
EndChar

StartChar: uni253B
Encoding: 466 9531 465
Width: 469
VWidth: 0
Flags: W
HStem: 158 158<0 158 315 473>
VStem: 158 158<315 630>
LayerCount: 2
Back
Fore
SplineSet
158 630 m 25
 315 630 l 25
 315 315 l 25
 473 315 l 25
 473 158 l 25
 0 158 l 25
 0 315 l 25
 158 315 l 25
 158 630 l 25
EndSplineSet
EndChar

StartChar: SF050000
Encoding: 467 9532 466
Width: 469
VWidth: 0
Flags: W
HStem: 236 79<0 158 236 473>
VStem: 158 79<-158 236 315 630>
LayerCount: 2
Back
Fore
SplineSet
158 630 m 25
 236 630 l 25
 236 315 l 25
 473 315 l 25
 473 236 l 25
 236 236 l 25
 236 -158 l 25
 158 -158 l 25
 158 236 l 25
 0 236 l 25
 0 315 l 25
 158 315 l 25
 158 630 l 25
EndSplineSet
EndChar

StartChar: uni253D
Encoding: 468 9533 467
Width: 469
VWidth: 0
Flags: W
HStem: 158 158<0 158> 236 79<236 473>
VStem: 158 79<-158 158 315 630>
LayerCount: 2
Back
Fore
SplineSet
158 630 m 25xa0
 236 630 l 25
 236 315 l 25
 473 315 l 25
 473 236 l 25
 236 236 l 25x60
 236 -158 l 25
 158 -158 l 25
 158 158 l 25
 0 158 l 25
 0 315 l 25
 158 315 l 25
 158 630 l 25xa0
EndSplineSet
EndChar

StartChar: uni253E
Encoding: 469 9534 468
Width: 469
VWidth: 0
Flags: W
HStem: 158 158<236 473> 236 79<0 158>
VStem: 158 79<-158 158 315 630>
LayerCount: 2
Back
Fore
SplineSet
158 630 m 25x60
 236 630 l 25
 236 315 l 25
 473 315 l 25
 473 158 l 25
 236 158 l 25xa0
 236 -158 l 25
 158 -158 l 25
 158 236 l 25
 0 236 l 25
 0 315 l 25
 158 315 l 25
 158 630 l 25x60
EndSplineSet
EndChar

StartChar: uni253F
Encoding: 470 9535 469
Width: 469
VWidth: 0
Flags: W
HStem: 158 158<0 158 236 473>
VStem: 158 79<-158 158 315 630>
LayerCount: 2
Back
Fore
SplineSet
158 630 m 25
 236 630 l 25
 236 315 l 25
 473 315 l 25
 473 158 l 25
 236 158 l 25
 236 -158 l 25
 158 -158 l 25
 158 158 l 25
 0 158 l 25
 0 315 l 25
 158 315 l 25
 158 630 l 25
EndSplineSet
EndChar

StartChar: uni2540
Encoding: 471 9536 470
Width: 469
VWidth: 0
Flags: W
HStem: 236 79<0 158 315 473>
VStem: 158 158<315 630> 158 79<-158 236>
LayerCount: 2
Back
Fore
SplineSet
158 630 m 25xc0
 315 630 l 25
 315 315 l 25xc0
 473 315 l 25
 473 236 l 25
 236 236 l 25
 236 -158 l 25
 158 -158 l 25
 158 236 l 25xa0
 0 236 l 25
 0 315 l 25
 158 315 l 25
 158 630 l 25xc0
EndSplineSet
EndChar

StartChar: uni2541
Encoding: 472 9537 471
Width: 469
VWidth: 0
Flags: W
HStem: 236 79<0 158 315 473>
VStem: 158 158<-158 236> 158 79<315 630>
LayerCount: 2
Back
Fore
SplineSet
158 630 m 25xa0
 236 630 l 25
 236 315 l 25xa0
 473 315 l 25
 473 236 l 25
 315 236 l 25
 315 -158 l 25
 158 -158 l 25
 158 236 l 25xc0
 0 236 l 25
 0 315 l 25
 158 315 l 25
 158 630 l 25xa0
EndSplineSet
EndChar

StartChar: uni2542
Encoding: 473 9538 472
Width: 469
VWidth: 0
Flags: W
HStem: 236 79<0 158 315 473>
VStem: 158 158<-158 236 315 630>
LayerCount: 2
Back
Fore
SplineSet
158 630 m 25
 315 630 l 25
 315 315 l 25
 473 315 l 25
 473 236 l 25
 315 236 l 25
 315 -158 l 25
 158 -158 l 25
 158 236 l 25
 0 236 l 25
 0 315 l 25
 158 315 l 25
 158 630 l 25
EndSplineSet
EndChar

StartChar: uni2543
Encoding: 474 9539 473
Width: 469
VWidth: 0
Flags: W
HStem: 158 158<0 158> 236 79<315 473>
VStem: 158 158<315 630> 158 79<-158 158>
LayerCount: 2
Back
Fore
SplineSet
158 630 m 25xa0
 315 630 l 25
 315 315 l 25x60
 473 315 l 25
 473 236 l 25
 236 236 l 25x50
 236 -158 l 25
 158 -158 l 25
 158 158 l 25x90
 0 158 l 25
 0 315 l 25
 158 315 l 25
 158 630 l 25xa0
EndSplineSet
EndChar

StartChar: uni2544
Encoding: 475 9540 474
Width: 469
VWidth: 0
Flags: W
HStem: 158 158<315 473> 236 79<0 158>
VStem: 158 158<315 630> 158 79<-158 158>
LayerCount: 2
Back
Fore
SplineSet
158 630 m 25x60
 315 630 l 25
 315 315 l 25xa0
 473 315 l 25
 473 158 l 25
 236 158 l 25x90
 236 -158 l 25
 158 -158 l 25
 158 236 l 25x50
 0 236 l 25
 0 315 l 25
 158 315 l 25
 158 630 l 25x60
EndSplineSet
EndChar

StartChar: uni2545
Encoding: 476 9541 475
Width: 469
VWidth: 0
Flags: W
HStem: 158 158<0 158> 236 79<315 473>
VStem: 158 158<-158 158> 158 79<315 630>
LayerCount: 2
Back
Fore
SplineSet
158 630 m 25x90
 236 630 l 25
 236 315 l 25x50
 473 315 l 25
 473 236 l 25
 315 236 l 25x60
 315 -158 l 25
 158 -158 l 25
 158 158 l 25xa0
 0 158 l 25
 0 315 l 25
 158 315 l 25
 158 630 l 25x90
EndSplineSet
EndChar

StartChar: uni2546
Encoding: 477 9542 476
Width: 469
VWidth: 0
Flags: W
HStem: 158 158<315 473> 236 79<0 158>
VStem: 158 158<-158 158> 158 79<315 630>
LayerCount: 2
Back
Fore
SplineSet
158 630 m 25x50
 236 630 l 25
 236 315 l 25x50
 473 315 l 25
 473 158 l 25
 315 158 l 25
 315 -158 l 25
 158 -158 l 25xa0
 158 236 l 25
 0 236 l 25
 0 315 l 25
 158 315 l 25
 158 630 l 25x50
EndSplineSet
EndChar

StartChar: uni2547
Encoding: 478 9543 477
Width: 469
VWidth: 0
Flags: W
HStem: 158 158<0 158 315 473>
VStem: 158 158<315 630> 158 79<-158 158>
LayerCount: 2
Back
Fore
SplineSet
158 630 m 25xc0
 315 630 l 25
 315 315 l 25xc0
 473 315 l 25
 473 158 l 25
 236 158 l 25
 236 -158 l 25
 158 -158 l 25
 158 158 l 25xa0
 0 158 l 25
 0 315 l 25
 158 315 l 25
 158 630 l 25xc0
EndSplineSet
EndChar

StartChar: uni2548
Encoding: 479 9544 478
Width: 469
VWidth: 0
Flags: W
HStem: 158 158<0 158 315 473>
VStem: 158 158<-158 158> 158 79<315 630>
LayerCount: 2
Back
Fore
SplineSet
158 630 m 25xa0
 236 630 l 25
 236 315 l 25xa0
 473 315 l 25
 473 158 l 25
 315 158 l 25
 315 -158 l 25
 158 -158 l 25
 158 158 l 25xc0
 0 158 l 25
 0 315 l 25
 158 315 l 25
 158 630 l 25xa0
EndSplineSet
EndChar

StartChar: uni2549
Encoding: 480 9545 479
Width: 469
VWidth: 0
Flags: W
HStem: 158 158<0 158> 236 79<315 473>
VStem: 158 158<-158 158 315 630>
LayerCount: 2
Back
Fore
SplineSet
158 630 m 25xa0
 315 630 l 25
 315 315 l 25
 473 315 l 25
 473 236 l 25
 315 236 l 25x60
 315 -158 l 25
 158 -158 l 25
 158 158 l 25
 0 158 l 25
 0 315 l 25
 158 315 l 25
 158 630 l 25xa0
EndSplineSet
EndChar

StartChar: uni254A
Encoding: 481 9546 480
Width: 469
VWidth: 0
Flags: W
HStem: 158 158<315 473> 236 79<0 158>
VStem: 158 158<-158 158 315 630>
LayerCount: 2
Back
Fore
SplineSet
158 630 m 25x60
 315 630 l 25
 315 315 l 25
 473 315 l 25
 473 158 l 25
 315 158 l 25xa0
 315 -158 l 25
 158 -158 l 25
 158 236 l 25
 0 236 l 25
 0 315 l 25
 158 315 l 25
 158 630 l 25x60
EndSplineSet
EndChar

StartChar: uni254B
Encoding: 482 9547 481
Width: 469
VWidth: 0
Flags: W
HStem: 158 158<0 158 315 473>
VStem: 158 158<-158 158 315 630>
LayerCount: 2
Back
Fore
SplineSet
158 630 m 25
 315 630 l 25
 315 315 l 25
 473 315 l 25
 473 158 l 25
 315 158 l 25
 315 -158 l 25
 158 -158 l 25
 158 158 l 25
 0 158 l 25
 0 315 l 25
 158 315 l 25
 158 630 l 25
EndSplineSet
EndChar

StartChar: uni254C
Encoding: 483 9548 482
Width: 469
VWidth: 0
Flags: W
HStem: 236 79<0 158 315 473>
LayerCount: 2
Back
Fore
SplineSet
315 315 m 25
 473 315 l 25
 473 236 l 25
 315 236 l 25
 315 315 l 25
0 315 m 25
 158 315 l 25
 158 236 l 25
 0 236 l 25
 0 315 l 25
EndSplineSet
EndChar

StartChar: uni254D
Encoding: 484 9549 483
Width: 469
VWidth: 0
Flags: W
HStem: 158 158<0 158 315 473>
VStem: 0 158<158 315> 315 158<158 315>
LayerCount: 2
Back
Fore
SplineSet
315 315 m 25
 473 315 l 25
 473 158 l 25
 315 158 l 25
 315 315 l 25
0 315 m 25
 158 315 l 25
 158 158 l 25
 0 158 l 25
 0 315 l 25
EndSplineSet
EndChar

StartChar: uni254E
Encoding: 485 9550 484
Width: 469
VWidth: 0
Flags: W
VStem: 158 79<-158 158 315 630>
LayerCount: 2
Back
Fore
SplineSet
158 158 m 25
 236 158 l 25
 236 -158 l 25
 158 -158 l 25
 158 158 l 25
158 630 m 25
 236 630 l 25
 236 315 l 25
 158 315 l 25
 158 630 l 25
EndSplineSet
EndChar

StartChar: uni254F
Encoding: 486 9551 485
Width: 469
VWidth: 0
Flags: W
VStem: 158 158<-158 158 315 630>
LayerCount: 2
Back
Fore
SplineSet
158 158 m 25
 315 158 l 25
 315 -158 l 25
 158 -158 l 25
 158 158 l 25
158 630 m 25
 315 630 l 25
 315 315 l 25
 158 315 l 25
 158 630 l 25
EndSplineSet
EndChar

StartChar: SF430000
Encoding: 487 9552 486
Width: 469
VWidth: 0
Flags: W
HStem: 158 79<0 473> 315 79<0 473>
LayerCount: 2
Back
Fore
SplineSet
0 236 m 25
 473 236 l 25
 473 158 l 25
 0 158 l 25
 0 236 l 25
0 394 m 25
 473 394 l 25
 473 315 l 25
 0 315 l 25
 0 394 l 25
EndSplineSet
EndChar

StartChar: SF240000
Encoding: 488 9553 487
Width: 469
VWidth: 0
Flags: W
VStem: 79 79<-158 630> 236 79<-158 630>
LayerCount: 2
Back
Fore
SplineSet
236 630 m 25
 315 630 l 25
 315 -158 l 25
 236 -158 l 25
 236 630 l 25
79 630 m 25
 158 630 l 25
 158 -158 l 25
 79 -158 l 25
 79 630 l 25
EndSplineSet
EndChar

StartChar: SF510000
Encoding: 489 9554 488
Width: 469
VWidth: 0
Flags: W
HStem: 158 79<236 473> 315 79<236 473>
VStem: 158 79<-158 158 236 315>
LayerCount: 2
Back
Fore
SplineSet
158 394 m 25
 473 394 l 25
 473 315 l 25
 236 315 l 25
 236 236 l 25
 473 236 l 25
 473 158 l 25
 236 158 l 25
 236 -158 l 25
 158 -158 l 25
 158 394 l 25
EndSplineSet
EndChar

StartChar: SF520000
Encoding: 490 9555 489
Width: 469
VWidth: 0
Flags: W
HStem: 236 79<158 236 315 473>
VStem: 79 79<-158 236> 236 79<-158 236>
LayerCount: 2
Back
Fore
SplineSet
79 315 m 25
 473 315 l 25
 473 236 l 25
 315 236 l 25
 315 -158 l 25
 236 -158 l 25
 236 236 l 25
 158 236 l 25
 158 -158 l 25
 79 -158 l 25
 79 315 l 25
EndSplineSet
EndChar

StartChar: SF390000
Encoding: 491 9556 490
Width: 469
VWidth: 0
Flags: W
HStem: 158 79<315 473> 315 79<158 473>
VStem: 79 79<-158 315> 236 79<-158 158>
LayerCount: 2
Back
Fore
SplineSet
236 236 m 25
 473 236 l 25
 473 158 l 25
 315 158 l 25
 315 -158 l 25
 236 -158 l 25
 236 236 l 25
79 394 m 25
 473 394 l 25
 473 315 l 25
 158 315 l 25
 158 -158 l 25
 79 -158 l 25
 79 394 l 25
EndSplineSet
EndChar

StartChar: SF220000
Encoding: 492 9557 491
Width: 469
VWidth: 0
Flags: W
HStem: 158 79<0 158> 315 79<0 158>
VStem: 0 236<158 236 315 394> 158 79<-158 158 236 315>
LayerCount: 2
Back
Fore
SplineSet
0 394 m 25xe0
 236 394 l 25xe0
 236 -158 l 25
 158 -158 l 25
 158 158 l 25xd0
 0 158 l 25
 0 236 l 25xe0
 158 236 l 25
 158 315 l 25xd0
 0 315 l 25
 0 394 l 25xe0
EndSplineSet
EndChar

StartChar: SF210000
Encoding: 493 9558 492
Width: 469
VWidth: 0
Flags: W
HStem: 236 79<0 79 158 236>
VStem: 79 79<-158 236> 236 79<-158 236>
LayerCount: 2
Back
Fore
SplineSet
0 315 m 25
 315 315 l 25
 315 -158 l 25
 236 -158 l 25
 236 236 l 25
 158 236 l 25
 158 -158 l 25
 79 -158 l 25
 79 236 l 25
 0 236 l 25
 0 315 l 25
EndSplineSet
EndChar

StartChar: SF250000
Encoding: 494 9559 493
Width: 469
VWidth: 0
Flags: W
HStem: 158 79<0 79> 315 79<0 236>
VStem: 79 79<-158 158> 236 79<-158 315>
LayerCount: 2
Back
Fore
SplineSet
0 236 m 25
 158 236 l 25
 158 -158 l 25
 79 -158 l 25
 79 158 l 25
 0 158 l 25
 0 236 l 25
0 394 m 25
 315 394 l 25
 315 -158 l 25
 236 -158 l 25
 236 315 l 25
 0 315 l 25
 0 394 l 25
EndSplineSet
EndChar

StartChar: SF500000
Encoding: 495 9560 494
Width: 469
VWidth: 0
Flags: W
HStem: 158 79<236 473> 315 79<236 473>
VStem: 158 79<236 315 394 630>
LayerCount: 2
Back
Fore
SplineSet
158 630 m 25
 236 630 l 25
 236 394 l 25
 473 394 l 25
 473 315 l 25
 236 315 l 25
 236 236 l 25
 473 236 l 25
 473 158 l 25
 158 158 l 25
 158 630 l 25
EndSplineSet
EndChar

StartChar: SF490000
Encoding: 496 9561 495
Width: 469
VWidth: 0
Flags: W
HStem: 236 79<158 236 315 473>
VStem: 79 79<315 630> 236 79<315 630>
LayerCount: 2
Back
Fore
SplineSet
79 630 m 25
 158 630 l 25
 158 315 l 25
 236 315 l 25
 236 630 l 25
 315 630 l 25
 315 315 l 25
 473 315 l 25
 473 236 l 25
 79 236 l 25
 79 630 l 25
EndSplineSet
EndChar

StartChar: SF380000
Encoding: 497 9562 496
Width: 469
VWidth: 0
Flags: W
HStem: 158 79<158 473> 315 79<315 473>
VStem: 79 79<236 630> 236 79<394 630>
LayerCount: 2
Back
Fore
SplineSet
236 630 m 25
 315 630 l 25
 315 394 l 25
 473 394 l 25
 473 315 l 25
 236 315 l 25
 236 630 l 25
79 630 m 25
 158 630 l 25
 158 236 l 25
 473 236 l 25
 473 158 l 25
 79 158 l 25
 79 630 l 25
EndSplineSet
EndChar

StartChar: SF280000
Encoding: 498 9563 497
Width: 469
VWidth: 0
Flags: W
HStem: 158 79<0 158> 315 79<0 158>
VStem: 0 236<158 236 315 394> 158 79<236 315 394 630>
LayerCount: 2
Back
Fore
SplineSet
158 630 m 25xd0
 236 630 l 25xd0
 236 158 l 25
 0 158 l 25
 0 236 l 25xe0
 158 236 l 25
 158 315 l 25xd0
 0 315 l 25
 0 394 l 25xe0
 158 394 l 25
 158 630 l 25xd0
EndSplineSet
EndChar

StartChar: SF270000
Encoding: 499 9564 498
Width: 469
VWidth: 0
Flags: W
HStem: 236 79<0 79 158 236>
VStem: 79 79<315 630> 236 79<315 630>
LayerCount: 2
Back
Fore
SplineSet
79 630 m 25
 158 630 l 25
 158 315 l 25
 236 315 l 25
 236 630 l 25
 315 630 l 25
 315 236 l 25
 0 236 l 25
 0 315 l 25
 79 315 l 25
 79 630 l 25
EndSplineSet
EndChar

StartChar: SF260000
Encoding: 500 9565 499
Width: 469
VWidth: 0
Flags: W
HStem: 158 79<0 236> 315 79<0 79>
VStem: 79 79<394 630> 236 79<236 630>
LayerCount: 2
Back
Fore
SplineSet
236 630 m 25
 315 630 l 25
 315 158 l 25
 0 158 l 25
 0 236 l 25
 236 236 l 25
 236 630 l 25
79 630 m 25
 158 630 l 25
 158 315 l 25
 0 315 l 25
 0 394 l 25
 79 394 l 25
 79 630 l 25
EndSplineSet
EndChar

StartChar: SF360000
Encoding: 501 9566 500
Width: 469
VWidth: 0
Flags: W
HStem: 158 79<236 473> 315 79<236 473>
VStem: 158 79<-158 158 236 315 394 630>
LayerCount: 2
Back
Fore
SplineSet
158 630 m 25
 236 630 l 25
 236 394 l 25
 473 394 l 25
 473 315 l 25
 236 315 l 25
 236 236 l 25
 473 236 l 25
 473 158 l 25
 236 158 l 25
 236 -158 l 25
 158 -158 l 25
 158 630 l 25
EndSplineSet
EndChar

StartChar: SF370000
Encoding: 502 9567 501
Width: 469
VWidth: 0
Flags: W
HStem: 236 79<315 473>
VStem: 79 79<-158 630> 236 79<-158 236 315 630>
LayerCount: 2
Back
Fore
SplineSet
236 630 m 25
 315 630 l 25
 315 315 l 25
 473 315 l 25
 473 236 l 25
 315 236 l 25
 315 -158 l 25
 236 -158 l 25
 236 630 l 25
79 630 m 25
 158 630 l 25
 158 -158 l 25
 79 -158 l 25
 79 630 l 25
EndSplineSet
EndChar

StartChar: SF420000
Encoding: 503 9568 502
Width: 469
VWidth: 0
Flags: W
HStem: 158 79<315 473> 315 79<315 473>
VStem: 79 79<-158 630> 236 236<158 236 315 394> 236 79<-158 158 394 630>
LayerCount: 2
Back
Fore
SplineSet
236 236 m 25xf0
 473 236 l 25
 473 158 l 25xf0
 315 158 l 25
 315 -158 l 25
 236 -158 l 25xe8
 236 236 l 25xf0
236 630 m 25xe8
 315 630 l 25
 315 394 l 25xe8
 473 394 l 25
 473 315 l 25
 236 315 l 25xf0
 236 630 l 25xe8
79 630 m 25
 158 630 l 25
 158 -158 l 25
 79 -158 l 25
 79 630 l 25
EndSplineSet
EndChar

StartChar: SF190000
Encoding: 504 9569 503
Width: 469
VWidth: 0
Flags: W
HStem: 158 79<0 158> 315 79<0 158>
VStem: 0 236<158 236 315 394> 158 79<-158 158 236 315 394 630>
LayerCount: 2
Back
Fore
SplineSet
0 394 m 25xe0
 158 394 l 25
 158 630 l 25
 236 630 l 25
 236 -158 l 25
 158 -158 l 25
 158 158 l 25xd0
 0 158 l 25
 0 236 l 25xe0
 158 236 l 25
 158 315 l 25xd0
 0 315 l 25
 0 394 l 25xe0
EndSplineSet
EndChar

StartChar: SF200000
Encoding: 505 9570 504
Width: 469
VWidth: 0
Flags: W
HStem: 236 79<0 79>
VStem: 79 79<-158 236 315 630> 236 79<-158 630>
LayerCount: 2
Back
Fore
SplineSet
236 630 m 25
 315 630 l 25
 315 -158 l 25
 236 -158 l 25
 236 630 l 25
79 630 m 25
 158 630 l 25
 158 -158 l 25
 79 -158 l 25
 79 236 l 25
 0 236 l 25
 0 315 l 25
 79 315 l 25
 79 630 l 25
EndSplineSet
EndChar

StartChar: SF230000
Encoding: 506 9571 505
Width: 469
VWidth: 0
Flags: W
HStem: 158 79<0 79> 315 79<0 79>
VStem: 0 158<158 236 315 394> 79 79<-158 158 394 630> 236 79<-158 630>
LayerCount: 2
Back
Fore
SplineSet
236 630 m 25xc8
 315 630 l 25
 315 -158 l 25
 236 -158 l 25
 236 630 l 25xc8
0 236 m 25xe8
 158 236 l 25xe8
 158 -158 l 25
 79 -158 l 25
 79 158 l 25xd8
 0 158 l 25
 0 236 l 25xe8
79 630 m 25xd8
 158 630 l 25xd8
 158 315 l 25
 0 315 l 25
 0 394 l 25xe8
 79 394 l 25
 79 630 l 25xd8
EndSplineSet
EndChar

StartChar: SF470000
Encoding: 507 9572 506
Width: 469
VWidth: 0
Flags: W
HStem: 158 79<0 158 236 473> 315 79<0 473>
VStem: 158 79<-158 158>
LayerCount: 2
Back
Fore
SplineSet
0 236 m 25
 473 236 l 25
 473 158 l 25
 236 158 l 25
 236 -158 l 25
 158 -158 l 25
 158 158 l 25
 0 158 l 25
 0 236 l 25
0 394 m 25
 473 394 l 25
 473 315 l 25
 0 315 l 25
 0 394 l 25
EndSplineSet
EndChar

StartChar: SF480000
Encoding: 508 9573 507
Width: 469
VWidth: 0
Flags: W
HStem: 236 79<0 79 158 236 315 473>
VStem: 79 79<-158 236> 236 79<-158 236>
LayerCount: 2
Back
Fore
SplineSet
0 315 m 25
 473 315 l 25
 473 236 l 25
 315 236 l 25
 315 -158 l 25
 236 -158 l 25
 236 236 l 25
 158 236 l 25
 158 -158 l 25
 79 -158 l 25
 79 236 l 25
 0 236 l 25
 0 315 l 25
EndSplineSet
EndChar

StartChar: SF410000
Encoding: 509 9574 508
Width: 469
VWidth: 0
Flags: W
HStem: 158 79<0 79 315 473> 315 79<0 473>
VStem: 79 79<-158 158> 236 79<-158 158>
LayerCount: 2
Back
Fore
SplineSet
236 236 m 25
 473 236 l 25
 473 158 l 25
 315 158 l 25
 315 -158 l 25
 236 -158 l 25
 236 236 l 25
0 236 m 25
 158 236 l 25
 158 -158 l 25
 79 -158 l 25
 79 158 l 25
 0 158 l 25
 0 236 l 25
0 394 m 25
 473 394 l 25
 473 315 l 25
 0 315 l 25
 0 394 l 25
EndSplineSet
EndChar

StartChar: SF450000
Encoding: 510 9575 509
Width: 469
VWidth: 0
Flags: W
HStem: 158 79<0 473> 315 79<0 158 236 473>
VStem: 158 79<394 630>
LayerCount: 2
Back
Fore
SplineSet
0 236 m 25
 473 236 l 25
 473 158 l 25
 0 158 l 25
 0 236 l 25
0 394 m 25
 158 394 l 25
 158 630 l 25
 236 630 l 25
 236 394 l 25
 473 394 l 25
 473 315 l 25
 0 315 l 25
 0 394 l 25
EndSplineSet
EndChar

StartChar: SF460000
Encoding: 511 9576 510
Width: 469
VWidth: 0
Flags: W
HStem: 236 79<0 79 158 236 315 473>
VStem: 79 79<315 630> 236 79<315 630>
LayerCount: 2
Back
Fore
SplineSet
0 315 m 25
 79 315 l 25
 79 630 l 25
 158 630 l 25
 158 315 l 25
 236 315 l 25
 236 630 l 25
 315 630 l 25
 315 315 l 25
 473 315 l 25
 473 236 l 25
 0 236 l 25
 0 315 l 25
EndSplineSet
EndChar

StartChar: SF400000
Encoding: 512 9577 511
Width: 469
VWidth: 0
Flags: W
HStem: 158 79<0 473> 315 79<0 79 315 473>
VStem: 79 79<394 630> 236 79<394 630>
LayerCount: 2
Back
Fore
SplineSet
0 236 m 25
 473 236 l 25
 473 158 l 25
 0 158 l 25
 0 236 l 25
236 630 m 25
 315 630 l 25
 315 394 l 25
 473 394 l 25
 473 315 l 25
 236 315 l 25
 236 630 l 25
0 394 m 25
 79 394 l 25
 79 630 l 25
 158 630 l 25
 158 315 l 25
 0 315 l 25
 0 394 l 25
EndSplineSet
EndChar

StartChar: SF540000
Encoding: 513 9578 512
Width: 469
VWidth: 0
Flags: W
HStem: 158 79<0 158 236 473> 315 79<0 158 236 473>
VStem: 158 79<-158 158 236 315 394 630>
LayerCount: 2
Back
Fore
SplineSet
0 394 m 25
 158 394 l 25
 158 630 l 25
 236 630 l 25
 236 394 l 25
 473 394 l 25
 473 315 l 25
 236 315 l 25
 236 236 l 25
 473 236 l 25
 473 158 l 25
 236 158 l 25
 236 -158 l 25
 158 -158 l 25
 158 158 l 25
 0 158 l 25
 0 236 l 25
 158 236 l 25
 158 315 l 25
 0 315 l 25
 0 394 l 25
EndSplineSet
EndChar

StartChar: SF530000
Encoding: 514 9579 513
Width: 469
VWidth: 0
Flags: W
HStem: 236 79<0 79 158 236 315 473>
VStem: 79 79<-158 236 315 630> 236 79<-158 236 315 630>
LayerCount: 2
Back
Fore
SplineSet
0 315 m 25
 79 315 l 25
 79 630 l 25
 158 630 l 25
 158 315 l 25
 236 315 l 25
 236 630 l 25
 315 630 l 25
 315 315 l 25
 473 315 l 25
 473 236 l 25
 315 236 l 25
 315 -158 l 25
 236 -158 l 25
 236 236 l 25
 158 236 l 25
 158 -158 l 25
 79 -158 l 25
 79 236 l 25
 0 236 l 25
 0 315 l 25
EndSplineSet
EndChar

StartChar: SF440000
Encoding: 515 9580 514
Width: 469
VWidth: 0
Flags: W
HStem: 158 79<0 79 315 473> 315 79<0 79 315 473>
VStem: 0 158<158 236 315 394> 79 79<-158 158 394 630> 236 236<158 236 315 394> 236 79<-158 158 394 630>
LayerCount: 2
Back
Fore
SplineSet
236 236 m 25xc8
 473 236 l 25
 473 158 l 25xc8
 315 158 l 25
 315 -158 l 25
 236 -158 l 25xc4
 236 236 l 25xc8
0 236 m 25xe0
 158 236 l 25xe0
 158 -158 l 25
 79 -158 l 25
 79 158 l 25xd0
 0 158 l 25
 0 236 l 25xe0
236 630 m 25xc4
 315 630 l 25
 315 394 l 25xc4
 473 394 l 25
 473 315 l 25
 236 315 l 25xc8
 236 630 l 25xc4
0 394 m 25xe0
 79 394 l 25
 79 630 l 25
 158 630 l 25xd0
 158 315 l 25
 0 315 l 25
 0 394 l 25xe0
EndSplineSet
EndChar

StartChar: uni256D
Encoding: 516 9581 515
Width: 469
VWidth: 0
Flags: W
HStem: 158 79<236 315> 236 79<315 473>
VStem: 158 79<-158 158> 236 79<158 236>
LayerCount: 2
Back
Fore
SplineSet
158 -158 m 25xa0
 158 158 l 25
 236 158 l 25xa0
 236 236 l 25
 315 236 l 25x90
 315 315 l 25
 473 315 l 25
 473 236 l 25x50
 315 236 l 25
 315 158 l 25x90
 236 158 l 25
 236 -158 l 25
 158 -158 l 25xa0
EndSplineSet
EndChar

StartChar: uni256E
Encoding: 517 9582 516
Width: 469
VWidth: 0
Flags: W
HStem: 158 79<79 158> 236 79<0 79>
VStem: 0 79<236 315> 79 79<158 236> 158 79<-158 158>
LayerCount: 2
Back
Fore
SplineSet
0 315 m 25x60
 79 315 l 25x60
 79 236 l 25xa0
 158 236 l 25
 158 158 l 25x90
 236 158 l 25
 236 -158 l 25
 158 -158 l 25x88
 158 158 l 25
 79 158 l 25x90
 79 236 l 25xa0
 0 236 l 25
 0 315 l 25x60
EndSplineSet
EndChar

StartChar: uni256F
Encoding: 518 9583 517
Width: 469
VWidth: 0
Flags: W
HStem: 236 79<0 79> 315 79<79 158>
VStem: 0 79<236 315> 79 79<315 394> 158 79<394 630>
LayerCount: 2
Back
Fore
SplineSet
0 315 m 25xa0
 79 315 l 25xa0
 79 394 l 25
 158 394 l 25x50
 158 630 l 25
 236 630 l 25
 236 394 l 25x48
 158 394 l 25
 158 315 l 25x50
 79 315 l 25
 79 236 l 25
 0 236 l 25
 0 315 l 25xa0
EndSplineSet
EndChar

StartChar: uni2570
Encoding: 519 9584 518
Width: 469
VWidth: 0
Flags: W
HStem: 236 79<315 473> 315 79<236 315>
VStem: 158 79<394 630> 236 79<315 394>
LayerCount: 2
Back
Fore
SplineSet
158 630 m 25x60
 236 630 l 25
 236 394 l 25x60
 315 394 l 25x50
 315 315 l 25
 473 315 l 25
 473 236 l 25
 315 236 l 25
 315 315 l 25x90
 236 315 l 25x50
 236 394 l 25
 158 394 l 25
 158 630 l 25x60
EndSplineSet
EndChar

StartChar: uni2571
Encoding: 520 9585 519
Width: 469
VWidth: 0
Flags: W
HStem: 158 79<158 236> 236 79<236 315>
VStem: 0 79<-158 0> 79 79<0 158> 158 79<158 236> 236 79<236 315> 315 79<315 473> 394 79<473 630>
LayerCount: 2
Back
Fore
SplineSet
394 630 m 25x41
 473 630 l 25
 473 473 l 25x41
 394 473 l 25
 394 315 l 25x42
 315 315 l 25
 315 236 l 25x44
 236 236 l 25
 236 158 l 25x88
 158 158 l 25
 158 0 l 25x90
 79 0 l 25
 79 -158 l 25
 0 -158 l 25
 0 0 l 25
 79 0 l 25xa0
 79 158 l 25
 158 158 l 25x90
 158 236 l 25
 236 236 l 25x88
 236 315 l 25
 315 315 l 25x44
 315 473 l 25
 394 473 l 25x42
 394 630 l 25x41
EndSplineSet
EndChar

StartChar: uni2572
Encoding: 521 9586 520
Width: 469
VWidth: 0
Flags: W
HStem: 158 79<236 315> 236 79<158 236>
VStem: 0 79<473 630> 79 79<315 473> 158 79<236 315> 236 79<158 236> 315 79<0 158> 394 79<-158 0>
LayerCount: 2
Back
Fore
SplineSet
0 630 m 25x60
 79 630 l 25
 79 473 l 25x60
 158 473 l 25
 158 315 l 25x50
 236 315 l 25x48
 236 236 l 25x88
 315 236 l 25
 315 158 l 25x84
 394 158 l 25
 394 0 l 25x82
 473 0 l 25
 473 -158 l 25
 394 -158 l 25x81
 394 0 l 25
 315 0 l 25x82
 315 158 l 25
 236 158 l 25x84
 236 236 l 25x88
 158 236 l 25x48
 158 315 l 25
 79 315 l 25x50
 79 473 l 25
 0 473 l 25
 0 630 l 25x60
EndSplineSet
EndChar

